<svg xmlns="http://www.w3.org/2000/svg" width="67" height="67" viewBox="0 0 67 67"><defs><style>.a{fill:#eb5256}.b{fill:#fff}</style></defs><title>access-icon-venue</title><circle class="a" cx="33.5" cy="33.5" r="33.5"/><path class="b" d="M16.1 29.513v18.014h14.339v-6.55h6.121v6.55H50.9V29.513zm7.149 14.524h-2.7v-2.971h2.7zm0-7.608h-2.7v-2.971h2.7zm11.6 0h-2.7v-2.971h2.7zm11.6 7.608h-2.7v-2.971h2.7zm0-7.608h-2.7v-2.971h2.7zM34.025 19.473h5.246v8.394h-5.246zm-12.592 0h5.246v8.394h-5.246zm6.295 0h5.247v8.394h-5.247zm-11.577 0h4.232v8.394h-4.232zm30.465 0h4.232v8.394h-4.232zm-6.296 0h5.246v8.394H40.32z"/></svg>