<svg xmlns="http://www.w3.org/2000/svg" width="67" height="67" viewBox="0 0 67 67"><defs><style>.a{fill:#eb5256}</style></defs><title>access-icon-train</title><path class="a" d="M26.416 31.789h14.169a1.389 1.389 0 0 0 1.389-1.389v-5.858a1.389 1.389 0 0 0-1.389-1.389h-14.17a1.388 1.388 0 0 0-1.387 1.389V30.4a1.388 1.388 0 0 0 1.388 1.389zm-.064 6.495a1.619 1.619 0 1 0 0 3.238 1.619 1.619 0 0 0 0-3.237zm1.859-19.442h10.578v1.763H28.211z"/><path class="a" d="M33.5 0A33.5 33.5 0 1 0 67 33.5 33.5 33.5 0 0 0 33.5 0zm12.341 40a5.2 5.2 0 0 1-4.3 5.112l3.83 5.788h-3.404L40.4 48.524H26.606L25.034 50.9h-3.406l3.831-5.787a5.2 5.2 0 0 1-4.3-5.113V22.208a6.108 6.108 0 0 1 6.108-6.108h12.466a6.108 6.108 0 0 1 6.108 6.108z"/><path class="a" d="M40.652 38.283a1.619 1.619 0 1 0 0 3.238 1.619 1.619 0 0 0 0-3.238zm-11.841 6.908l-1.183 1.789H39.37l-1.183-1.789h-9.376z"/></svg>