<svg xmlns="http://www.w3.org/2000/svg" width="67" height="67" viewBox="0 0 67 67"><defs><style>.a{fill:#eb5256}.b{fill:#fff}</style></defs><title>access-icon-train</title><circle class="a" cx="33.5" cy="33.5" r="33.5"/><path class="b" d="M45.841 40V22.208a6.108 6.108 0 0 0-6.108-6.108H27.267a6.108 6.108 0 0 0-6.108 6.108V40a5.2 5.2 0 0 0 4.3 5.113L21.628 50.9h3.406l1.572-2.376h13.789l1.572 2.376h3.405l-3.83-5.788A5.2 5.2 0 0 0 45.841 40zm-17.63-21.158h10.578v1.763H28.211zm-3.183 5.7a1.388 1.388 0 0 1 1.388-1.389h14.169a1.389 1.389 0 0 1 1.389 1.389V30.4a1.389 1.389 0 0 1-1.389 1.389H26.416a1.388 1.388 0 0 1-1.388-1.389v-5.859zm1.322 16.98a1.619 1.619 0 1 1 1.62-1.622 1.619 1.619 0 0 1-1.62 1.621zm1.278 5.458l1.183-1.789h9.376l1.183 1.789zm13.022-5.459a1.619 1.619 0 1 1 1.62-1.621 1.619 1.619 0 0 1-1.62 1.621z"/></svg>