<svg xmlns="http://www.w3.org/2000/svg" width="67" height="67" viewBox="0 0 67 67"><defs><style>.a{fill:#eb5256}</style></defs><title>access-icon-venue</title><path class="a" d="M32.149 33.458h2.7v2.971h-2.7zm11.6 7.608h2.7v2.971h-2.7z"/><path class="a" d="M33.5 0A33.5 33.5 0 1 0 67 33.5 33.5 33.5 0 0 0 33.5 0zm13.116 19.473h4.232v8.394h-4.232zm-6.3 0h5.246v8.394H40.32zm-6.295 0h5.246v8.394h-5.242zm-6.3 0h5.247v8.394h-5.24zm-6.3 0h5.246v8.394h-5.234zm-5.282 0h4.232v8.394h-4.22zM50.9 47.527H36.56v-6.55h-6.121v6.55H16.1V29.513h34.8z"/><path class="a" d="M43.749 33.458h2.7v2.971h-2.7zm-23.2 0h2.7v2.971h-2.7zm0 7.608h2.7v2.971h-2.7z"/></svg>