<svg xmlns="http://www.w3.org/2000/svg" width="240" height="70" viewBox="0 0 240 70"><defs><style>.a{fill:#fefefe}</style></defs><title>coderdojo-logo</title><path d="M94 41.8v6.1a14.793 14.793 0 0 1-1 5 7.35 7.35 0 0 1-2.5 3c-1 1-3 1.5-5 1.5s-4-.5-5-1.5a13.257 13.257 0 0 1-2.5-3 14.793 14.793 0 0 1-1-5V21.6a11.941 11.941 0 0 1 1-4.5 15.194 15.194 0 0 1 2.5-3.5c1-1 3-1.5 5-1.5s4 .5 5 1.5a8.969 8.969 0 0 1 2.5 3.5 14.6 14.6 0 0 1 1 4.5v6.1h-6.1v-6.1a3.819 3.819 0 0 0-1-2.5 1.837 1.837 0 0 0-1.5-.5c-1 0-1.5 1-2 1.5a1.837 1.837 0 0 1-.5 1.5v26.3a3.819 3.819 0 0 0 1 2.5c.5.5.5.5 1 .5 1.5 0 2-.5 2-1.5v-7.6zm18.7 7.1c0 3-1 5.6-3 7.1a6.112 6.112 0 0 1-4.5 1.5c-4 0-6.1-2-6.6-4.5a9.984 9.984 0 0 1-1-4.5V31.7a10.405 10.405 0 0 1 3-7.6 6.112 6.112 0 0 1 4.5-1.5c4 0 6.1 2 7.1 4a11.767 11.767 0 0 1 1 4v16.7zm-5.6-16.7a3.674 3.674 0 0 0-1-3 1.837 1.837 0 0 0-1.5-.5c-1 0-1.5 1-2 1.5v18.2a3.674 3.674 0 0 0 1 3c.5.5.5.5 1.5.5s1.5-.5 2-1.5zM132.4 57h-6.1v-2a10.46 10.46 0 0 1-3 2 1.837 1.837 0 0 1-1.5.5 4.209 4.209 0 0 1-3.5-2c-1-1-1-3-1-4V30.2a9.419 9.419 0 0 1 1-4 4.209 4.209 0 0 1 3.5-2 3.564 3.564 0 0 1 3 1.5l1.5 1.5V13.5h6.1zm-6.1-25.8a2.151 2.151 0 0 0-2-2c-1 0-1.5 1-1.5 2v18.7c0 1 .5 2 1.5 2a2.151 2.151 0 0 0 2-2zm26.3 14.2v4c0 3-1 5.6-3.5 7.1a6.112 6.112 0 0 1-4.5 1.5c-4 0-6.1-2-7.1-4.5a9.984 9.984 0 0 1-1-4.5V32.2a9.181 9.181 0 0 1 3.5-7.6 6.112 6.112 0 0 1 4.5-1.5c4 0 6.1 2 7.1 4a11.767 11.767 0 0 1 1 4v9.6h-10.1v7.1a7.107 7.107 0 0 0 1 3c.5.5.5.5 1.5.5s1.5-.5 2-1.5v-5h5.6zm-10.1-8.1h4.5v-4.5a3.674 3.674 0 0 0-1-3 1.837 1.837 0 0 0-1.5-.5c-1 0-1.5 1-2 1.5a1.837 1.837 0 0 1-.5 1.5v4.5zm26.2-6.6h-1.5a3.674 3.674 0 0 0-3 1 4.322 4.322 0 0 0-1.5 3v22.7h-6.1V24.6h6.1v3.5a4.569 4.569 0 0 1 1.5-2.5 6.112 6.112 0 0 1 4.5-1.5zm2.5 26.8V13h5c6.1 0 9.1 1 11.1 4.5 1.5 3.5 2 9.1 2 17.7s0 14.1-2 17.7c-1.5 3.5-5 4.5-11.1 4.5l-5 .1zm6.6-6.6c2 0 3.5 0 4-2.5.5-1 .5-2.5.5-4.5V26.7c0-2-.5-3.5-.5-4.5-.5-2-2-2.5-4-2.5zm30.8-1.5c0 3-1 5.6-3 7.1a6.112 6.112 0 0 1-4.5 1.5c-4 0-6.1-2-6.6-4.5a9.984 9.984 0 0 1-1-4.5V32.2a10.405 10.405 0 0 1 3-7.6 6.112 6.112 0 0 1 4.5-1.5c4 0 6.1 2 7.1 4a11.767 11.767 0 0 1 1 4v16.7zm-5.5-16.7a3.674 3.674 0 0 0-1-3 1.837 1.837 0 0 0-1.5-.5c-1 0-1.5 1-2 1.5v18.2a3.674 3.674 0 0 0 1 3c.5.5.5.5 1.5.5s1.5-.5 2-1.5zm9.5-19.7h6.1v6.1h-6.1zm6.1 11.1V58c0 1.5 0 4.5-1 6.6-1 2-2.5 4-6.1 4h-2.5V63h1.5c1 0 1.5-1 1.5-2V24.1zm19.7 24.8c0 3-1 5.6-3 7.1a6.112 6.112 0 0 1-4.5 1.5c-4 0-6.1-2-6.6-4.5a9.984 9.984 0 0 1-1-4.5V31.7a10.405 10.405 0 0 1 3-7.6 6.112 6.112 0 0 1 4.5-1.5c4 0 6.1 2 7.1 4a11.767 11.767 0 0 1 1 4v16.7zm-5.6-16.7a3.674 3.674 0 0 0-1-3 1.837 1.837 0 0 0-1.5-.5c-1 0-1.5 1-2 1.5v18.2a3.674 3.674 0 0 0 1 3c.5.5.5.5 1.5.5s1.5-.5 2-1.5z"/><path class="a" d="M66.2 34.7A32.3 32.3 0 1 1 33.9 2.4a32.35 32.35 0 0 1 32.3 32.3z"/><path d="M34.4 1.4a33.3 33.3 0 1 0 33.3 33.3A33.288 33.288 0 0 0 34.4 1.4zm6.1 57.1c0 .5 0 .5-.5.5l-.5.5h-8.1c-.5 0-.5 0-.5-.5l-.5-.5c0-.5 0-.5.5-.5l.5-.5h3V45.9h-3c-.5 0-.5 0-.5-.5l-.5-.5c0-.5 0-.5.5-.5l.5-.5h5v13.6h2v-4c0-.5 0-.5.5-.5l.5-.5c.5 0 .5 0 .5.5l.5.5.1 5zm-6.1-24.3a15.792 15.792 0 0 0-15.7 15.7c0 8.6 6.6 15.7 15.1 15.7A31.092 31.092 0 0 1 2.5 34.3 30.986 30.986 0 0 1 33.3 3h1A15.792 15.792 0 0 1 50 18.7a15.535 15.535 0 0 1-15.6 15.5z"/><path d="M28.9 22.1V10.5a1.768 1.768 0 0 1 2-2H37a1.768 1.768 0 0 1 2 2v11.6a1.768 1.768 0 0 1-2 2h-6.1a1.768 1.768 0 0 1-2-2zm8 0V10.5h-6.1v11.6z"/></svg>