<svg xmlns="http://www.w3.org/2000/svg" width="1500" height="750" viewBox="0 0 1500 750"><defs><style>.a{fill:url(#a)}.b{fill:#fff}.c,.e{fill:#fafafa}.d{fill:none;stroke:#fafafa;stroke-miterlimit:10;stroke-width:.5px}.e{opacity:.05}</style><radialGradient id="a" cx="605.546" cy="336.336" r="718.318" gradientTransform="matrix(.986 0 0 .557 14.748 -4.728)" gradientUnits="userSpaceOnUse"><stop offset="0" stop-color="#34495e"/><stop offset=".364" stop-color="#34495e"/><stop offset="1" stop-color="#293b4b"/></radialGradient></defs><title>hero-nightsky</title><path class="a" d="M0 0h1500v750H0z"/><path class="b" d="M167.094 191.237a1.5 1.5 0 0 0 0-3 1.5 1.5 0 0 0 0 3zm76.568-121.612a1.5 1.5 0 0 0 0-3 1.5 1.5 0 0 0 0 3zM518.57 93.624a1.5 1.5 0 0 0 0-3 1.5 1.5 0 0 0 0 3zm528.003-18.354a1.5 1.5 0 0 0 0-3 1.5 1.5 0 0 0 0 3zm361.027 27.354a1.5 1.5 0 0 0 0-3 1.5 1.5 0 0 0 0 3zm-6 74.996a1.5 1.5 0 0 0 0-3 1.5 1.5 0 0 0 0 3zm52.5 61.497a1.5 1.5 0 0 0 0-3 1.5 1.5 0 0 0 0 3zM1191.615 81.625a1.5 1.5 0 0 0 0-3 1.5 1.5 0 0 0 0 3zM73.28 146.6a1.5 1.5 0 0 0 0-3 1.5 1.5 0 0 0 0 3zM1475.1 83.125a1.5 1.5 0 0 0 0-3 1.5 1.5 0 0 0 0 3zM308.615 139a1.5 1.5 0 0 0 0-3 1.5 1.5 0 0 0 0 3zm43.042-70.874a1.5 1.5 0 0 0 0-3 1.5 1.5 0 0 0 0 3zm41.884 97.812a1.5 1.5 0 0 0 0-3 1.5 1.5 0 0 0 0 3zM1161.309 322a1.5 1.5 0 0 0 0-3 1.5 1.5 0 0 0 0 3zm256.791-1.887a1.5 1.5 0 0 0 0-3 1.5 1.5 0 0 0 0 3z"/><path class="c" d="M854.546 139a1.5 1.5 0 0 0 0-3 1.5 1.5 0 0 0 0 3zm61 45a1.5 1.5 0 0 0 0-3 1.5 1.5 0 0 0 0 3zM51.771 240.883a1.5 1.5 0 0 0 0-3 1.5 1.5 0 0 0 0 3zm1107.789-29.131a1.5 1.5 0 0 0 0-3 1.5 1.5 0 0 0 0 3zm-92.671 159.029a1.5 1.5 0 0 0 0-3 1.5 1.5 0 0 0 0 3zM1298.2 221.592a1.5 1.5 0 0 0 0-3 1.5 1.5 0 0 0 0 3zM918.546 95a1.5 1.5 0 0 0 0-3 1.5 1.5 0 0 0 0 3zm-828 314a1.5 1.5 0 0 0 0-3 1.5 1.5 0 0 0 0 3zm60-68a1.5 1.5 0 0 0 0-3 1.5 1.5 0 0 0 0 3zm67.136-182.748a1.5 1.5 0 0 0 0-3 1.5 1.5 0 0 0 0 3zM1286.546 397a1.5 1.5 0 0 0 0-3 1.5 1.5 0 0 0 0 3zm118.905 110.416a1.5 1.5 0 0 0 0-3 1.5 1.5 0 0 0 0 3zM1375.546 409a1.5 1.5 0 0 0 0-3 1.5 1.5 0 0 0 0 3zm-106.97-250.748a1.5 1.5 0 0 0 0-3 1.5 1.5 0 0 0 0 3zm17.224 146.736a1.5 1.5 0 0 0 0-3 1.5 1.5 0 0 0 0 3zM177.546 462a1.5 1.5 0 0 0 0-3 1.5 1.5 0 0 0 0 3zm-78 57a1.5 1.5 0 0 0 0-3 1.5 1.5 0 0 0 0 3zm409-46a1.5 1.5 0 0 0 0-3 1.5 1.5 0 0 0 0 3zm-18-36a1.5 1.5 0 0 0 0-3 1.5 1.5 0 0 0 0 3zm527.732-273.621a1.5 1.5 0 0 0 0-3 1.5 1.5 0 0 0 0 3z"/><path class="e" d="M267.195 385.247c269.449-50.912 269.31-49.953 269.31-49.953l121.111-83.241 226.275-6.276 159.779-24.752 157.379-130.84 280.87 7.534L1500 84.089V44.512l-4.956 6.162s-107.961-.026-151.72 5.363-143.331-9.083-143.331-9.083l-126.131 38.454-141.8 117.438-256.921 22.382-201.641 9.856-187.033 82.472-147.953 58.78L7.932 387.708 0 391.9v87.4c16.963-18.984 74.226-57.592 267.195-94.053zm862.957-108.494l-155.487 34.194-130.709-9.8-77.9 26.193-58.3 98.432 104.668-24.847s13.671-53.6 287.8-60.467 273.839-5.945 273.839-5.945L1500 275.158v-30.2l-171.975-19.491zM304.337 600.092l161.679 1.294 176.39-103.8L918.4 550.244l96.546-50.784-35.007-30.366-41.009 36.831s-106.548-17.407-150.6-19.133-140-32.04-140-32.04L517.649 472.4l-158.861 93.075L101.619 546.2 0 534.687v72.88l80-37.71z"/></svg>