<svg xmlns="http://www.w3.org/2000/svg" width="1095.088" height="387.304" viewBox="0 0 1095.088 387.304"><defs><style>.a{fill:#fafafa}</style></defs><title>hero-andyou</title><path class="a" d="M914.546 121.751c17.714-3.644 39.77-14.4 46.287-32.657 5.265-14.751-2.768-32.368-16.183-39.763-17.307-9.541-41.476-8.448-59.641-2.213-16.309 5.6-29.413 19.063-22.859 37.34 3.542 9.876 11.7 17.032 20.758 21.859 4.787 2.551 11.045 4.053 14.93 8 6.02 6.121.784 16.439-7.552 15.938-.964-.058-.961 1.442 0 1.5a11.4 11.4 0 0 0 11.632-9.432c1.119-5.962-3.289-10.1-8.176-12.6-8.842-4.51-17.662-7.909-24.315-15.723-7.126-8.37-10.38-20.969-4.456-30.9 9.845-16.51 36.039-19.975 53.286-18.867 10.487.674 22.652 2.957 30.84 10.025A34.538 34.538 0 0 1 960.818 76.6c2.408 24.5-26.465 39.543-46.67 43.7-.945.194-.545 1.641.4 1.446z"/><path class="a" d="M887.257 77.8h-2.1v-4.2h2.1zm0 6.3h-2.1v-4.2h2.1zm2.1-10.5h-2.1v-2.1h2.1zm0 6.3h-2.1v-2.1h2.1zm2.1 4.2h-2.1v2.1h-2.1v-2.1h2.1v-4.2h4.2V82h-2.1zm-2.1-6.3v-4.2h2.1v4.2zm2.1 6.3h2.1v2.1h-2.1zm16.8-4.2h-2.1v-8.4h2.1zm2.1 0v6.3h-2.1v-6.3zm0 0v-2.1h2.1v2.1zm2.1-2.1v-6.3h2.1v6.3zm6.233 6.3h-2.1v-6.3h2.1zm4.2-6.3h-4.2v-2.1h4.2zm0 8.4h-4.2v-2.1h4.2zm0-2.1v-6.3h2.1v6.3zm6.256 0h-2.1v-8.4h2.1zm6.3 2.1h-6.3v-2.1h4.2v-8.4h2.1zm6.289-14.7V82h-2.1V71.5zm-2.1 14.7v-2.1h2.1v2.1zm53.803-28.537l-19.081 4.811a.751.751 0 0 0 .4 1.446l19.081-4.811a.751.751 0 0 0-.4-1.446zm-53.695-47.62l-2.9 19.463c-.141.944 1.3 1.352 1.446.4l2.9-19.463c.141-.944-1.3-1.352-1.446-.4zm31.75 18.251l-9.419 10.4c-.647.714.411 1.778 1.061 1.061l9.419-10.4c.647-.714-.411-1.778-1.061-1.061z"/></svg>