<svg xmlns="http://www.w3.org/2000/svg" width="320" height="570" viewBox="0 0 320 570"><defs><style>.a{fill:#fff}</style></defs><title>hero-stars</title><path class="a" d="M222.133 85.5a.778.778 0 0 0 0-1.555.778.778 0 0 0 0 1.555zm77.194 48.6a.778.778 0 0 0 0-1.555.778.778 0 0 0 0 1.555zm-15.233 174.5a.778.778 0 0 0 0-1.555.778.778 0 0 0 0 1.555zM21.434 418.167a.778.778 0 0 0 0-1.555.778.778 0 0 0 0 1.555zM86.4 192.807a.778.778 0 0 0 0-1.555.778.778 0 0 0 0 1.555zm39.038-33.323a.778.778 0 0 0 0-1.555.778.778 0 0 0 0 1.555zM25.468 326.1a.778.778 0 0 0 0-1.555.778.778 0 0 0 0 1.555zm.952-179.946a.778.778 0 0 0 0-1.555.778.778 0 0 0 0 1.555zm228.871 29.176a.778.778 0 0 0 0-1.555.778.778 0 0 0 0 1.555zm-17.1 53.908a.778.778 0 0 0 0-1.555.778.778 0 0 0 0 1.555zm-60.144 116.099a.778.778 0 0 0 0-1.555.778.778 0 0 0 0 1.555zm-1.195-163.003a.778.778 0 0 0 0-1.555.778.778 0 0 0 0 1.555zm13.767-170.039a.778.778 0 0 0 0-1.555.778.778 0 0 0 0 1.555zm-82.551 334.152a.778.778 0 0 0 0-1.555.778.778 0 0 0 0 1.555zm100.946 58.825a.778.778 0 0 0 0-1.555.778.778 0 0 0 0 1.555zM83.9 36.908a.778.778 0 0 0 0-1.555.778.778 0 0 0 0 1.555zm43.169 38.085a.778.778 0 0 0 0-1.555.778.778 0 0 0 0 1.555zm116.001 42.616a.778.778 0 0 0 0-1.555.778.778 0 0 0 0 1.555zm-17.413 148.233a.778.778 0 0 0 0-1.555.778.778 0 0 0 0 1.555zm70.088-75.477a.778.778 0 0 0 0-1.555.778.778 0 0 0 0 1.555zM50.262 92.132a.778.778 0 0 0 0-1.555.778.778 0 0 0 0 1.555zM14.081 42.621a.778.778 0 0 0 0-1.555.778.778 0 0 0 0 1.555zm63.282 393.507a.778.778 0 0 0 0-1.555.778.778 0 0 0 0 1.555zm-.499-219.265a.778.778 0 0 0 0-1.555.778.778 0 0 0 0 1.555z"/></svg>