<svg id="nightsky" xmlns="http://www.w3.org/2000/svg" viewBox="0 0 3400 800"><defs><style>.cls-1{fill:url(#名称未設定グラデーション_23)}.cls-2{fill:#fff}.cls-3,.cls-4{fill:#fafafa}.cls-4{opacity:.05}</style><radialGradient id="名称未設定グラデーション_23" cx="1070.98" cy="1156.29" r="708.4" gradientTransform="matrix(2.27 0 0 1.55 -866.5 -1556.1)" gradientUnits="userSpaceOnUse"><stop offset="0" stop-color="#34495e"/><stop offset=".16" stop-color="#34495e"/><stop offset=".44" stop-color="#293b4b"/></radialGradient></defs><title>hero-nightsky</title><path id="sky" class="cls-1" d="M0 0h3400v800H0z"/><g id="stars"><path class="cls-2" d="M1129.5 208.6a1.5 1.5 0 0 0 0-3 1.5 1.5 0 0 0 0 3zM1205 88.7a1.5 1.5 0 0 0 0-3 1.5 1.5 0 0 0 0 3zm271.2 23.6a1.5 1.5 0 0 0 0-3 1.5 1.5 0 0 0 0 3zm520.7-18.1a1.5 1.5 0 0 0 0-3 1.5 1.5 0 0 0 0 3zm356 27a1.5 1.5 0 0 0 0-3 1.5 1.5 0 0 0 0 3zm-5.9 74a1.5 1.5 0 0 0 0-3 1.5 1.5 0 0 0 0 3zm51.8 60.6a1.5 1.5 0 0 0 0-3 1.5 1.5 0 0 0 0 3zm-258.9-155.3a1.5 1.5 0 0 0 0-3 1.5 1.5 0 0 0 0 3zM1037 164.6a1.5 1.5 0 0 0 0-3 1.5 1.5 0 0 0 0 3zm-30.2-84.8a1.5 1.5 0 0 0 0-3 1.5 1.5 0 0 0 0 3zM2419.5 102a1.5 1.5 0 0 0 0-3 1.5 1.5 0 0 0 0 3zm-1150.4 55.1a1.5 1.5 0 0 0 0-3 1.5 1.5 0 0 0 0 3zm42.4-69.9a1.5 1.5 0 0 0 0-3 1.5 1.5 0 0 0 0 3zm189.4-11.8a1.5 1.5 0 0 0 0-3 1.5 1.5 0 0 0 0 3zm-148 108.2a1.5 1.5 0 0 0 0-3 1.5 1.5 0 0 0 0 3zm757.1 154a1.5 1.5 0 0 0 0-3 1.5 1.5 0 0 0 0 3zm253.3-1.9a1.5 1.5 0 0 0 0-3 1.5 1.5 0 0 0 0 3z"/><path class="cls-3" d="M1807.5 157.1a1.5 1.5 0 0 0 0-3 1.5 1.5 0 0 0 0 3zm60.2 44.4a1.5 1.5 0 0 0 0-3 1.5 1.5 0 0 0 0 3zm-851.9 56.1a1.5 1.5 0 0 0 0-3 1.5 1.5 0 0 0 0 3zm1092.5-28.8a1.5 1.5 0 0 0 0-3 1.5 1.5 0 0 0 0 3zm-91.4 156.9a1.5 1.5 0 0 0 0-3 1.5 1.5 0 0 0 0 3zM2245 238.5a1.5 1.5 0 0 0 0-3 1.5 1.5 0 0 0 0 3zm-374.4-124.8a1.5 1.5 0 0 0 0-3 1.5 1.5 0 0 0 0 3zM1054 423.4a1.5 1.5 0 0 0 0-3 1.5 1.5 0 0 0 0 3zm59.2-67.1a1.5 1.5 0 0 0 0-3 1.5 1.5 0 0 0 0 3zm66.2-180.2a1.5 1.5 0 0 0 0-3 1.5 1.5 0 0 0 0 3zm1054.1 235.4a1.5 1.5 0 0 0 0-3 1.5 1.5 0 0 0 0 3zm117.3 108.9a1.5 1.5 0 0 0 0-3 1.5 1.5 0 0 0 0 3zm-29.5-97a1.5 1.5 0 0 0 0-3 1.5 1.5 0 0 0 0 3zm-105.5-247.3a1.5 1.5 0 0 0 0-3 1.5 1.5 0 0 0 0 3zm17 144.7a1.5 1.5 0 0 0 0-3 1.5 1.5 0 0 0 0 3zm-1093 154.8a1.5 1.5 0 0 0 0-3 1.5 1.5 0 0 0 0 3zm-76.9 56.2a1.5 1.5 0 0 0 0-3 1.5 1.5 0 0 0 0 3zm403.4-45.3a1.5 1.5 0 0 0 0-3 1.5 1.5 0 0 0 0 3zm-17.8-35.5a1.5 1.5 0 0 0 0-3 1.5 1.5 0 0 0 0 3zM1969 181.1a1.5 1.5 0 0 0 0-3 1.5 1.5 0 0 0 0 3z"/><path class="cls-2" d="M416.8 78.6a1.5 1.5 0 0 0 0-3 1.5 1.5 0 0 0 0 3zm356.1 26.9a1.5 1.5 0 0 0 0-3 1.5 1.5 0 0 0 0 3zm-5.9 74a1.5 1.5 0 0 0 0-3 1.5 1.5 0 0 0 0 3zm51.7 60.6a1.5 1.5 0 0 0 0-3 1.5 1.5 0 0 0 0 3zM559.9 84.8a1.5 1.5 0 0 0 0-3 1.5 1.5 0 0 0 0 3zm279.6 1.5a1.5 1.5 0 0 0 0-3 1.5 1.5 0 0 0 0 3zM530 321.9a1.5 1.5 0 0 0 0-3 1.5 1.5 0 0 0 0 3zm253.2-1.9a1.5 1.5 0 0 0 0-3 1.5 1.5 0 0 0 0 3z"/><path class="cls-3" d="M227.5 141.4a1.5 1.5 0 0 0 0-3 1.5 1.5 0 0 0 0 3zm60.1 44.4a1.5 1.5 0 0 0 0-3 1.5 1.5 0 0 0 0 3zm240.7 27.4a1.5 1.5 0 0 0 0-3 1.5 1.5 0 0 0 0 3zM436.9 370a1.5 1.5 0 0 0 0-3 1.5 1.5 0 0 0 0 3zM665 222.9a1.5 1.5 0 0 0 0-3 1.5 1.5 0 0 0 0 3zM290.6 98a1.5 1.5 0 0 0 0-3 1.5 1.5 0 0 0 0 3zm362.9 297.9a1.5 1.5 0 0 0 0-3 1.5 1.5 0 0 0 0 3zm117.3 108.8a1.5 1.5 0 0 0 0-3 1.5 1.5 0 0 0 0 3zm-29.5-97a1.5 1.5 0 0 0 0-3 1.5 1.5 0 0 0 0 3zM635.8 160.4a1.5 1.5 0 0 0 0-3 1.5 1.5 0 0 0 0 3zm17 144.7a1.5 1.5 0 0 0 0-3 1.5 1.5 0 0 0 0 3zM388.9 165.5a1.5 1.5 0 0 0 0-3 1.5 1.5 0 0 0 0 3z"/><path class="cls-2" d="M2680.9 213.7a1.5 1.5 0 0 0 0-3 1.5 1.5 0 0 0 0 3zm75.5-119.9a1.5 1.5 0 0 0 0-3 1.5 1.5 0 0 0 0 3zm271.1 23.7a1.5 1.5 0 0 0 0-3 1.5 1.5 0 0 0 0 3zm-439.2 52.2a1.5 1.5 0 0 0 0-3 1.5 1.5 0 0 0 0 3zm-30.1-84.8a1.5 1.5 0 0 0 0-3 1.5 1.5 0 0 0 0 3zm262.2 77.3a1.5 1.5 0 0 0 0-3 1.5 1.5 0 0 0 0 3zm42.5-69.9a1.5 1.5 0 0 0 0-3 1.5 1.5 0 0 0 0 3zm189.3-11.8a1.5 1.5 0 0 0 0-3 1.5 1.5 0 0 0 0 3zm-148 108.3a1.5 1.5 0 0 0 0-3 1.5 1.5 0 0 0 0 3z"/><path class="cls-3" d="M2567.1 262.7a1.5 1.5 0 0 0 0-3 1.5 1.5 0 0 0 0 3zm38.3 165.8a1.5 1.5 0 0 0 0-3 1.5 1.5 0 0 0 0 3zm59.1-67.1a1.5 1.5 0 0 0 0-3 1.5 1.5 0 0 0 0 3zm66.3-180.2a1.5 1.5 0 0 0 0-3 1.5 1.5 0 0 0 0 3zm-39.6 299.5a1.5 1.5 0 0 0 0-3 1.5 1.5 0 0 0 0 3zm-77 56.3a1.5 1.5 0 0 0 0-3 1.5 1.5 0 0 0 0 3zm403.4-45.4a1.5 1.5 0 0 0 0-3 1.5 1.5 0 0 0 0 3zm-17.7-35.5a1.5 1.5 0 0 0 0-3 1.5 1.5 0 0 0 0 3z"/></g><g id="cloud"><path class="cls-4" d="M2439.2 70s-106.5 0-149.6 5.3-141.4-9-141.4-9l-124.4 37.9L1883.9 220l-253.4 22.1-198.9 9.7-184.5 81.3-145.9 58-128.6 11.3-71.7 37.9-41.1 105 97.9-40.8s4.8-54.3 270.5-104.5 265.6-49.3 265.6-49.3l119.4-82.1 223.2-6.2L1994 238l155.2-129 277 7.4 85.9-64.8-38.9-24zM3298 225.1s-105.1-17.2-148.5-18.9-138.1-31.6-138.1-31.6L2882.5 192l-156.7 91.8-253.6-19-197.8-22.4-195.1 50.6-153.3 33.7-128.9-9.7-76.8 25.8-57.5 97.1 103.2-24.5s13.5-52.9 283.8-59.6 270.1-5.9 270.1-5.9l131.1-61.8 221.2 29.8 159.4 1.3 174-102.4 272.2 51.9 95.2-50.1-34.5-29.9z"/><path class="cls-4" d="M1890.7 518.9s-105.1-17.2-148.5-18.9-138.1-31.6-138.1-31.6l-128.9 17.4-156.7 91.8-253.6-19-197.8-22.4L672 586.8l-153.3 33.7-128.9-9.7-76.8 25.8-57.5 97.1 103.2-24.5s13.5-52.9 283.8-59.6 270.1-5.9 270.1-5.9l131-61.7 221.2 29.8 159.4 1.3 174-102.4 272.2 51.9 95.2-50.1-34.5-29.9z"/></g></svg>