<svg xmlns="http://www.w3.org/2000/svg" width="1095.088" height="387.304" viewBox="0 0 1095.088 387.304"><defs><style>.a{fill:#34495e}</style></defs><title>shadow-people</title><path class="a" d="M1087.823 301.945l2.771-.6c.96-.208-.851-.793-2.078-.792a6.042 6.042 0 0 0-1.147-.141 26.436 26.436 0 0 0-5.315.453c-1.287-.38-2.811-.807-4.3-1.253-1.907-.905-2.855-1.848-4.883-2.772a15.358 15.358 0 0 0-1.532-.583c.211-.067.423-.144.636-.232s.068-.236-.266-.375c1.224-.046 1.114-.5.034-.958a4.895 4.895 0 0 0-1.937-1.02 11.194 11.194 0 0 0-1.015-.492c-1.464-.613-3.046-1.18-4.7-1.728-3.231-1.2-6.7-2.393-10.123-3.572-1.83-.629-3.8-1.335-5.9-1.938a38.185 38.185 0 0 0-12.471-2.3c-1.476-.01-2.913.014-4.333.051-2.539-1.086-5-2.139-7.462-3.109.515-.107.436-.389-.694-.632-.869-.187-1.724-.377-2.576-.567l-.357-.116a92.586 92.586 0 0 0-15.32-4.555c-10.206-2.344-19.427-4.607-28.563-7.244a5.586 5.586 0 0 0-2.059-.207c-.617-.055-1.155-.026-1.208.149-.267.891-3.792 1.057-5.621 1.607l-.265.05a23.75 23.75 0 0 0-2.62-.588c-1.889-.757-3.191-1.623-5.171-2.358-2.887-1.072-6.553-1.6-10.138-2.438q-2.731-.9-5.749-1.755c1.58.21 2.11-.233.521-.622-1.958-.479-4.75-1.186-7.394-1.638q-1.152-.281-2.274-.575c-2.157-.567-4.159-1.25-6.551-1.75a32.568 32.568 0 0 0-8.847-.672c-.357.027-.763.063-1.17.11a3.728 3.728 0 0 1-1.307 1.363 22.831 22.831 0 0 0 2.357.522c3.243.611 5.876 1.06 8.469 1.809.406.14.834.277 1.322.408a5.568 5.568 0 0 0 2.787.476c7.08 1.7 13.1 2.572 17.926 4.876 2.819 1.346 4.716 2.689 7.146 4.035-9.343-2.847-18.223-5.454-29.654-7.853-.392-.082-.78-.177-1.115-.263 1.371.253 2.583-.064 1.229-.493a56.7 56.7 0 0 0-8.56-1.819 143.75 143.75 0 0 0-4.44-.934 3.367 3.367 0 0 1-2.216-.4 79.514 79.514 0 0 0-3.488-.521h-.02a8.2 8.2 0 0 1-.9 1.58c-.589.787-3.715 1.846-3.9 1.9-1 .279-3.289-2.051-3.365-2.644a1.583 1.583 0 0 1 .184-.888h-.063c-.882.045-1.255.2-1.281.41a13.149 13.149 0 0 0-1.4-.362c-1.371-.554-2.8-1.1-4.315-1.647-.086-.031-.177-.059-.266-.087.442-.329.475-.72-.432-1.222a47.032 47.032 0 0 0-8.515-2.993 8.788 8.788 0 0 1-.022 2.094v.023c-.041.344-.093.689-.153 1.034l-.017.1c-.059.329-.121.659-.186.987v.008c.256.067.508.136.774.2a22.255 22.255 0 0 0 2.4.455 6.021 6.021 0 0 0 2.3.6c5.627 5.408 23.267 11.918 38.557 17.355a267.464 267.464 0 0 1-4.433-.691 15.658 15.658 0 0 0-.605-.086q-19.13-7.465-39.426-14.8a6.577 6.577 0 0 0 .069 1.224c.038.238.08.466.119.689a4.536 4.536 0 0 1 .07 2c2.587.932 5.069 1.768 6 2.177 12.96 5.671 28.69 12.461 45.916 17.892-.629.318-.9.669-.375 1.057 1.388 1.032 8.436 2.421 11.4 3.141a328.473 328.473 0 0 0 15.478 3.388.481.481 0 0 0 .1.511l-2.109.394c-.31.058-.327.2-.148.354a10.4 10.4 0 0 0-3.981 1.105c-.184.154-.045.335.59.573 4.895 1.834 12.945 3.438 19.776 4.519.045.167.4.383 1.058.537a30.026 30.026 0 0 0 6.333.951c4.459.943 9.271 1.911 13.755 2.559a17.092 17.092 0 0 0 5.622-.1c.066.005.131.012.2.015 1.61.077 3.248.184 4.944.322a12.324 12.324 0 0 0 2.223 1.492 3.94 3.94 0 0 0 1.251.438 5.481 5.481 0 0 0 1.049.514 15.091 15.091 0 0 1 3.5 1.625c-.044.024-.1.043-.146.068-.219.132-.039.356.59.573.341.117.606.2.867.278-.021.118.169.271.678.437.6.194 1.209.38 1.83.563-.2.146.045.4.977.647 1.085.29 2.193.558 3.309.814a2.013 2.013 0 0 0 1 .424c.173.042.331.069.5.105a5.353 5.353 0 0 0 .986.256c3.616.639 7.2 1.186 10.716 1.586 2.385.271 4.728.491 5.348 0 3.268.292 6.476.138 3.858-1.048.989.141 1.947.07 1.492-.306a.65.65 0 0 1-.125-.134 2.677 2.677 0 0 0 .94-.458c.177-.147-.058-.341-.48-.512-1.239-2.3-20.061-7.367-26.447-8.685a7.973 7.973 0 0 0-.309-.056 3.759 3.759 0 0 0-1.817-.651l.37.036c.734.077 1.134.011 1.258-.114.146-.043.2-.118.1-.236-1.028-1.215.582-2-1.8-3.373a41.456 41.456 0 0 0-7.967-2.861c-.964-.346-2-.678-3.061-1 1.446.034 2.938.091 4.525.2a3.434 3.434 0 0 0 .992-.038q1.407.135 2.822.28c7.145 1.7 13.851 3.49 20.19 5.4a5.516 5.516 0 0 0 1.927.224c.586.107 1.189.207 1.837.284l1.2.32a5.833 5.833 0 0 0 2.24.176 5.442 5.442 0 0 0 1.783.2 19.21 19.21 0 0 0 2.033-.24 2.011 2.011 0 0 0 .918-.088 2.081 2.081 0 0 0 .334-.269 1.007 1.007 0 0 0 .558-.5l2.122.525.208.134-.011.008-.311-.077c-1.371-.34-2.971-.3-2.375.129a11.358 11.358 0 0 0 1.433.844c-.089.1.091.238.7.4l.34.088c.135.059.258.118.4.176a7.886 7.886 0 0 0 1.406.634 27.955 27.955 0 0 0 3.668.98c.874.225 1.787.446 2.771.659a5.216 5.216 0 0 0 1.649.127c1.639.26 3.3.512 4.875.792.348.07.7.135 1.052.2a14.4 14.4 0 0 0-2.157.861c-.127.052-.265.1-.389.154-.091.039-.126.082-.121.126a7.767 7.767 0 0 0-.8.535c-.364.282 1.22.707 2.246.744a3.645 3.645 0 0 0 1.789.015c.043-.024.094-.046.139-.07a2.557 2.557 0 0 0 .763-.071 24.755 24.755 0 0 1 3.021-.717 6.272 6.272 0 0 0 2.4.312 46.291 46.291 0 0 0 8.339 1.436 30.005 30.005 0 0 0 9.374-.951c4.79-1.324 2.721-2.963-4.692-5.042zM949.91 272.031c-3.143.776-4.307 1.884-4.555 3.144-.209-.062-.407-.127-.621-.189-7.637-2.211-14.48-3.657-21.767-6.148-1.576-1.958-7.846-4.356-12.422-6.508a11.259 11.259 0 0 0-3.623-.873c-.451-.206-.92-.412-1.4-.619l.454.061c3.4.483 6.721 1.04 10.016 1.653.957.178 2.064.211 2.132-.027a.805.805 0 0 1 .3-.383 15.492 15.492 0 0 0 1.691.359l7.178 2.054c1.418.406 2.685.8 3.885 1.185a179.267 179.267 0 0 0 19.966 6.018c-.427.087-.844.176-1.234.273zm66.119 19.089a19.811 19.811 0 0 0-3.936-.051c-.926.026-1.9.027-2.9.02a83.238 83.238 0 0 0-7.885-.143 49.459 49.459 0 0 0-8.53-1.872q-8.132-2.73-16.819-5.24a3.7 3.7 0 0 0-1.292-.452c-.468-.1-.919-.2-1.371-.308-.758-.214-1.522-.425-2.285-.637a227.33 227.33 0 0 0 14.276 2.407c3.661.5 11 1.491 15.889 1.72a125.1 125.1 0 0 1 12.105 3.259 33.805 33.805 0 0 0 3.363 1.414c-.204-.037-.409-.087-.615-.117zm-847.938 58.795a1.723 1.723 0 0 0-.116-.354 33.477 33.477 0 0 0-3.014-8.594 21.063 21.063 0 0 0-1.654-2.513 134.485 134.485 0 0 0-9.53-13.039.685.685 0 0 0 .083-.583 26.427 26.427 0 0 0-5.9-10.91 14.818 14.818 0 0 0-1.76-2.257.768.768 0 0 0-.761-.255 28.353 28.353 0 0 0-1.142-.952.669.669 0 0 0 0-.477c-1.187-3.458-2.572-6.941-3.555-10.427-1.267-4.492-1.182-8.9-1.37-13.324-.151-3.551.182-5.22-3.709-6l-.441-1.261a.876.876 0 0 0-.139-.251 19.306 19.306 0 0 1-.51-2.864c-.065-.683.112-1.551-.015-2.3.124.042.25.083.375.117 0 .176 0 .354-.008.528-.028.958 1.519 1.1 1.547.146a14.483 14.483 0 0 0-.241-3.432.966.966 0 0 0-.182-.714 8.3 8.3 0 0 0-.478-1.254c-.393-.818-1.15-2.1-2.113-2.2 0 .11.009.22.006.33a.89.89 0 0 1-.048.714 7.188 7.188 0 0 1-.244 1.255c-.286.972-.954 2.631-2.281 2.133a1.891 1.891 0 0 1-.72-.564 10.909 10.909 0 0 1-1.52-.479c-1.146-.38-2.3-.745-3.44-1.142a4.207 4.207 0 0 1-.992-.472 3.391 3.391 0 0 1-.852 2.374c-.925.743-1.908.233-2.98.033-3.428-.64-8.68.1-12.521-1.224a4.594 4.594 0 0 0-.516.63c-1.794 2.68.2 3.615 2.727 3.854a22.431 22.431 0 0 1 6.746 1.612 6.005 6.005 0 0 0 2.313.752c.55-.034.642-.36 1.12-.635.125-.15.26-.292.392-.437 0 .09 0 .179.012.269a13.417 13.417 0 0 0-.159 1.635 15.327 15.327 0 0 0-.122 2.223 1.771 1.771 0 0 0-.808.313c-.921.71-.645 3.24-.787 4.242a45.571 45.571 0 0 1-2.959 10.907c-.962 2.352-2.028 3.5-.617 6.172 1.179 2.234 4.587 4.417 6.505 6.194l9.411 8.72c.026.023.052.031.078.051a81.191 81.191 0 0 1 2.923 8.894q-3.28-.679-6.561-1.31a.863.863 0 0 0-.122-.158 13.45 13.45 0 0 0-1.036-.861 28.8 28.8 0 0 0-5.821-3.92c-.49-.25-1.231-.1-1.1.546a5.485 5.485 0 0 0 .591 1.683.556.556 0 0 0-.028.578c1.215 2.548 4.248 3.8 6.713 4.84 3.211 1.353 6.422 2.466 9.613 3.75a6.539 6.539 0 0 0 .454.621.742.742 0 0 0-.136.682c1.287 4.95 5.389 10.4 9.546 14.839.134.208.263.419.4.621a15.751 15.751 0 0 0 2.671 2.843 8.317 8.317 0 0 0 5.065 4.937 9.9 9.9 0 0 1 .426.694l.353 1.131a5.215 5.215 0 0 0-.6 1.182 6.522 6.522 0 0 0-2.625-1.578 1.307 1.307 0 0 0-.57.032c-.1-.089-.2-.181-.306-.269-.595-.489-1.545-.2-1.225.617.08.2.159.41.24.615a2.734 2.734 0 0 1-.095.092 14.73 14.73 0 0 1-.362.323c-.028-.007-.047-.019-.076-.025a.606.606 0 0 0-.634.313c-.069.163-.122.332-.188.5a5.162 5.162 0 0 0-1.293 1.629 3.707 3.707 0 0 0-.288 1.329 2.1 2.1 0 0 0-.847 1.257 6.058 6.058 0 0 0 .31 3.959 4.016 4.016 0 0 0-.367.412l-.4.538c-.226.068-.449.133-.667.2-.573.168-.55.851-.223 1.246a3.193 3.193 0 0 0-.375 2.208c.739 2.666 6.34 4.669 8.674 5.465 3.4 1.158 7.836 1.7 10.058-.808 2.344-2.641 2.359-7.146.615-10.722a1.006 1.006 0 0 0-.29-.348 3.056 3.056 0 0 1 1.887-1.095c.777-.168.559-1.481-.341-1.511a13.32 13.32 0 0 1-5.268-.866.675.675 0 0 0 .052-.239c-.014-.4.005-.872.015-1.366.027.242.057.485.1.73.165.976 1.713 1.13 1.547.146a11.931 11.931 0 0 1-.152-2.67 4.807 4.807 0 0 0 3.016-.438c.046.014.087.031.133.045a1.009 1.009 0 0 0 1 .551.892.892 0 0 0 1.223.31c1.455-1.134 1.784-3.538 1.521-6.262a16.036 16.036 0 0 0-.261-2.202zM131.5 284.559c0 .019 0 .035.005.053l-.039-.062zm-.023 19l-.36-.16c-3.046-1.336-5.351-2.37-5.446-6.033 0-.07.01-.146.012-.218a.546.546 0 0 0 .281-.571c-.027-.284-.03-.561-.052-.843.326-1.25.894-2.59 1.12-3.663a39.358 39.358 0 0 0 .8-10.166.965.965 0 0 0-.635-.786c-.543-.126-1.317-.392-2.171-.667-.039-.255-.08-.51-.115-.764-.021-.445-.03-.89-.011-1.334.052-1.272.429-2.431.52-3.682a11.986 11.986 0 0 1 .878 1.4c0 .968 1.546 1.1 1.547.146a5.91 5.91 0 0 0-.034-.591 10.743 10.743 0 0 0-.47-2.518.9.9 0 0 0 .379.148 5.112 5.112 0 0 0 2.085-.226 2.95 2.95 0 0 0-.136 2.023 41.99 41.99 0 0 1 1.227 4.242c.048.364.087.722.127 1.077a2.606 2.606 0 0 0-2.066 1.861c-.242 1.394 2.091 5.712 2.9 7.881a41.932 41.932 0 0 1-.317 5.009c-.34 2.769.338 5.721-.066 8.438zm31.547 63.184l.022.06h-.023zm500.025-106.29c2.088.107 2.225 1.849 4.125 3 4.125 2.5 13.638 5.76 17.125 7.875.493.25 33.493 18.241 43.676 22.149.826.317 1.558.592 2.2.83q.777.443 1.535.886c-1.016-.324-2.544-.874-4.739-1.716-10.182-3.909-20.492-8.646-30.252-13.408-4.251-2.275-8.476-4.531-13.567-6.77l-1.491-.756c-3.487-2.115-10.535-6.845-16.031-8.418a29.845 29.845 0 0 0-6.534-1.058c-1.324-.922-2.886-2.009-4.609-2.983l-.664.025-4.623 1.151.26.076a30.569 30.569 0 0 0 4.217 2.177c-.966.319-1.458.786-1.191 1.393.145.328 1.017.681 1.75.843 4.555 2.255 9.7 4.369 14.654 6.553 3.656 1.73 7.191 3.473 10.729 5.215 5.331 2.844 10.27 5.724 15.791 8.552 6.178 3.165 12.555 6.229 18.895 9.3q6.081 3.557 12.932 7.083c-.241-.031-.481-.062-.718-.089-.387-.2-.766-.392-1.175-.585a86.747 86.747 0 0 0-8.716-3.54c-.62-.213-1.661-.583-2.709-.94-.024-.013-.034-.024-.061-.038-1.65-.865-3.2-1.753-5.089-2.58a4.681 4.681 0 0 0-1.372-.346 6.735 6.735 0 0 0-.686-.017 6.468 6.468 0 0 0-3.507-.453c-.225.053-.084.281.19.462 4.164 2.748 10.958 5.335 17.541 7.973-1.552.52 1.421 2.02 4.834 2.969.344.157.668.3.947.423a11.713 11.713 0 0 0 1.958.673c-.005-.332 0-.7-.146-.79-.4-.229.357.114 1.139.479 0 .1.006.207.008.311a9.336 9.336 0 0 0 1.065.193l.15.07a9.352 9.352 0 0 1-2.215-.263c0 .273.019.521.144.557-.764 1.356-.669.7-.891 2.292l.005-.015.023.017h-.028a51.938 51.938 0 0 0 6.752 4.587c9.222 3.017 18.428 5.8 27.662 8.473 4.667 1.884 9.958 3.646 15.431 5.333a24.628 24.628 0 0 1 2.567 1.459 2.458 2.458 0 0 0 .349.184c-.887 1.551 11.466 6.008 15.7 7.925 8.506 3.852 10.206 6.9 20.034 10.54a5.556 5.556 0 0 0 .959.46c.06.191.505.452 1.4.666.637.153 1.273.289 1.909.432l4.42 1.492c5.7 2.313 11.551 4.663 16.431 7.007.621.3 1.2.6 1.774.895a23.532 23.532 0 0 1-6.581 3.833c-1.449.584-4.187 1.067-4.126 2.114-1.153.444-1.956.992-1.406 1.776a5.811 5.811 0 0 0 2.99 1.468 5.422 5.422 0 0 0 1.774.469c.134.013.257.022.389.034 5.661 1.124 14.2 1.628 17.1 1.882 1.894.166.6-.879-1.3-1.045-1.672-.146-4.737-.318-7.574-.6l.324-.02c2.523.267 5.142.476 7.434.531.488.062.955.1 1.435.152a2.575 2.575 0 0 0 .629.441c.054.078.108.155.158.231a4.11 4.11 0 0 0 2.26.8c6.151.836 12.544 1.8 18.468 2.419 5.387.559 10.047.413 15.946 1.468a4.966 4.966 0 0 0 .728.083 1.992 1.992 0 0 0 .531.289 25.018 25.018 0 0 0 9.8 1.881c.941.805 2.645 1.807 2.586 2.317l-.076.014c-1.274.167-2.234.468-2.009.978.31.7 2.015.979 3.71 1.095a14.506 14.506 0 0 0 2.747.528c2.949 1.561 4.853 3.654 10.194 4.537a90.075 90.075 0 0 0 14.3.944c3.155-.105 3.2-1.026 2.706-2.191-.3-.708-1.35-1.362-1.858-2.066-.772-1.071.847-.811 1.811-1.3.005 0 0-.007.008-.01.915-.1.622-.632-.819-1.118a7.2 7.2 0 0 0-2.978-.429 34.99 34.99 0 0 0-3.643-.525c-1.5-.721-4.072-1.562-5.57-2.129-.519-.2-1.052-.391-1.575-.587a181.432 181.432 0 0 0-7.193-2.8 6.827 6.827 0 0 0-1.432-.355 7.383 7.383 0 0 0-2-.373c.607-.512 1.695-1 1.6-1.638a1 1 0 0 0-.05-.166c1.617-1.184-3.909-4.325-6.617-6.171-2.279-1.554-4.509-2.858-5.5-4.273-.5-.718-.674-.972-2.537-1.78a5.517 5.517 0 0 0-2.279-.39c-.136.021-.282.036-.421.056-.048 0-.1-.008-.145-.009a87.76 87.76 0 0 0-.874-.021q-.444-.207-.9-.413a12.192 12.192 0 0 0-3.572-1.75c-1.207-.7-2.674-1.459-3.99-2.217a28.576 28.576 0 0 0-8.7-3.879 98.436 98.436 0 0 0-12.239-1.763c-.89-.1-3.359-.39-5.7-.563-2-.909-3.967-1.832-5.649-2.73-.695-.785-.963-1.534-1.638-2.277a7.465 7.465 0 0 0-4.242-1.544c-1-.25-2.116-.312-1.837.072a10.379 10.379 0 0 0 2.886 2.4 32.176 32.176 0 0 1-3.99-1.682 4.811 4.811 0 0 0-1.531-.542c.392-.971-.53-2.287-3.517-4.153a86.955 86.955 0 0 0-9.084-4.566c-3.944-1.81-8.665-4.474-13.552-6.136a29.503 29.503 0 0 0-2.641-.768c.059-.082.014-.193-.218-.341-.769-.492-1.527-1-2.3-1.528-.648-1.341-2.07-2.817-6.176-4.822a53.905 53.905 0 0 0-4.73-2.012 76.467 76.467 0 0 0-9.7-3.764q-1.432-.448-2.863-.848c-.528-.186-1.049-.343-1.573-.512-3.175-1.255-6.408-2.505-9.579-3.764-.709-.391-1.4-.785-2.049-1.183-1.42-.87-7.55-3.453-8.777-4.361 2.78.177 4.822-4.2 0-5.191-5.03-1.03-3.78 1.587-9 1.418-2.3-1.356-4.666-2.7-7.127-4.037-11.6-6.28-27.054-12.189-39.834-18.293-3.184-1.521-35.132-19.3-39.007-20.177-.007-.006-9.831 2.447-8.507 3.369zm-123.069 2.559a3.473 3.473 0 0 0 1.909.553c.155.045.3.1.464.138.563.143.67.033.786-.074l.043.027a7.849 7.849 0 0 1 1.8 1.16c.309.659 2.963 1.488 2.653.826-.016-.034-.044-.069-.063-.1.215.017.424.03.635.043 1.045.651 2.084 1.3 3.148 1.95a1.89 1.89 0 0 0 .282.223q6.171 4.08 13.064 8.124a4.393 4.393 0 0 0 .442.224 50.365 50.365 0 0 0 3.917 2.42 82.706 82.706 0 0 0 10.014 4.485.512.512 0 0 0-.036.29c.373 1.911 7.073 4.5 12.157 6.644q3.238 1.512 6.3 3.082c4.767 2.653 9.959 5.735 13.771 8.278 4.319 2.881 5.812 4.866 10.919 7.435-1.048-.2-1.079.4.362.943.2.077.4.158.6.235a4.7 4.7 0 0 0 .795.312c5.6 2.166 10.9 4.5 15.8 6.975 4.3 2.687 8.96 5.346 13.761 8.016.435.3.856.593 1.278.89 1.2 1.3 3.381 3.024 4.287 3.887a2.463 2.463 0 0 0-.4.006c-.123-.009-.234-.009-.359-.02-.473-.039-.568.1-.438.3-.793-.087-.7.47.593 1.008a82.99 82.99 0 0 1 4.271 1.911c1.192.617 2.526 1.313 3.914 2.02 1.156.634 2.315 1.293 3.561 2.011a42.267 42.267 0 0 0 6.959 3.362c6.066 2.178 9.51 1.652 11.851.872.209-.023.4-.053.583-.089.59.206 1.157.291 1.237.071.047-.128.1-.256.164-.384a4.773 4.773 0 0 0 .906.849c-.4-.035-.618.074-.447.34a8.122 8.122 0 0 0 1.235 1.412 1.013 1.013 0 0 0 .367.331 3.435 3.435 0 0 0 1.519.6 1.67 1.67 0 0 0 .572.04c.156.123.322.247.506.372-.011.013-.031.022-.037.037-.132.322.884 1.081 1.681 1.642a.139.139 0 0 0-.1.191c.19.586.881 1.232 2.064 2a3.736 3.736 0 0 0 .535.285 29.091 29.091 0 0 0 5.031 3.105 2.708 2.708 0 0 0 1.617.384 23.54 23.54 0 0 0 2.225.747 18.946 18.946 0 0 0 2.679.956 21 21 0 0 0 7.239.348 7.755 7.755 0 0 0 .8-.117 3.47 3.47 0 0 0 .6.132c3.345.4 2.577-1.174 1.308-2.721a15.081 15.081 0 0 0-5.267-3.884l-.781-.6a3.372 3.372 0 0 0-.7-.4 16.148 16.148 0 0 0-2.336-1.632c-.966-.564-2.278-.742-2.191-.39a35.584 35.584 0 0 0-4.64-2.142c-1.765-.67-4.489-1.72-6.716-2.39a40.494 40.494 0 0 1-5.91-3.1 3.244 3.244 0 0 0-.495-2.244c-.041-.068-.1-.141-.145-.211a340.922 340.922 0 0 0 6.774 3.985c.868.5 1.941.732 2.145.469.005-.007.005-.016.01-.023a1.131 1.131 0 0 0 .519-.01c1.285-.5-1.8-2.083-3.956-3.3-.475-.269-.955-.537-1.431-.806.149-.042.172-.151-.018-.348a23.506 23.506 0 0 0-10.791-6.149 48.78 48.78 0 0 0-1.715-1.053c-1.237-1.157-3.663-4.091-6.2-5.622.227-.433-2.193-1.393-2.624-1.052l-.035-.008a23.922 23.922 0 0 0-3.452-2.784c-2.749-2.111-5.566-4.139-7.2-6.092A27.523 27.523 0 0 0 660.33 308c-2.034-1.737.1.279-1.823-1.456a9.859 9.859 0 0 0-3.507-3.559l-.01-.01-.224-.142c-.161-.1-.325-.208-.5-.314a14.44 14.44 0 0 0-1.439-.812 31.71 31.71 0 0 0-.995-.5c-.051-.024-.1-.044-.148-.066a2.216 2.216 0 0 0-.254-.189 7.7 7.7 0 0 0-2.7-1.083c-.45-.095-.789-.063-.836.08-1.355-.648-2.708-.506-1.358.256l.056.032c-.488-.057-.767.065-.492.347a42.67 42.67 0 0 0 7.083 5.659l.966.962a3.863 3.863 0 0 0 1.491.766 9.183 9.183 0 0 0 1.2 1.292 17.451 17.451 0 0 1 1.929 2.072 4.877 4.877 0 0 0 .9 1.851 8.858 8.858 0 0 0 .766.746 14.25 14.25 0 0 0 1.4 2.063c-7.041-3.839-14.838-7.47-20.384-11.479-.07-.051-.144-.1-.22-.145a3.933 3.933 0 0 0-1.5-.713c-2.1-1.116-4.724-2.3-6.281-3.121q-6.381-3.357-12.47-6.783c-5.7-3.209-11.913-7.778-18.431-10.654-1.26-.556-3.062-1.1-3.491-.757-.357.565-1.2.885-2.514.968a3.544 3.544 0 0 0-.756-.421c-12.36-5.232-23.379-11.252-34.388-17.1a.184.184 0 0 0 .052-.146c-.026-.223-.282-.492-.672-.768.263.126.528.247.786.39 1.576.783 2.586.335 1.017-.447-1.9-.943-1.111-1.813.342-2.51l1.391-.477c.5-.172 1.47-.285 1.724-.632.634-.185 1.149-.326 1.38-.414.341-.129-.217-.649-1.064-.973a19.4 19.4 0 0 0-6.338-1.554 4.37 4.37 0 0 1-1.461.146.57.57 0 0 1-.035.248c-1.385 3.684-11.84 2.765-14.772 2.6-1.737-.1-5.708.343-7.125-.852-.358-.301 3.355 2.611 3.355 2.611zm122.639 57.394l.091.055-.1-.041zm-73.6-38.58h-.043l-.008-.014zm-34.666-17.115a4.781 4.781 0 0 0 1.849.693c.735 1.114 3.733 2.746 7.118 4.866q2.992 1.874 6.163 3.717c-.1-.05-.208-.1-.313-.152q-3.594-1.709-7.138-3.4a48.468 48.468 0 0 0-7.107-4.914 3.638 3.638 0 0 0-2.037-.521 2.226 2.226 0 0 0-.195-.124c.984.159 1.388.07 1.661-.165zm107.949-.042l-.033-.015.089.017a.19.19 0 0 0-.058-.002zm269.342 121.19a.294.294 0 0 0 0-.043l.078.023zM166.881 257.6h-.081c.025.026.051.045.076.07a.631.631 0 0 1 .005-.07zm89.124 102.562l-2-3.573a1.479 1.479 0 0 0-.7-.635c.5.064.866-.32.432-.944-2.087-3 .617-1.816 2.293-2.5a2.7 2.7 0 0 0 1.84-2.714 9.884 9.884 0 0 0-.224-2.1c.326.023.538-.128.365-.54q-2.42-5.729-4.811-11.455a1.171 1.171 0 0 0-.181-.286l-.065-.229a11.235 11.235 0 0 0-.784-3.938c-.779-1.643-2.516-2.985-3.813-4.518a38.737 38.737 0 0 0-1.892-2.786c-1.362-2.2-3.076-4.966-4.839-6.165l-.025-.032a1.176 1.176 0 0 0-1.137-.521c-.566-.153-.846-.065-.944.163a15.352 15.352 0 0 0-2.18-6.392 34.443 34.443 0 0 0-5.208-5.707 14.343 14.343 0 0 0-3.331-3.856 3.463 3.463 0 0 0-1.335-.661 25.059 25.059 0 0 1-2.187-2.672c-2.219-3.18-4.3-6.416-6.29-9.683-1.149-2.64-2.169-5.287-3.514-8.007a71.906 71.906 0 0 0-5.4-8.981 2.726 2.726 0 0 0-.78-1.108q-1.225-1.725-2.529-3.446a446.637 446.637 0 0 0-4.654-8.223 1.509 1.509 0 0 0-1.182-.741c-.065-.086-.126-.157-.19-.238-.58 1.564-2.418 1.71-4.1 1.622a8.037 8.037 0 0 1-2 .688 33.827 33.827 0 0 1-4.2.238.773.773 0 0 1-.736-.966 3.875 3.875 0 0 1 1.38-1.909h-.456l-9.672.1h-.48c-3.292.407-6.383 1.631-9.815 1.3a.77.77 0 0 1-.189-.057 14.521 14.521 0 0 1-2.612-.22 4.971 4.971 0 0 0 1.842.752c2.411.473 2.171-1.051 5.488 1.273.9.628 1.532 1.473 2.465 2.079a1.458 1.458 0 0 0 .3.147l.208.275c.63 1.992 3.267 4.938 4.468 6.548 3.84 5.147 7.116 10.347 10.354 15.566a3.4 3.4 0 0 0 .835.922 80.355 80.355 0 0 0 4.782 7.708c.44.613 1.1.67 1.346.387.34.261.676.521.982.775l12.122 17.489c1.122 1.619 2.258 3.72 4.011 5.138a22.048 22.048 0 0 0 3.592 2.035c-.51.347.153 1.441 1.069 1.47.327.01.642 0 .961 0a1.588 1.588 0 0 0 .262.175c.274.2.55.4.831.578l-.2-.008a1.665 1.665 0 0 0-1.916-.076c-.6-.015-.511.542-.112.993a2.542 2.542 0 0 0 .4.629c.062.074.114.147.174.221q.712 1.337 1.509 2.666 1.887 3.414 3.339 6.784a4.15 4.15 0 0 1-.05.576c-.018.006-.038 0-.056.007a5.463 5.463 0 0 1-1.48.39c-.009 0-.012.007-.021.008-.649-.433-1.485-.274-1.056.495 2.35 4.214 4.984 9.8 8.885 13.773 2.966 3.021 6.449 3.386 9.73 4.159.207.305.424.609.654.913a3.227 3.227 0 0 0-1.9-.077c-.94.435-.073 2.271.179 3.3a20.5 20.5 0 0 0 1.526 5.343 2.9 2.9 0 0 0 1.827 1.6c-1.475.618-.028 2.284 2.075 4.155 3.132 2.787 5.816 3.083 8.456 2.55 2.394-.482 4.967-1.3 4.309-4.171-.464-2.045-2.113-3.997-4.045-5.858zm-64.192-103.776c.026-.056.048-.11.073-.166-.223-.011-.45-.031-.672-.037.2.106.378.206.54.3.019-.031.046-.061.059-.097zm-155.9-4.369h-4.561a15.926 15.926 0 0 1 .07 3.558 1.457 1.457 0 0 1-.51.969c-1.335 1.011-4.881.444-6.429.123a2.014 2.014 0 0 1-1.769-1.441.917.917 0 0 0-.033.175q-.052.908-.1 1.814c-.006.014-.017.021-.023.036a2.254 2.254 0 0 0-.084 1.893c-.955 17.372-1.793 34.51-6.837 52.408a.567.567 0 0 0 .576.789c-.008.022-.006.044-.012.066-.1.031-.2.05-.3.085a1.208 1.208 0 0 0-.816.791 5.444 5.444 0 0 0-.062 1.861.6.6 0 0 0 .047.169c-.984 4.245-2.927 8.373-4.1 12.615q-.151.543-.284 1.085a9.3 9.3 0 0 0-2.3-1.082.471.471 0 0 0-.245-.271l-3.183-1.56c-.709-.348-1.661.581-1.458 1.14-.021.02-.046.035-.065.057-1.358 1.525-1.2 3.37-1.184 5.029a.84.84 0 0 0 0 .664c-.053 2.524 0 5.022.1 7.5a2.355 2.355 0 0 1-.311-.33v-.155a.5.5 0 0 0-.425-.559c-.012-.027-.026-.047-.038-.075-.5-.78-1.976.383-1.473 1.16.072.112.157.22.237.33-.026 3.071.612 6.485 2.281 8.691 1.953 2.58 5.357 1.8 8 3.342a.859.859 0 0 0 .912-.092 1.105 1.105 0 0 0 .436-.166 12.274 12.274 0 0 1 2.074-1.057c-1.5 1.446-.368 3.333-.851 5.079a2.734 2.734 0 0 1-1.036 1.385c.06-.128.1-.26.172-.387.228-.521.446-1.027.646-1.554.337-.885-.844-1.01-1.417-.414a11.413 11.413 0 0 0-3.512 7.9 6.43 6.43 0 0 1-.216-1.13c-.076-.792-1.078-.76-1.582 0-.912 1.374-.9 2.4-.39 3.146a3.1 3.1 0 0 0 1.113 2.723 6.755 6.755 0 0 0 3.539 1.585.653.653 0 0 0 .417.672c3.165 1.133 7.169.064 10.239-2.777.022-.02.035-.043.055-.064.765-.261.989-1.53.089-1.6a6.714 6.714 0 0 0-.955.008 3.888 3.888 0 0 0 1.227-1.6 18.486 18.486 0 0 0 1.18-4.551 30.933 30.933 0 0 0 1.318-3.593c.731.3 1.783-.307 2.336-1.265a18.514 18.514 0 0 0 1.275-4.421l.881-3.239a6.46 6.46 0 0 0 .515-1.566l.069-.076a2.8 2.8 0 0 0 2.223-2.206 11.722 11.722 0 0 0 1.5-5.5c.59.051 1.386-.55 1.129-1.189a3 3 0 0 0-.145-.282c.928-1.249 1.775-2.395 2.511-3.51 2.158-2.469 3.914-5.118 2.875-7.164a2.968 2.968 0 0 0-.059-1.707v-.163c-.027-.6-.644-.68-1.127-.438-1.523.192-3.672 2.778-4.41 3.821-1.356 1.918-1.89 4.5-2.376 6.836 0-.116-.006-.231 0-.347.08-4.471 1.234-13.644 4.115-18 .256-.387.179-.682-.041-.845.1-.1.192-.2.272-.285l1.548-1.708c.4-.444.309-.87.014-1.078.036-.03.083-.053.118-.084 3.162-2.821 2.157-11.4 2.045-14.061-.093-2.217-.074-4.409 0-6.591.057-1.246.11-2.491.188-3.74.013-.194.022-.39.035-.584.031-.481.076-.965.11-1.446.493-6.084 1.34-12.165 1.957-18.517.388-3.993.486-6.42-.319-8.266 1.321-2.788 4.323-3.908 7.068-4.939a45.972 45.972 0 0 1-7.206-.457c-1.271-.184-4.417-.162-5.268-1.373zm742.778 43.817c0 .006.011.013.014.019a.31.31 0 0 1 .031-.016zm-241.008 15.4c-.161-.073-.315-.136-.474-.206l-.643-.8a2.042 2.042 0 0 0-.246-.248 5.179 5.179 0 0 0-1.368-1.169 27.669 27.669 0 0 0-5.883-2.66c.25-.046.238-.25-.256-.658l-.1-.084c-.57-2.677 3.41-2.591.654-6.324a31.469 31.469 0 0 0-4.993-5.5c-3.052-2.636-7.282-5.323-9.391-7.778a3.213 3.213 0 0 0-.725-.586 6.074 6.074 0 0 0-3.013-1.542c-.5-.037-.94-.038-1.368-.032a14.277 14.277 0 0 0-4.244-3.778 21.477 21.477 0 0 0-3.551-1.744 6.082 6.082 0 0 0-.76-.428c-.359-.17-.71-.326-1.063-.485a23.067 23.067 0 0 0-2-1.444 79.251 79.251 0 0 0-7.66-3.934c-.349-.2-.693-.37-1.027-.521a38.72 38.72 0 0 1-3.446-2 6.86 6.86 0 0 0-1.625-.788c-3.259-2.7-8.636-4.487-13.541-5.694-.2-.9-5.461-3.7-7.146-4.687-1.121-.656-2.307-1.374-3.516-2.088-.165-.129-.335-.26-.493-.389-.961-.781-1.736-1.7-2.938-2.567l-5.114 1.546-.776.235a41.957 41.957 0 0 0-5.188-1.259c-4.9-1.525-8.5-2.123-7.6-.092.021.047.054.1.079.145-.162-.083-.316-.167-.5-.246a8.011 8.011 0 0 0-1.673-.518l-2.776.8-.319-.076.279.087-4.838 1.391c1.909.818 3.868 1.864 6.357 3.08a19.761 19.761 0 0 0 5.028 1.877 5.119 5.119 0 0 0 1.23.515 15.447 15.447 0 0 0 2.329 2.177 5.031 5.031 0 0 0 1.491.779q3.491 3.959 7.659 8.118c-.635.044-.707.449.319 1.32 4.188 3.56 13.387 10.438 21.051 13.363a43.873 43.873 0 0 0 3.591 1.747c.142.1.3.206.5.32 2.482 1.417 4.584 1.829 4.952 1.252q3.193 1.7 6.432 3.166c.416.732.908 1.488 1.252 2.139a2.619 2.619 0 0 0 .92.795 6.3 6.3 0 0 0 2.718 1.26 25.189 25.189 0 0 1 5.73 2.091 13.789 13.789 0 0 0 1.467.674c2.568 1.2 5.132 2.483 6.562 3.178 2.659 1.293 4.41 2.182 6.355 2.424.184.023.357.039.52.048q.618.454 1.247.9c-.541.181 1.417 1.53 2.535 1.774 1.452 1 2.755 1.86 3.646 2.447a10.889 10.889 0 0 1-1.723.156c-1.008.021 1.069 1.631 2.459 1.853l4.839.772c.045.028.083.055.131.084 2.806 1.682 3.9 2.892 7.291 4.463a26.885 26.885 0 0 0 7.261 2.3c4.27.634 6.348-.465 3.591-3.531a20.126 20.126 0 0 0-8.498-5.419zm-86.1-58.406a5.91 5.91 0 0 0-.517.062c.816.367 1.623.756 2.428 1.148-.636-.403-1.278-.806-1.911-1.21zm424.635 8.514c.065-.143.129-.286.189-.427l.032-.079c.058-.142.113-.283.157-.421a5.431 5.431 0 0 0 .147-.57 5.42 5.42 0 0 0 .052-.335c.011-.075.024-.149.032-.224.016-.155.026-.311.032-.467v-.082q.008-.269 0-.539l-.794-.368a2.332 2.332 0 0 0 .552-.047l.23.11a15.956 15.956 0 0 0-.153-1.345 10.029 10.029 0 0 1-.482-.23c-.76-.4-.883-.666-1.761-1.07a14.564 14.564 0 0 0-1.459-.564 1.838 1.838 0 0 1-.723 1.55c-1.062.8-2.637.391-3.76.142-2.271-.5-3.6.481-5.831.718-1.327.141-5.417.112-5.839-1.761-2.117.212-7.844 1.2-2.55 2.6a6.338 6.338 0 0 0 1.636.221c3.474-.183 13.967.37 18.572 1.9a6.617 6.617 0 0 0 .717.19c-.421.055-.857.1-1.288.144-1.303.124.823.912 2.292.954zm-3.873-5.021h.021l.061.048zm100.41 106.765a8.283 8.283 0 0 0-2.848-2.248 33.848 33.848 0 0 0-7-1.888c-.515-.151-1.041-.3-1.571-.437l-4.979-1.849a5.084 5.084 0 0 0-2.172-.366l-.411-.145a5.589 5.589 0 0 0-2.345-.366c-.153-.057-.31-.113-.468-.169a39.991 39.991 0 0 0-2.525-1.195 8.621 8.621 0 0 1-.457-.341c-.4-.326-.442-.746-1.141-1.094-.236-.118-.5-.232-.774-.344 2.874-1.206 2.52-3.031-5.561-6.677-3.352-1.513-7.147-3.236-11.194-4.764a1.444 1.444 0 0 1-.367-.707c-.04-.289-1.4-.694-2.276-.783a11.391 11.391 0 0 0-1.812-.062c-.119-.038-.236-.079-.355-.116-4.1-1.277-9.546-2.4-13.937-3.714L891 328.661l-.267-.114a4.707 4.707 0 0 0-.635-.22 55.523 55.523 0 0 0-5.979-2.185l-.94-.344a12.842 12.842 0 0 0-1.673-.475 18.881 18.881 0 0 0-2.5-.875c-2.037-.582-4.816-.972-6.87-1.374-2.516-.492-4.91-.988-7.3-1.543-5.889-2.026-11.455-4.137-17.1-6.24a29.666 29.666 0 0 0-5.735-1.56c-1.609-2.209-7.591-5.591-9.736-7.328-1.605-1.3-3.147-3.207-5.469-5.065.651-.181.745-.541.2-1.018a9.993 9.993 0 0 0-3.627-1.558c.413-.032.427-.173.2-.343 1.089-.594-2.941-2.761-5.711-3.518a72.358 72.358 0 0 0-8.21-1.35c-1.852-.3-3.823-.7-5.649-.962a3.243 3.243 0 0 1-.437.175 3.548 3.548 0 0 1-2.782-.4c-1.732.064-2.157.571-2.244 1.15-.082.546-.647 1.154 1.513 1.923a6.362 6.362 0 0 0 1.988.4 58.982 58.982 0 0 1 9.514 1.347.583.583 0 0 0 .2.184 21.306 21.306 0 0 0 2.907 1.654c.019.01.04.018.059.027a33.94 33.94 0 0 1 5.321 4.911 123.937 123.937 0 0 1 6.017 6.583 16.426 16.426 0 0 0-1.47-.411 11 11 0 0 0-4.078-2.655c-4.6-1.995-10.767-3.943-15.713-5.916a148.499 148.499 0 0 1-10.516-4.66c-.124-.061-.238-.124-.356-.187a1.71 1.71 0 0 1-1.059.559h-.073c-.133.253-2.855.2-3.141.159a29.626 29.626 0 0 1-8.476-2.9c-1.283-.646-2.824-1.208-3.4-2.373-.369.449-.793 1.037-.9 1.169-1.5 1.934 7.856 4.336 8.993 4.792a11.07 11.07 0 0 0 3.882.708c.91-.174.91-.174 1.26 0 5.443 2.646 9.028 5.157 13.771 7.775 3.535 1.95 8.293 3.625 12.954 5.49-1.956.723.449 1.73 5.51 3.841l30.129 12.564a10.306 10.306 0 0 0 1.954.587q10.739 3.7 21.824 7.29a2.993 2.993 0 0 0 2.068.152 1.787 1.787 0 0 0 .2-.022.242.242 0 0 0 .08.118c-.635 1.561 4.582 4.23 9.039 6.3-1.184-.1-1.551.323.019.769 2.85.812 5.216 1.717 7.541 2.6-.479.078-.512.333.308.647 2.788 1.066 5.648 2.311 8.827 3.287a6.018 6.018 0 0 0 1.6.263c1.106-.014 1.37-.2 1.149-.5a1.884 1.884 0 0 0 1.26-.357c.041-.04.026-.087-.011-.138a85.082 85.082 0 0 0 9.125 2.8 23.4 23.4 0 0 0 2.838.292c5.115.46 7.79.243 13.6 1.336a4.011 4.011 0 0 0 .951.775c.122.077.263.151.4.227a7.081 7.081 0 0 0-2.026.458c-.881-.045-1.447.046-1.451.4-.013.985 6.82 3.9 9.639 5.051 1.209.5 2.472.966 3.777 1.416-.075.2.486.564 1.444.778.294.066.584.124.877.188a3.08 3.08 0 0 0 .454.8c-.021.205.65.57 1.481.771l2.353.568c.151.043.312.082.481.116l3.413.824a4.2 4.2 0 0 0 1.336.149 5.452 5.452 0 0 0 1.468.314c6.458.5 16.066.911 14.782-1.466.394-.581-.172-1.353-1.416-2.205zm-193.4-67.328a.237.237 0 0 0 .033-.021l.032.022zm111.452 46.867l-.034-.016.048.008zM938.446 356h.027l.038.015zM486.3 379.59a.438.438 0 0 0 .283-.4c.3-.273.248-.783-.372-1.568a3.168 3.168 0 0 0-.318-.329.826.826 0 0 0-.083-.418 2.82 2.82 0 0 0-1.655-1.146l-.657-.095c-.507-.5-1.014-1-1.531-1.5a6.212 6.212 0 0 0-.267-.327 8.539 8.539 0 0 0-1.4-1.262c-.735-.695-1.464-1.39-2.221-2.085a3.336 3.336 0 0 0-.955-.61 16.53 16.53 0 0 0-2.039-1.987.411.411 0 0 0 .193-.062 1.491 1.491 0 0 0 .666-.726 1.788 1.788 0 0 1 .225-.083c.246-.1.153-.351-.1-.622a1.154 1.154 0 0 0 1.074-.211.891.891 0 0 0 .676.011c.47.095.745-.048.364-.528l-.094-.385a.247.247 0 0 0 .01-.283.8.8 0 0 0-.015-.811 20.847 20.847 0 0 0-3.243-3.278 3.591 3.591 0 0 0-.211-1.514c.075-.114.028-.3-.217-.583-1.187-2.719-4.512-6.332-7.781-9.651-.4-.779-.771-1.609-1.275-2.668a14.979 14.979 0 0 0-3.849-5.272c-3.264-2.966-12.31-9.167-16.355-10.875a20.508 20.508 0 0 0-2.9-.929c-1.589-.783-3.2-1.5-4.708-2.167a5.474 5.474 0 0 0-1.633-1.075 127.52 127.52 0 0 1-4.922-2.354c-1.3-1.286-2.8-2.57-4.417-3.963-3.519-3.042-6.658-6-9.586-9.021.071-.04.13-.087.208-.124.29 0 .423-.135.233-.479a21.731 21.731 0 0 0-4.025-4.623q-3.691-3.536-7.4-7.072a3.481 3.481 0 0 0-1.929-.943h-.07l-.842-.872a2.427 2.427 0 0 1-1.381.267 3.607 3.607 0 0 1-3.154-2.594.784.784 0 0 1 .752-.987h.021a4.3 4.3 0 0 1-.508-1.208c-.285-.28-.559-.559-.853-.839a21.764 21.764 0 0 1-1.626 6.058c-.011.024-.033.041-.046.064.766.717.8 1.64.878 2.8a.761.761 0 0 1-.327 1.28c-3.1.8-7.019-.5-10-1.413a15.83 15.83 0 0 1-3.453-1.463 37.634 37.634 0 0 1-2.294-1.015.6.6 0 0 1-.275-.477 3.1 3.1 0 0 0-1.623.055c-.326.122-.165.469.2.83-.069.164.042.42.335.71-.325.827 1.874 2.363 3.6 3.251a51.8 51.8 0 0 0 4.766 2.145c3.143 2.173 6.3 4.344 9.562 6.412a45.152 45.152 0 0 0 4.8 2.864 8.482 8.482 0 0 0 2.363.677c3.217 3.146 6.4 6.285 10.218 9.454a698.708 698.708 0 0 0 7.165 5.859c-.078-.027-.164-.069-.234-.086-.3-.226-.615-.456-.984-.7a2.319 2.319 0 0 0-1.074-.386c-3.17-.133.021 3.51 3.037 5.733 3.252 2.4 6.791 4.483 10.063 6.9a3.143 3.143 0 0 0 .531.421l.4.255c1.856 1.429 3.7 2.8 5.592 4.144l1.435 1.383a15.113 15.113 0 0 0 2.1 2.786 2.7 2.7 0 0 0 .411.346c-.488.343-.947.71-1.394 1.089-.193.163.271.747.827 1.067 5.181 2.977 9.907 6.064 14.832 9.362a23.377 23.377 0 0 0 2.372 1.5 1.45 1.45 0 0 0 .153.2 2.856 2.856 0 0 0 1.919 1.227c1.183.049 2.728.27 3.98.273.068.025.135.05.195.066l.039.031a4.647 4.647 0 0 0 1.062 1.4l-1.268-.56a17.252 17.252 0 0 0-2.1-.886c-.751-.2-.906 0-.834.348-.3-.035-.477.069-.356.365.527 1.295.628 2.609 2.119 4.1a10.545 10.545 0 0 0 2.069 2.515 42.418 42.418 0 0 0-6.708-2.528.82.82 0 0 0-.14-.01c-1.218-.5-1.121.5.247 1.185a97.387 97.387 0 0 0 7.739 3.475 12.832 12.832 0 0 0 1.445 1.722 4.966 4.966 0 0 0 .738.79 5.686 5.686 0 0 0 .832.622c3.739 2.991 9.049 5.127 12.48 5.279 1.689.075 4.961-.093 3.927-1.879a5.086 5.086 0 0 0-1.434-1.389zM374.545 346a2.835 2.835 0 0 0-.59-.5 5.615 5.615 0 0 0-1.587-2.194 2.045 2.045 0 0 0-1.574-.646 14.13 14.13 0 0 0-1.568-1.4 10.946 10.946 0 0 0-1.379-.89 9.771 9.771 0 0 0-1.759-1.46q-.506-.413-1.046-.775a4.009 4.009 0 0 0-.722-.757.491.491 0 0 0-.005-.423c-.464-1.211.341-1.888.15-2.994a3.859 3.859 0 0 0-.691-1.569 1.019 1.019 0 0 0-.287-.57c-2.671-3.193-5.392-6.431-8.084-9.681.665-.368.656-1.014-.244-2.3l-.06-.084c.492.205.968.245 1.105-.068a.665.665 0 0 1 .154-.195 9.531 9.531 0 0 0 1.688-.172c.627.414 1.456.645 1.664.232a1.694 1.694 0 0 0-.052-1.406 3.83 3.83 0 0 0-1.2-2.1 5.817 5.817 0 0 0-1.706-1.7l-.184-.188a2.121 2.121 0 0 0-1.3-.672 19.731 19.731 0 0 0-.632-.383 1.7 1.7 0 0 0-.881-.281 3.381 3.381 0 0 0-1.289-.2 1.039 1.039 0 0 0-1.078.86.359.359 0 0 0-.026.244A2.661 2.661 0 0 0 351.8 315a5.119 5.119 0 0 0 .352.508l-2.133-.156a.589.589 0 0 0-.131.013c-3.825-4.787-7.459-9.566-10.6-14.252a1.933 1.933 0 0 0-1.68-.891 1.585 1.585 0 0 0-.274-.048c-.3-.023-.61-.061-.917-.1a4.314 4.314 0 0 0-2.45-2.3c-4.379-5.581-8.938-11.139-13.822-16.695-4.174-4.747-9.006-9.534-12.57-14.284a38.537 38.537 0 0 0-3.845-6.132 4.975 4.975 0 0 0-.756-.744c.027 0 .056.006.082.005 1.1-.033 1.225-.936.346-2.046-.639-.807-1.768-1.352-2.427-2.074-2.155-2.36-.363-2.974.519-3.87a1.94 1.94 0 0 0 .246-2.894 4.57 4.57 0 0 0-.925-.845 1.692 1.692 0 0 1 .038.363c-.045 1.222-1.37 1.908-2.428 2.036-2.087.252-3.966-1.268-5.747-2.1-.942-.438-2.5-.715-3.766-1.234.287.55.476 1.193.746 1.7a.947.947 0 0 1 .066.772 1.923 1.923 0 0 1 .164.925c-.37 3.337-6.258.971-7.794.153a26.758 26.758 0 0 1-2.774-1.572 1.717 1.717 0 0 0 .049.789 12.978 12.978 0 0 0 2.849 3.668c.375 2.178 4.557 6.425 6.6 8.509 5.98 6.089 11.467 11.453 16.066 17.4a2.519 2.519 0 0 0 .844 1.5c.407.42.789.842 1.189 1.262.334.477.68.945 1 1.432.049.074.091.146.139.219-.216.314-.132.811.446 1.462.158.178.323.355.482.533.22.239.418.475.632.714 2.11 4.155 2.874 7.819 6.567 12.324.05.061.1.116.157.174-.482.239.274 1.118 1.107 1.544 3.84 4.437 5.107 8.659 9 13.113.913 1.045 2.47 1.185 2.153.4a12 12 0 0 0 .583.421c.351.234.672.431.968.6a32.78 32.78 0 0 0-1.315-.191c-.013 0-.035-.007-.047-.006a7.16 7.16 0 0 0-3.421.155c-.306.143-.3.468.01.91a12 12 0 0 0 .492.635c-.027.432.506 1.123 1.262 1.39.263.265.534.529.816.793 2.137 2.44 4.965 5.054 7.169 7.29.492.5 1.074 1.135 1.708 1.763a.734.734 0 0 0 .027.166c-.364.184-.317.731.5 1.319a54.2 54.2 0 0 0 6.233 4.251 59.639 59.639 0 0 1 7.2 3.745c1.112.755 1.893.381 1.551-.282.02-.168.037-.342.055-.514a2.571 2.571 0 0 0 1.421.989l.648.423a.381.381 0 0 0-.1.311 6.9 6.9 0 0 0 1.476 2.877c-.262.01-.437.132-.385.448a2.517 2.517 0 0 0 .268.78c1.711 4.569 7.023 11.334 13.59 11.553.23.113.454.218.671.315 5.164 2.3 6.594 1.211 6.435-1.084a4.1 4.1 0 0 0-.006-1.578.347.347 0 0 0 .3-.369c-.029-1.079.339-2.517-1.322-3.938a3.442 3.442 0 0 0-.842-1.453zm-73.5-79.133a101.427 101.427 0 0 0-7.432-8.677 1.208 1.208 0 0 0-.076-.649 16.464 16.464 0 0 0-1.816-2.5 13.765 13.765 0 0 1-1.323-2.326l-.01-.061a46.1 46.1 0 0 0 3.923 4.942 2.522 2.522 0 0 0 1.276.854c1.259 3.221 6.543 8.658 11.1 13.065a431.647 431.647 0 0 0 5.836 8.3c-3.907-4.2-7.86-8.44-11.477-12.946zm45.928-10.183c-1.736-1.836-3.082-3.265-5.165-5.123a7.951 7.951 0 0 0-2.818-1.666c-.113-.283-.247-.574-.352-.842a8.722 8.722 0 0 0-2.418-3.882 2.076 2.076 0 0 1-.841.762c-1.713.913-4.048-.312-5.476-1.371a2.7 2.7 0 0 0-.3.716c-.274 1.109.548 2.97 3.3 4.723a2.766 2.766 0 0 0 .438.458c-.287.179-.27.572.259 1.228a27.553 27.553 0 0 0 4.005 3.966c3.595 4.241 10.995 9.8 17 13.6 6.178 5.6 10.99 11.562 17.405 17.209.1.085.2.163.295.242-.33.212.177.872.854 1.337a2.464 2.464 0 0 0 .563.572c2.676 2.085 5.46 4.19 8.086 6.315 1.027-.422 2.6-.082 3.552-.082a14.1 14.1 0 0 1 4.263.236 13.818 13.818 0 0 1 .039-4.331 64.838 64.838 0 0 0 .214-8.5 15.512 15.512 0 0 0-6.725-3.481.79.79 0 0 0-.49.022 34.612 34.612 0 0 0-1.292-1.124c-5.85-4.852-12.423-9.478-17.394-14.447-3.2-3.2-7.132-8.955-11.95-12.007a14.742 14.742 0 0 0-2.588-1.318l-.043-.052a5.311 5.311 0 0 1-1.339-2.431 4.182 4.182 0 0 0-1.585-1.891 7.4 7.4 0 0 0-.787-.5 2.05 2.05 0 0 1-.851.313 5.749 5.749 0 0 1-2.666-.134 1.729 1.729 0 0 1-.654-.509c-.1-.05-.191-.113-.285-.171a.477.477 0 0 0-.122.5.9.9 0 0 0-.221.639c.021.933 1.1 2.2 2.429 3.486l.2.352a3.348 3.348 0 0 0 1.48 1.174l.271.238c.023.02.048.037.071.057a3.392 3.392 0 0 0 .37.836c1.425 2.37 8.8 7.53 11.837 10.38a95.23 95.23 0 0 0 1.693 1.539c-.05.3.175.761.8 1.375l12.032 11.758c.449.655.883 1.309 1.292 1.959l-12.334-9.859a135.55 135.55 0 0 1-14.051-12.268z"/></svg>