<svg xmlns="http://www.w3.org/2000/svg" xmlns:xlink="http://www.w3.org/1999/xlink" width="384.903" height="227.016" viewBox="0 0 384.903 227.016"><defs><style>.a{fill:#cc4a53}.b{fill:#fff}.c{fill:url(#a)}.d{fill:url(#b)}.e{fill:url(#c)}.f{fill:url(#d)}.g{fill:url(#e)}.h{fill:url(#f)}.i{fill:url(#g)}.j{fill:url(#h)}.k{fill:url(#i)}.l{fill:url(#j)}.m{fill:url(#k)}.n{fill:url(#l)}.o{fill:url(#m)}.p{fill:url(#n)}.q{fill:#eb5256}.r{fill:#f9f9f9}.s{fill:url(#o)}.t{fill:url(#p)}.u{fill:url(#q)}.v{fill:url(#r)}.w{fill:url(#s)}.x{fill:url(#t)}.y{fill:url(#u)}.z{fill:url(#v)}.aa{fill:url(#w)}.ab{fill:url(#x)}</style><linearGradient id="a" x1="-5.913" y1="34.949" x2="74.012" y2="72.219" gradientUnits="userSpaceOnUse"><stop offset="0" stop-color="#5c383c"/><stop offset=".85" stop-color="#222c2a"/></linearGradient><linearGradient id="b" x1="243.843" y1="61.108" x2="301.29" y2="87.896" xlink:href="#a"/><linearGradient id="c" x1="337.108" y1="71.939" x2="391.683" y2="97.388" xlink:href="#a"/><linearGradient id="d" x1="181.126" y1="79.482" x2="236.433" y2="105.272" xlink:href="#a"/><linearGradient id="e" x1="80.899" y1="70.812" x2="144.537" y2="100.486" xlink:href="#a"/><linearGradient id="f" x1="294.67" y1="74.241" x2="341.482" y2="96.069" xlink:href="#a"/><linearGradient id="g" x1="149.958" y1="85.617" x2="179.529" y2="99.407" xlink:href="#a"/><radialGradient id="h" cx="-526.09" cy="48.635" r="38.325" gradientTransform="matrix(1.204 0 0 1 676.671 0)" gradientUnits="userSpaceOnUse"><stop offset="0" stop-color="#34495e"/><stop offset="1" stop-color="#293b4b"/></radialGradient><radialGradient id="i" cx="-339.798" cy="75.287" r="30.558" xlink:href="#h"/><radialGradient id="j" cx="-258.907" cy="83.708" r="25.391" xlink:href="#h"/><radialGradient id="k" cx="-388.491" cy="92.372" r="28.824" xlink:href="#h"/><radialGradient id="l" cx="-468.248" cy="85.645" r="32.054" xlink:href="#h"/><radialGradient id="m" cx="-297.743" cy="85.148" r="25.372" xlink:href="#h"/><radialGradient id="n" cx="-429.219" cy="91.358" r="25.11" xlink:href="#h"/><linearGradient id="o" x1="273.927" y1="157.51" x2="332.38" y2="184.767" xlink:href="#a"/><linearGradient id="p" x1="195.909" y1="158.117" x2="231.299" y2="174.62" xlink:href="#a"/><linearGradient id="q" x1="159.405" y1="176.795" x2="208.428" y2="199.655" xlink:href="#a"/><linearGradient id="r" x1="241.367" y1="178.039" x2="285.731" y2="198.727" xlink:href="#a"/><linearGradient id="s" x1="112.165" y1="175.122" x2="148.874" y2="192.24" xlink:href="#a"/><radialGradient id="t" cx="-309.714" cy="170.075" r="26.227" xlink:href="#h"/><radialGradient id="u" cx="-377.624" cy="167.109" r="24.358" xlink:href="#h"/><radialGradient id="v" cx="-416.484" cy="178.09" r="29.929" xlink:href="#h"/><radialGradient id="w" cx="-349.399" cy="179.55" r="27.381" xlink:href="#h"/><radialGradient id="x" cx="-458.764" cy="182.206" r="31.873" xlink:href="#h"/></defs><title>アセット 9</title><path class="a" d="M106.919 123.216l.1.007.1.007.1.007.1.007.1.007.1.007.1.007.1.007.1.007.1.007.1.007.1.007.1.007.1.007.1.007.1.007.1.007.1.007.1.007.1.007.1.007.093.007.1.007.1.007.093.007.1.007.1.007.1.007.1.007.093.007.1.007.1.007.093.007.1.007.1.007.1.007.1.007.1.007.1.007.1.007.093.007.1.007.1.007.093.007.1.007.1.007.093.007.1.007q.842.071 1.693.1a32.593 32.593 0 0 0 25.273-9.858c6.782-6.82 10.192-15.423 10.192-25.625a40.328 40.328 0 0 0-10.118-27.018c-6.779-7.9-15.129-12.414-24.872-13.352a34.149 34.149 0 0 0-12.454.988l-.1.027-.1.027-.1.027-.1.027-.1.027-.1.027-.1.027-.1.027-.1.027-.1.027-.1.027-.1.027-.1.027-.1.027-.1.027-.1.027-.1.027-.1.027-.1.027-.1.027-.1.027-.1.027-.1.027-.1.027-.1.027-.1.027-.1.027-.1.027-.1.027-.1.027-.1.027-.1.027-.1.027-.1.027-.1.027-.1.027-.1.027-.1.027-.1.027-.1.027-.1.027-.1.027-.1.027-.1.027-.1.027-.1.027-.1.027-.1.027-.1.027a33.164 33.164 0 0 0-13.831 7.633 36.984 36.984 0 0 0-3.01 3.046A54.436 54.436 0 0 0 80 54.23c0-13.85-4.646-25.726-13.9-35.4A48.132 48.132 0 0 0 50.476 7.76c-5.329-2.477-12.595-4.3-21.656-5.42L10.573.088a4.613 4.613 0 0 0-2.787.5c-.036.018-.076.03-.112.05S7.6.667 7.563.686s-.076.03-.112.049-.076.03-.112.049-.076.03-.112.05-.076.03-.112.05-.076.03-.115.05-.076.03-.112.049-.076.03-.112.049-.076.03-.112.05-.076.03-.112.049-.076.03-.112.049-.076.03-.112.049-.076.03-.112.05-.076.03-.112.049-.076.03-.112.049-.076.03-.112.049-.076.03-.112.049-.076.03-.112.05-.076.03-.112.049-.076.03-.112.049-.076.03-.112.05-.076.03-.112.049-.076.03-.112.049-.076.03-.112.049-.076.03-.112.049-.076.03-.112.05-.076.03-.112.049-.076.03-.112.049-.076.03-.112.049-.076.03-.112.05-.076.03-.112.049-.076.03-.112.049-.076.03-.112.05-.076.03-.112.049-.076.03-.112.049-.076.03-.112.049-.076.031-.112.05-.076.03-.112.049-.076.03-.112.049-.076.031-.112.05-.076.031-.112.05-.076.03-.112.049-.076.03-.112.049-.076.031-.112.05-.076.031-.112.05-.076.03-.112.049-.076.03-.112.049-.076.031-.112.05A4.067 4.067 0 0 0 0 6.724v84.569a5.215 5.215 0 0 0 5 5.014l18.161.958a106.957 106.957 0 0 0 12.314.028h.105l.107-.005.108-.005h.105l.107-.005.107-.005.108-.005h.212l.108-.005h.105l.107-.005.107-.005.108-.005h.105l.107-.005.108-.005h.1l.11-.005.107-.005h.1l.11-.005h.105l.107-.005.107-.005.108-.005h.105l.107-.005.107-.005.108-.005h.105l.107-.005.118-.061h.212l.107-.005.108-.005h.105l.107-.005.108-.005h.1l.107-.005.107-.005.108-.005c.174-.01.362-.014.534-.025a44.59 44.59 0 0 0 9.179-1.428 40.242 40.242 0 0 0 15.629-8.284 40.666 40.666 0 0 0 5.82-5.984 40.349 40.349 0 0 0-.064 2.185c0 11.7 4.227 21.538 12.491 29.161 6.89 6.326 14.652 9.842 23.064 10.513zm1.881-56.35a18.549 18.549 0 0 1 13.009 6.534 20.156 20.156 0 0 1 5.213 14.012 17.9 17.9 0 0 1-5.282 13.326 16.181 16.181 0 0 1-9.352 4.7A18.53 18.53 0 0 1 100.5 99.17a20.639 20.639 0 0 1-5.627-14.862c0-5.685 1.79-10.182 5.467-13.743a16.291 16.291 0 0 1 5.742-3.72 20.515 20.515 0 0 1 2.718.021zm-79.2 8.578l-1.015-.071V26.607c7.534 1.343 13.29 3.982 17.174 7.867A25.854 25.854 0 0 1 53.428 53.6c0 7.58-2.523 13.333-7.734 17.6a22.309 22.309 0 0 1-8.473 4.312 57.872 57.872 0 0 1-7.621-.068z"/><path class="a" d="M148.663 107.024h-1.942a3.787 3.787 0 0 0-.856.064 3.826 3.826 0 0 0-2.59 1.91l-4.322 7.759a4.529 4.529 0 0 0 1.441 5.847 23.571 23.571 0 0 0 10.773 3.974l.088.008.087.008.088.008.087.008.089.008.087.008.089.008.088.008.087.008.088.008.089.008.088.008.088.008.087.008.089.008.087.008.088.008.089.008.088.008.087.008.089.008.087.008.089.008.088.008.087.008.089.008.088.008.087.008.088.008.088.008.088.008.087.008.088.008.087.008.089.008.088.008.087.008.089.008.087.008.088.008.088.008.088.008.087.008.089.008.087.008.088.008.088.008.087.008.088.008q.812.09 1.635.12a16.57 16.57 0 0 0 14.256-6.432 19.875 19.875 0 0 0 3.855-8.2 36.761 36.761 0 0 0 .929-7.114 35.091 35.091 0 0 0 7.974 12.009c5.877 5.814 12.5 9.045 19.687 9.654l.081.008.076.008.081.008.076.008.081.008.076.008.081.008.077.008.078.008.078.008.078.008.078.008.078.008.08.008.076.008.081.008.076.008.081.008.076.008.081.008.077.008.078.008.078.008.078.008.078.008.078.008.078.008.078.008.078.008.078.008.078.008.078.008.079.008.077.008.078.008.078.008.078.008.078.008.078.008.078.008.078.008.078.008.078.008.078.008.078.008.078.008.079.008.076.008.081.008c.5.044.994.078 1.495.1a26.976 26.976 0 0 0 21.673-9.207c5.827-6.345 8.759-14.335 8.759-23.8a38.914 38.914 0 0 0-8.7-24.991c-5.82-7.28-12.982-11.4-21.33-12.2a27.186 27.186 0 0 0-10.619.987l-.08.023-.079.022-.081.023-.08.022-.08.022-.08.023-.08.023-.08.023-.079.022-.081.023-.08.023-.08.023-.079.022-.081.023-.08.023-.08.023-.079.022-.081.023-.08.023-.079.022-.081.023-.08.023-.079.022-.081.023-.08.023-.08.022-.081.023-.079.022-.081.023-.08.023-.08.022-.081.023-.078.022-.081.023-.079.022-.081.023-.08.023-.08.022-.08.023-.079.022-.081.023-.08.022-.08.023-.079.022-.081.023-.08.023-.079.022-.081.023-.08.023a28.082 28.082 0 0 0-11.865 7.156 31.576 31.576 0 0 0-6.883 9.88V61.044a4.572 4.572 0 0 0-3.85-4.628l-8.479-.8a3.428 3.428 0 0 0-1.535.2c-.028.01-.059.013-.087.024s-.058.013-.086.024-.059.013-.087.024-.059.013-.087.024-.059.013-.087.024-.058.013-.086.024-.059.013-.087.024-.059.013-.086.024-.059.013-.086.024-.059.013-.087.024-.058.013-.086.024-.059.013-.086.024-.059.013-.087.024-.059.013-.086.024-.059.013-.087.024-.059.013-.086.024-.059.013-.086.024-.059.013-.087.024-.058.013-.086.024-.059.013-.087.024-.059.013-.087.024-.058.013-.086.024-.059.013-.086.024-.059.013-.086.024-.059.013-.086.024-.059.013-.087.024-.059.013-.087.024-.059.013-.086.024-.059.013-.086.024-.059.013-.087.024-.059.013-.086.024-.059.013-.087.024-.058.013-.086.024-.059.013-.086.024-.059.013-.087.024-.059.013-.087.024-.058.013-.086.024-.059.013-.086.024-.059.013-.087.024-.058.013-.086.023-.059.014-.087.024-.058.013-.086.023-.059.013-.087.024-.059.014-.087.024-.058.013-.086.024-.059.013-.086.024-.059.013-.087.024-.059.013-.087.024-.058.013-.086.024a3.79 3.79 0 0 0-2.5 3.692v39.303c0 5.55-.652 7.823-1.032 8.691a12.487 12.487 0 0 1-1.188-.822 3.928 3.928 0 0 0-2.377-.85h-2.294c-.029 0-.067.021-.096.02zm56.88-32.157a15.416 15.416 0 0 1 11.158 5.98 19.452 19.452 0 0 1 4.476 12.958 17.373 17.373 0 0 1-4.535 12.37 13.568 13.568 0 0 1-8.674 4.452c-3.6-.5-6.789-2.365-9.695-5.7a19.886 19.886 0 0 1-4.81-13.715c0-5.255 1.53-9.422 4.673-12.735a13.835 13.835 0 0 1 5.317-3.634 16.464 16.464 0 0 1 2.09.025z"/><path class="a" d="M382.214 56.823l-5.794-.653a1.977 1.977 0 0 0-1.077.183l-.044.023-.044.023-.044.023-.044.023-.044.023-.044.023-.044.023-.044.023-.044.023-.044.023-.044.023c-.015.007-.029.016-.045.023s-.029.016-.044.023l-.044.023-.044.023-.044.023-.044.023-.044.023c-.015.007-.029.016-.045.023s-.029.016-.044.023l-.044.023-.044.023-.044.023-.044.023-.044.023-.044.023-.044.023-.044.023-.044.023-.044.023-.044.023-.044.023-.044.023-.044.023-.044.023-.044.023-.044.023-.044.023c-.015.007-.029.016-.045.023s-.029.016-.044.023l-.044.023-.044.023-.044.023-.044.023-.044.023-.044.023-.044.023-.044.023-.044.023a3.2 3.2 0 0 0-1.674 3.047v22.49l-21.992-32.33a2.6 2.6 0 0 0-3.1-1.23c-.017.007-.033.018-.05.026-.018.007-.033.018-.05.026-.017.007-.033.018-.05.026-.018.007-.033.018-.05.026-.018.007-.033.018-.05.026-.035.014-.066.036-.1.052-.032.013-.06.033-.091.047-.055.023-.106.054-.158.082l-.107.055c-.035.019-.05.024-.074.038s-.05.024-.075.038c-.045.025-.093.042-.136.07s-.069.032-.1.052-.069.031-.1.052c-.016.01-.035.016-.051.026s-.034.015-.05.026-.035.016-.051.026-.034.016-.05.026-.035.016-.051.026-.034.016-.05.026-.035.016-.051.026-.035.016-.051.026-.034.016-.05.026-.035.016-.051.026-.034.016-.05.026-.035.016-.051.026-.034.016-.05.026-.034.016-.05.026-.035.016-.051.026-.034.016-.05.026-.035.016-.051.026-.035.016-.051.026-.034.016-.05.026-.034.016-.051.026-.035.016-.051.026-.034.016-.05.026-.035.016-.051.026-.035.016-.051.026-.034.016-.05.026-.035.016-.051.026-.034.016-.05.026-.035.016-.051.026-.034.016-.05.026-.034.016-.051.026-.035.016-.051.026-.034.016-.05.026-.034.016-.05.026a3.365 3.365 0 0 0-1.463 2.966V76.65a36.857 36.857 0 0 0-5.8-12.154c-4.815-6.643-10.733-10.413-17.624-11.166a20.187 20.187 0 0 0-9.936 1.3l-.058.024-.059.024-.058.024-.059.024-.058.024-.059.024-.058.024-.06.024-.057.023-.058.024-.059.024-.058.024-.059.024-.058.024-.059.024-.058.024-.06.024-.058.024-.058.024-.059.024-.058.024-.058.024-.06.024-.057.023-.059.024-.058.024-.06.024-.057.023-.059.024-.058.024-.059.024-.058.024-.06.024-.057.023-.059.024-.058.024-.06.024-.057.023-.059.024-.058.024-.059.024-.058.024-.06.024-.057.023-.059.024-.058.024-.059.024-.058.024-.059.024a23.206 23.206 0 0 0-8.568 6.03c-5.274 5.672-7.968 12.964-7.968 21.63a43.285 43.285 0 0 0 .633 7.479c-.017 0-.034.006-.051.008l-.062.008-.062.008-.062.008-.062.008-.062.008-.062.008-.062.008-.062.008-.062.008-.062.008c-.021 0-.041.006-.062.008l-.062.008-.062.008-.062.008-.062.008-.062.008-.062.008-.062.008-.062.008-.062.008-.062.008-.062.008-.062.008c-.021 0-.041.006-.062.008l-.062.008-.062.008-.062.008-.062.008-.062.008-.062.008-.062.008-.062.008-.062.008-.062.008-.062.008-.062.008c-.021 0-.042.006-.062.008l-.062.008-.062.008c-.021 0-.041.006-.062.008l-.062.008c-.021 0-.042.006-.062.008l-.062.008-.062.008-.062.008-.062.008c-.021 0-.041.006-.062.008a2.741 2.741 0 0 0-1.648.74 38 38 0 0 1-3.714 3.072 17.179 17.179 0 0 1-3.224 1.852l-.065.03a9.953 9.953 0 0 1-2.386.752c-.279-.006-.543.005-.832-.014-5.1-.334-9.31-2.714-12.862-7.294a25.8 25.8 0 0 1-5.371-16.423c0-6.523 1.763-11.705 5.382-15.831a16.165 16.165 0 0 1 4.6-3.754 15.6 15.6 0 0 1 4.938-.256c4.6.469 9.152 3.13 13.522 7.882a3.006 3.006 0 0 0 3.022.986c.021-.005.041-.015.062-.021s.041-.015.061-.021.041-.015.062-.021.041-.015.062-.021.041-.015.062-.021.041-.015.061-.02.041-.015.062-.021.041-.015.061-.021.041-.015.062-.021.041-.015.062-.021.041-.015.062-.021.041-.015.062-.021.041-.015.062-.021.041-.015.061-.021.041-.015.062-.021.041-.015.062-.021.041-.015.062-.021.041-.015.061-.02.041-.015.062-.021.041-.015.062-.021.041-.015.061-.021.041-.015.062-.021.041-.015.062-.021.041-.015.062-.021.041-.015.061-.021.041-.015.062-.021.041-.015.062-.021.041-.015.062-.021.041-.015.062-.021.041-.015.062-.021.041-.015.062-.021.041-.015.062-.021.041-.015.062-.021.041-.015.062-.021.041-.015.062-.021l.061-.02c.02-.006.041-.015.062-.021l.061-.02c.02-.006.041-.015.062-.021s.041-.015.062-.021.041-.015.062-.021.041-.015.062-.021.041-.015.062-.021.041-.015.061-.021.041-.015.062-.021.041-.015.062-.021.041-.015.062-.021.041-.015.062-.021.041-.015.062-.021a2.512 2.512 0 0 0 .434-.158 3.582 3.582 0 0 0 1.812-3.315v-12.24a4.643 4.643 0 0 0-1.566-3.519 31.7 31.7 0 0 0-16.4-7.518A27.7 27.7 0 0 0 261.1 37.2l-.067.031-.068.032-.069.032-.068.032-.067.031-.068.032-.068.032-.069.032-.068.032-.067.031-.069.032-.067.031-.068.032-.069.032-.067.031-.069.032-.068.032-.067.031-.068.032-.069.032-.068.032c-.039.017-.077.037-.117.054l-.019.009c-.072.031-.141.068-.213.1-.038.016-.075.036-.113.053-.1.042-.193.091-.29.135l-.038.018c-.079.035-.156.074-.235.109s-.158.074-.237.11l-.043.02c-.083.037-.166.077-.249.115l-.173.08-.232.107-.083.038-.117.054-.136.063-.133.061-.125.057-.133.061c-.087.042-.176.078-.263.121l-.107.049c-.072.035-.146.064-.217.1l-.048.022-.088.04-.068.031a30.83 30.83 0 0 0-10.3 8.53c-5.674 7.1-8.572 15.741-8.572 25.619a44.308 44.308 0 0 0 10.277 29.015c6.737 8.022 14.878 12.284 24.14 12.732h3.254a28.417 28.417 0 0 0 17.045-4.712 3.848 3.848 0 0 0 1.59-3.267v-5.874a32.551 32.551 0 0 0 4.457 6.273c5.161 5.671 11.027 8.686 17.414 9h2.817c7.026.353 13.039-2.421 17.907-8.2a29.761 29.761 0 0 0 5.858-10.789v11.4c0 1.985 1.292 3.669 2.876 3.755l6.191.334h2.436c1.545.086 2.8-1.477 2.8-3.482V86.266l21.753 30.454a2.609 2.609 0 0 0 1.941 1.171h2.143a2 2 0 0 0 .989-.2 3.461 3.461 0 0 0 1.658-3.2v-54c-.008-1.782-1.194-3.503-2.655-3.668zm-66.457 12.618a12.532 12.532 0 0 1 9.221 5.484 18.915 18.915 0 0 1 3.7 11.809 16.64 16.64 0 0 1-3.752 11.226 10.925 10.925 0 0 1-6.437 3.891h-.091c-3.406-.219-6.361-1.969-9.031-5.364a19.321 19.321 0 0 1-3.959-12.472c0-4.767 1.259-8.54 3.846-11.531a11.669 11.669 0 0 1 3.762-2.988 11.834 11.834 0 0 1 2.741-.055zm7.937 70.73l-.055-.013-.055-.013-.056-.013-.055-.013-.055-.013-.055-.013-.055-.013-.056-.013-.055-.013-.055-.013-.055-.013-.055-.013-.055-.013-.055-.013-.055-.013-.055-.013-.055-.013-.055-.013-.055-.013-.055-.013-.055-.013-.055-.013-.055-.013-.055-.013-.055-.013-.056-.013-.055-.013-.055-.013-.055-.013-.055-.013-.055-.013-.055-.013-.055-.013-.055-.013-.055-.013-.055-.013-.055-.013-.055-.013-.056-.013-.055-.013-.055-.013-.055-.013-.055-.013-.056-.013-.055-.013-.055-.013-.055-.013-.055-.013-.055-.013a2.5 2.5 0 0 0-.622-.1l-6.557-.187c-1.678-.048-3.047 1.575-3.047 3.618v25.4l-24.313-31.843a3.087 3.087 0 0 0-2.1-1.263c-.021 0-.042-.009-.063-.011s-.042-.009-.064-.011-.042-.009-.063-.011-.042-.009-.063-.011-.042-.009-.064-.011-.042-.009-.063-.011-.042-.009-.064-.011-.042-.009-.063-.011-.042-.009-.063-.011-.042-.009-.063-.011-.042-.009-.063-.011-.042-.009-.063-.011-.042-.009-.064-.011-.042-.009-.063-.011-.042-.009-.063-.011-.042-.009-.063-.011-.042-.009-.063-.011-.042-.009-.063-.011-.042-.009-.063-.011-.042-.009-.063-.011-.042-.009-.063-.011-.042-.009-.063-.011-.042-.009-.063-.011-.042-.009-.064-.011-.042-.009-.063-.011-.042-.009-.064-.011-.042-.009-.063-.011-.042-.009-.064-.011-.042-.009-.063-.011-.042-.009-.064-.011-.042-.009-.063-.011-.042-.009-.064-.011-.042-.009-.063-.011-.042-.009-.063-.011-.042-.009-.063-.011-.042-.009-.063-.011-.042-.009-.064-.011-.042-.009-.063-.011-.042-.009-.063-.011-.042-.009-.063-.011-.042-.009-.064-.011-.042-.009-.063-.011-.042-.009-.064-.011-.042-.009-.063-.011-.042-.009-.063-.011-.042-.009-.064-.011-.042-.009-.063-.011-.042-.009-.064-.011-.042-.009-.063-.011a2.74 2.74 0 0 0-1.472.212 3.71 3.71 0 0 0-2.031 3.478v56.85L259.8 147.057a3.59 3.59 0 0 0-2.568-2.364l-.069-.016-.068-.015-.069-.016-.069-.015-.068-.016-.069-.016-.069-.016-.068-.015-.069-.016-.068-.016-.068-.015-.069-.016-.068-.016-.069-.016-.068-.015-.069-.016-.068-.016-.069-.016-.068-.015-.069-.016-.068-.015-.068-.016-.069-.016-.068-.015-.069-.016-.068-.015-.068-.016-.069-.016-.068-.015-.069-.016-.069-.016-.069-.016-.068-.015-.069-.016-.068-.015-.069-.016-.069-.016-.068-.015-.069-.016-.068-.016-.069-.016-.069-.016-.068-.015-.069-.016-.069-.016-.068-.015-.069-.016-.069-.016-.068-.015a2.939 2.939 0 0 0-.533-.069h-.088a3.363 3.363 0 0 0-3.009 2.188l-24.717 60.511a4.386 4.386 0 0 0 .225 3.821 3.558 3.558 0 0 0 1.3 1.322c.025.015.049.032.074.046s.049.032.074.046.049.032.074.046.049.032.074.047.049.032.074.046.049.032.074.046.049.032.074.046.049.032.074.046.049.032.074.046.049.032.073.046.049.032.074.047.049.032.074.046.049.032.074.046.049.032.074.046.049.032.074.047.049.032.074.046.049.032.074.046.049.032.074.046.049.032.074.046.049.032.074.047.049.032.074.046.049.032.074.046.049.032.074.046.049.032.074.046.049.032.074.046.049.032.075.047.049.031.073.046l.074.047c.025.015.049.032.074.046s.049.032.074.046.049.032.074.047.049.032.074.046.049.032.074.046.049.032.074.046.049.032.074.046.049.032.074.047.049.032.074.046.048.031.073.046.049.032.075.047l.074.046c.025.015.049.032.074.046l.074.046.074.046.074.047.074.046c.025.015.049.032.074.046l.073.046c.025.016.049.032.075.047l.074.046a3.031 3.031 0 0 0 1.73.47l8.113-.3a3.626 3.626 0 0 0 3.124-2.466l4.556-11.847 13.69-.338 3.387 9.018a3.571 3.571 0 0 0 1.268 1.683l.066.045.067.045.066.045.066.045.066.045.066.045.066.045.066.045.066.045.066.045.066.045.066.045.066.045.066.045c.022.016.045.03.067.045l.066.045.066.045.066.045.066.045.066.045.066.045.066.045.066.045.066.045.066.045.066.045.066.045.066.045.066.045.066.045.066.045.066.045.066.045.066.045c.022.016.045.03.067.045l.066.045.066.045.066.045.066.045.066.045.066.045.066.045c.022.016.045.029.066.045s.045.03.066.045l.066.045.066.045c.022.016.045.029.066.045s.044.029.066.045l.066.045a2.792 2.792 0 0 0 1.819.612l7.7-.284a3.247 3.247 0 0 0 2.694-1.878 4.644 4.644 0 0 0 .234-3.723l-2.512-6.727c.013.01.028.016.04.025s.043.025.064.04.043.025.064.04.043.025.064.041.043.025.064.04.043.025.063.04.044.026.064.041.043.025.064.04.043.025.064.041.043.025.063.04.043.025.064.041.043.025.064.041.043.025.064.04.044.025.064.041.043.025.064.04.043.025.064.04.043.025.064.041.043.025.064.04.043.025.064.04.044.025.064.041.043.025.064.04.043.025.063.04.043.025.064.041.044.025.064.041.043.025.064.04.044.025.064.041.043.025.064.04.043.025.064.04.044.025.064.041.043.025.064.04.043.025.064.04.044.025.064.041.043.025.064.04.043.025.064.04.043.025.064.04.043.025.064.04.044.025.064.041.043.025.064.04.043.025.064.04.044.025.064.041.043.025.064.04.043.025.064.041a2.726 2.726 0 0 0 1.787.617l6.883-.193c1.735-.049 3.142-1.818 3.142-3.943v-26.716l24.021 29.92a3.075 3.075 0 0 0 .505.494c.018.015.037.027.056.041l.056.041.056.041.056.041.056.041.056.041.056.041.056.041.056.041.056.041.056.041.056.041.056.041.056.041.056.041.056.041c.018.014.037.026.055.041s.037.026.056.041l.056.041c.018.014.037.026.055.041s.038.027.056.041l.056.041.056.041.056.041.056.041.056.041c.019.015.037.026.055.041s.038.027.056.041.037.026.055.041.038.026.056.041.038.026.056.041.037.026.056.041.037.026.055.041.038.027.056.041l.056.041.056.041c.019.015.037.026.055.041s.038.027.056.041.038.026.056.041.037.026.055.041.038.027.056.041l.056.041c.019.015.038.026.056.041s.037.026.055.041.038.027.056.041l.056.041.056.041c.019.015.038.026.056.041s.038.026.056.041a2.512 2.512 0 0 0 1.7.625 2.487 2.487 0 0 0 1.107-.3 3.967 3.967 0 0 0 1.855-3.531v-57.138a3.752 3.752 0 0 0-2.419-3.742zm-68.707 41.7l.126-.329.124.326zm-15.353-26.544a22.925 22.925 0 0 0-5.327-15.386 16.639 16.639 0 0 0-7.284-5.117 24.359 24.359 0 0 0-4.543-1.031l-.075-.011-.077-.011-.072-.01-.079-.011-.073-.011-.075-.011-.075-.011-.077-.011-.072-.01-.078-.011-.074-.011-.075-.011-.075-.011-.075-.011-.075-.011-.077-.011-.073-.011-.075-.011-.075-.011-.075-.011-.075-.011-.075-.011-.077-.011-.072-.01-.079-.011-.074-.011-.075-.011-.075-.011-.077-.011-.074-.011-.075-.011-.075-.011-.075-.011-.075-.011-.077-.011-.074-.011-.075-.011-.075-.011-.075-.011-.075-.011-.075-.011-.077-.011-.073-.011-.075-.011-.075-.011-.075-.011-.075-.011-.077-.011-.073-.011a59.076 59.076 0 0 0-6.247-.487l-8.981-.283a3.76 3.76 0 0 0-3.69 3.962v57.611l-20.26-50.754a4.033 4.033 0 0 0-2.984-2.543l-.084-.014-.083-.014-.084-.014-.083-.014-.084-.014-.084-.014-.083-.014-.084-.014-.083-.014-.084-.014-.084-.014-.083-.014-.084-.014-.083-.014-.084-.014-.083-.014-.084-.014-.083-.014-.084-.014-.084-.014-.084-.014-.083-.014-.084-.014-.084-.014-.084-.014-.083-.014-.084-.014-.084-.014-.084-.014-.084-.014-.083-.014-.084-.014-.084-.014-.083-.014-.084-.014-.083-.014-.084-.014-.083-.014-.084-.014-.084-.014-.084-.014-.084-.014-.084-.014-.083-.014-.084-.014-.083-.014-.084-.014-.083-.014-.084-.014a3.7 3.7 0 0 0-.6-.071 3.78 3.78 0 0 0-3.522 2.331l-23.651 54.022c.036-1.188.059-2.425.059-3.751v-50.422a4.441 4.441 0 0 0-3.321-4.386c-.029-.007-.061-.007-.09-.013s-.061-.007-.09-.013-.061-.007-.09-.013-.061-.006-.09-.013-.061-.007-.09-.013-.061-.007-.09-.013-.061-.007-.09-.013-.061-.007-.09-.013-.061-.007-.09-.013-.061-.007-.09-.013-.061-.007-.09-.013-.06-.006-.09-.013-.061-.007-.09-.013-.061-.007-.09-.013-.061-.007-.09-.013-.061-.006-.09-.013-.061-.007-.09-.013-.061-.007-.09-.013-.061-.007-.09-.013-.061-.007-.09-.013-.061-.007-.09-.013-.061-.007-.09-.013-.061-.007-.09-.013-.06-.007-.09-.013-.061-.007-.09-.013-.061-.007-.09-.013-.061-.006-.09-.013-.061-.007-.09-.013-.061-.007-.09-.013-.061-.007-.09-.013-.061-.007-.09-.013-.061-.007-.09-.013-.061-.007-.09-.013-.061-.007-.09-.013-.06-.007-.09-.013-.06-.007-.09-.013-.061-.007-.091-.013-.06-.007-.09-.013-.061-.007-.09-.013-.061-.007-.09-.013-.061-.007-.09-.013-.061-.007-.09-.013-.061-.007-.09-.013-.061-.007-.09-.013-.061-.007-.09-.013-.06-.007-.09-.013-.061-.007-.09-.013-.06-.007-.09-.013-.061-.007-.091-.013a3.955 3.955 0 0 0-.829-.111l-11.158-.293a4.141 4.141 0 0 0-4.185 4.234v50c0 7.635-.977 10.7-1.583 11.891-.288.6-.771 1.594-3.241 1.659a5.79 5.79 0 0 1-1.223-.105c-.089-.043-.172-.1-.263-.133-.032-.014-.062-.031-.095-.043s-.062-.031-.095-.043-.062-.031-.095-.043-.062-.031-.095-.043-.062-.031-.095-.043-.063-.031-.1-.043-.062-.03-.094-.043-.062-.031-.095-.043-.062-.031-.095-.043-.062-.031-.095-.043-.062-.03-.094-.043-.062-.031-.095-.043-.062-.031-.095-.043-.062-.031-.095-.043-.062-.031-.095-.043-.062-.031-.095-.043-.062-.031-.095-.043-.062-.031-.095-.043-.062-.03-.094-.043-.062-.031-.095-.043-.062-.031-.095-.043-.062-.031-.095-.043-.062-.031-.095-.043-.062-.031-.095-.043-.062-.031-.095-.043-.062-.031-.095-.043-.062-.031-.094-.043-.062-.031-.095-.043-.062-.031-.095-.043-.062-.031-.095-.043-.062-.031-.095-.043-.062-.031-.095-.043-.062-.031-.095-.043-.062-.031-.095-.043-.062-.031-.095-.043-.062-.031-.094-.043-.062-.031-.095-.043-.062-.031-.095-.043-.062-.031-.095-.043-.062-.031-.094-.043-.062-.031-.095-.043-.062-.031-.095-.043-.062-.031-.095-.043-.062-.031-.095-.043-.062-.031-.095-.043-.062-.031-.095-.043-.062-.031-.095-.043-.062-.031-.094-.043-.062-.031-.095-.043A4.18 4.18 0 0 0 107.3 202a4.476 4.476 0 0 0-2.75 2.168l-5.685 10.318a4.389 4.389 0 0 0 1.535 5.914c.031.018.062.032.092.049.031.018.062.032.093.049.031.018.062.032.093.049.031.018.062.032.093.049.031.018.062.032.093.049.031.018.063.032.094.05.031.018.063.032.093.05.031.018.063.032.094.05.031.018.063.032.094.05.031.018.063.032.094.05.031.018.063.032.094.05.031.018.063.033.094.05.031.018.063.033.094.05.031.018.063.033.095.051.031.018.063.033.095.051.031.018.064.033.1.051.031.018.064.033.1.051.031.018.064.033.1.051.031.018.064.033.1.051.032.018.064.033.1.051.032.018.064.033.1.051.032.018.064.033.1.052.032.018.064.033.1.052.04.023.08.042.12.065s.056.029.084.045c.094.055.19.1.284.153.035.02.071.037.107.058.1.056.2.1.295.159l.09.049c.1.055.2.105.295.159l.09.049c.1.054.2.106.295.159l.09.049.295.159.09.049c.1.053.2.108.295.16l.09.049c.1.052.2.109.295.16l.09.049c.071.037.141.079.212.115.091.047.179.1.27.147.062.031.122.069.183.1.032.016.064.036.1.052s.064.036.1.052.064.036.1.052.064.036.1.053.064.036.1.052.064.036.1.052.064.036.1.053.064.036.1.052a27.548 27.548 0 0 0 13.814 2.995 22.9 22.9 0 0 0 17.9-9.237 24.617 24.617 0 0 0 3.062-5.114l.094.051.089.048.089.048.09.048.089.048.09.048.09.048.089.048.089.048.089.048.09.048.089.048.089.048.09.048.089.048.089.048.09.048.089.048.089.048.089.048.089.048.089.048.089.048.089.048.089.048.09.048.089.048.089.048.09.048.089.048.089.048.09.048.089.048.09.048c.029.017.059.032.089.048l.09.048.089.048.089.048.09.048.089.048.089.048.09.048.089.048.089.048.09.048.09.048.089.048.089.048.09.048.089.048a3.676 3.676 0 0 0 1.967.488l9.322-.328a4.129 4.129 0 0 0 3.587-2.645l5.229-12.693 15.39-.355 3.91 9.732a3.8 3.8 0 0 0 1.869 2.04c.028.014.053.033.081.047s.053.033.081.047.053.033.081.046.053.033.082.047.053.033.081.046.053.033.081.047.053.033.081.047.053.033.081.047.054.033.082.047.053.033.081.046.053.033.081.047.053.033.081.047.053.033.081.047.053.033.082.047.053.033.081.046.053.033.082.047.053.033.081.046.053.033.082.047.053.033.081.046.053.033.081.047.054.033.082.047.053.033.081.046.054.033.082.047.053.033.081.046.053.033.081.047.053.033.081.047.053.033.081.047.053.033.082.047.053.033.081.046.053.033.081.047.053.033.081.047.053.033.081.046.053.033.081.047.053.033.081.047.054.033.082.047.053.033.081.046.053.033.081.047.053.033.081.047.053.033.082.047.053.033.081.046.053.033.081.047.053.033.082.047.053.033.081.046.053.033.081.047.053.033.081.047.053.033.081.046.053.033.081.047.053.033.081.047.054.033.082.047a3.311 3.311 0 0 0 1.659.385l8.8-.31a3.722 3.722 0 0 0 3.079-2.01 4.677 4.677 0 0 0 .267-3.98l-3.605-9.032a3.455 3.455 0 0 0 .483.274c.027.013.051.029.078.041s.051.029.078.041.052.029.079.041.052.029.079.041.051.029.078.041.051.029.078.041.052.029.079.041.052.029.079.041.051.029.078.041.051.029.078.041.052.029.079.041.052.029.079.041.051.029.078.041.051.029.078.041.052.029.079.041.052.029.079.041.051.029.078.041.051.029.078.041.052.029.079.041.052.029.079.041.051.029.078.041.052.029.079.041.051.029.078.041.052.029.079.041.052.029.079.041.051.029.078.041.051.029.078.041.052.029.079.041.051.029.078.041.052.029.079.041.052.029.079.041.051.029.078.041.052.029.079.041.051.029.078.041.052.029.078.041.052.029.079.041.051.029.078.041.052.029.079.041.051.029.078.041.052.029.079.041.052.029.079.041.051.029.078.041.052.029.079.041.052.029.079.041.051.029.078.041.052.029.079.041.051.029.078.041.052.029.079.041.052.029.079.041a3.2 3.2 0 0 0 1.476.326l7.86-.2a4 4 0 0 0 3.585-4.207v-19.933h.022c6.183-.028 11.191-1.975 14.916-5.768 3.833-3.909 5.767-9.188 5.767-15.71zm-20.711-5.427c.149.009.277.027.418.039a3.93 3.93 0 0 1 2.244 4.061c0 1.4-.005 3.481-2.662 4.514zm-44.8 30.779h-.069l.035-.085z"/><path class="b" d="M360.9 84.856a1.5 1.5 0 0 0 0-3 1.5 1.5 0 0 0 0 3zM65.166 78.868a1.5 1.5 0 0 0 0-3 1.5 1.5 0 0 0 0 3z"/><path class="c" d="M26.045 77.8l3.661.25a45.505 45.505 0 0 0 13.69-.766 24.291 24.291 0 0 0 9.375-4.915c5.716-4.85 8.481-11.33 8.481-19.836 0-8.585-2.734-15.611-8.395-21.518-5.058-5.236-12.82-8.477-23.151-9.61L26.045 21zm2.661 16.59l-18.022-1.016a2.377 2.377 0 0 1-2.241-2.321V4.617a1.925 1.925 0 0 1 2.241-1.923l18.244 2.218c8.773 1.067 15.761 2.8 20.827 5.145a45.351 45.351 0 0 1 14.758 10.426c8.745 9.117 13.138 20.363 13.138 33.505 0 13.19-4.575 23.7-13.693 31.32a37.9 37.9 0 0 1-14.735 7.8c-4.843 1.358-11.548 1.784-20.517 1.28z"/><path class="a" d="M28.691 75.357l1.015.071a43.06 43.06 0 0 0 12.908-.674 21.884 21.884 0 0 0 8.445-4.426c5.169-4.373 7.672-10.262 7.672-18.023 0-7.849-2.48-14.246-7.611-19.587-4.575-4.724-11.756-7.657-21.414-8.7l-1.015-.109zm.015 21.651l-18.022-.979A5.262 5.262 0 0 1 5.719 90.9V4.29A4.261 4.261 0 0 1 10.684.039l18.244 2.253c9.059 1.119 16.325 2.944 21.652 5.423A48.125 48.125 0 0 1 66.2 18.794c9.255 9.674 13.9 21.556 13.9 35.412 0 13.921-4.839 25.035-14.486 33.12a40.227 40.227 0 0 1-15.624 8.287c-5.071 1.433-12.028 1.898-21.284 1.395zm-17.549-6.262l17.549 1.021c8.683.5 15.108.123 19.7-1.156A35.64 35.64 0 0 0 62.3 83.282c8.58-7.147 12.891-17.054 12.891-29.512 0-12.425-4.136-23.027-12.368-31.59A42.344 42.344 0 0 0 49 12.432c-4.871-2.245-11.582-3.884-20.068-4.9L11.157 5.406zm18.548-10.08l-6.316-.419V18.079l6.316.7c11 1.227 19.34 4.773 24.876 10.517 6.2 6.481 9.182 14.135 9.182 23.452 0 9.248-3.02 16.314-9.277 21.639a26.587 26.587 0 0 1-10.267 5.4 47.949 47.949 0 0 1-14.514.879z"/><path class="d" d="M275.062 113.355c-8.678-.449-16.3-4.584-22.6-12.352a43.749 43.749 0 0 1-9.6-28.045c0-9.552 2.712-17.911 8.024-24.8 6.484-8.359 14.869-11.948 24.847-10.757a29.97 29.97 0 0 1 15.529 7.105 2.094 2.094 0 0 1 .71 1.593v12.284a1.613 1.613 0 0 1-.821 1.5 1.284 1.284 0 0 1-1.519-.4c-4.639-5.225-9.515-8.161-14.5-8.7-5.592-.6-10.212 1.275-14.1 5.761-3.966 4.514-5.9 10.183-5.9 17.314a28.28 28.28 0 0 0 5.886 18.025c3.918 5.043 8.556 7.657 14.157 8.014a13.893 13.893 0 0 0 7.148-1.178 18.5 18.5 0 0 0 3.477-2.059 39.535 39.535 0 0 0 3.832-3.282 1.2 1.2 0 0 1 1.52-.141 1.96 1.96 0 0 1 .823 1.643v12.543a1.737 1.737 0 0 1-.721 1.479 26.956 26.956 0 0 1-16.192 4.453z"/><path class="a" d="M275.733 39.554c-9.423-1.107-17.333 2.292-23.433 10.179a37.423 37.423 0 0 0-7.559 23.385 41.272 41.272 0 0 0 9.028 26.416c5.925 7.319 13.107 11.232 21.294 11.671a25.476 25.476 0 0 0 15.185-4.1V95.549a39.766 39.766 0 0 1-3.49 2.95 19.935 19.935 0 0 1-3.728 2.227 15.335 15.335 0 0 1-7.854 1.328c-6.108-.377-11.173-3.223-15.458-8.727a30.739 30.739 0 0 1-6.428-19.618c0-7.737 2.112-13.9 6.432-18.8 4.253-4.892 9.307-6.933 15.416-6.265 5.226.571 10.3 3.535 15.11 8.782v-11.3a28.176 28.176 0 0 0-14.515-6.572zm-.672 75.95c-9.169-.456-17.229-4.814-23.9-13.019a46.25 46.25 0 0 1-10.18-29.685c0-10.1 2.87-18.939 8.488-26.205 6.866-8.833 15.732-12.612 26.264-11.335a31.679 31.679 0 0 1 16.394 7.521 4.646 4.646 0 0 1 1.566 3.521v12.256a3.584 3.584 0 0 1-1.811 3.317 2.849 2.849 0 0 1-3.361-.875c-4.325-4.86-8.827-7.582-13.384-8.063-5.075-.535-9.264 1.173-12.788 5.245-3.617 4.127-5.381 9.312-5.381 15.838a25.82 25.82 0 0 0 5.347 16.436c3.552 4.582 7.764 6.963 12.86 7.3a12.484 12.484 0 0 0 6.407-1.015l.064-.03a16.872 16.872 0 0 0 3.191-1.894 37.918 37.918 0 0 0 3.676-3.142 2.653 2.653 0 0 1 3.36-.309 4.351 4.351 0 0 1 1.82 3.634v12.524a3.851 3.851 0 0 1-1.59 3.268 28.4 28.4 0 0 1-17.041 4.708z"/><path class="e" d="M382.257 116.12a1.156 1.156 0 0 1-.867-.542l-26.483-38.393v32.606c0 .91-.567 1.616-1.267 1.575l-6.124-.352a1.618 1.618 0 0 1-1.285-1.736V52.816a1.506 1.506 0 0 1 .807-1.45 1.181 1.181 0 0 1 1.4.554l26.807 39.361v-31.7c0-.892.544-1.556 1.215-1.481l5.792.642a1.651 1.651 0 0 1 1.2 1.736v54.1a1.572 1.572 0 0 1-.751 1.447.908.908 0 0 1-.444.095z"/><path class="a" d="M353.372 72.069L382 113.656V60.661l-5.282-.576V96.27l-28.934-42.4v55.15l5.585.332zm28.885 45.995a2.566 2.566 0 0 1-1.919-1.2l-23.9-34.583v27.6c0 2.007-1.253 3.57-2.8 3.484l-6.124-.34c-1.567-.087-2.845-1.809-2.845-3.839V52.641a3.313 3.313 0 0 1 1.789-3.209 2.6 2.6 0 0 1 3.1 1.23l24.21 35.615V59.422c0-1.973 1.209-3.443 2.691-3.275l5.792.653c1.461.165 2.646 1.887 2.646 3.839v54.024a3.463 3.463 0 0 1-1.657 3.2 2 2 0 0 1-.983.201z"/><path class="f" d="M209.512 71.805a14.839 14.839 0 0 0-12.739 4.933c-3.547 3.731-5.276 8.422-5.276 14.333 0 6.213 1.789 11.269 5.452 15.439 3.641 4.168 7.686 6.3 12.36 6.525a15.061 15.061 0 0 0 12.579-5.261c3.4-3.808 5.043-8.447 5.043-14.191a22.807 22.807 0 0 0-4.981-14.86 17.075 17.075 0 0 0-12.438-6.918zm-.3 53.457c-7.168-.278-13.762-3.418-19.575-9.371-6.5-6.692-9.827-15.355-9.827-25.7 0-9.116 3.025-16.806 8.948-22.813a24.833 24.833 0 0 1 20.86-7.794c7.807.734 14.512 4.582 19.968 11.4A36.425 36.425 0 0 1 237.74 94.4c0 8.859-2.748 16.337-8.2 22.269a25.255 25.255 0 0 1-20.333 8.593z"/><path class="a" d="M209.512 74.08a13.172 13.172 0 0 0-11.3 4.387c-3.142 3.314-4.672 7.483-4.672 12.741a19.9 19.9 0 0 0 4.809 13.721c3.241 3.719 6.826 5.621 10.956 5.831a13.382 13.382 0 0 0 11.2-4.651A18.118 18.118 0 0 0 225 93.454a20.313 20.313 0 0 0-4.437-13.254 15.136 15.136 0 0 0-11.051-6.12zm-.305 53.458c-7.668-.283-14.717-3.619-20.926-9.961-6.994-7.178-10.57-16.458-10.57-27.522 0-9.783 3.247-18.028 9.6-24.454a26.516 26.516 0 0 1 22.3-8.289c8.347.8 15.507 4.924 21.326 12.208a38.947 38.947 0 0 1 8.694 25c0 9.464-2.932 17.458-8.757 23.806a26.963 26.963 0 0 1-21.667 9.212zm.407-65.677a23.143 23.143 0 0 0-19.414 7.292c-5.5 5.591-8.3 12.729-8.3 21.18 0 9.624 3.074 17.674 9.092 23.881 5.416 5.56 11.555 8.5 18.223 8.773A23.549 23.549 0 0 0 228.191 115c5.087-5.516 7.65-12.478 7.65-20.729a33.9 33.9 0 0 0-7.618-21.817c-5.093-6.354-11.342-9.923-18.609-10.593zm-.3 53.45c-5.219-.246-9.729-2.6-13.772-7.219-4.092-4.648-6.094-10.269-6.094-17.157 0-6.565 1.933-11.785 5.891-15.938a16.5 16.5 0 0 1 14.178-5.467c5.581.478 10.1 3.013 13.83 7.73a25.293 25.293 0 0 1 5.517 16.45c0 6.351-1.821 11.485-5.584 15.715a16.749 16.749 0 0 1-13.971 5.886z"/><path class="g" d="M113.642 63.43a18.006 18.006 0 0 0-14.89 5.239c-4.15 4.011-6.174 9.074-6.174 15.469a23.224 23.224 0 0 0 6.38 16.732c4.258 4.525 8.986 6.844 14.447 7.114a18.2 18.2 0 0 0 14.677-5.623c3.958-4.093 5.878-9.092 5.878-15.293a23.6 23.6 0 0 0-5.8-16.075 20.52 20.52 0 0 0-14.518-7.563zm-.356 57.767c-8.375-.327-16.086-3.748-22.891-10.213-7.619-7.273-11.514-16.67-11.514-27.869a32.379 32.379 0 0 1 10.486-24.632 30.2 30.2 0 0 1 24.394-8.257c9.112.86 16.93 5.07 23.286 12.468a37.751 37.751 0 0 1 9.5 25.315c0 9.555-3.2 17.608-9.55 23.983a30.521 30.521 0 0 1-23.711 9.208z"/><path class="a" d="M113.642 65.888a15.979 15.979 0 0 0-13.2 4.66c-3.676 3.563-5.466 8.062-5.466 13.75a20.656 20.656 0 0 0 5.624 14.868c3.79 4.038 7.98 6.111 12.8 6.359a16.18 16.18 0 0 0 13.065-4.969 18.634 18.634 0 0 0 5.236-13.639 21.021 21.021 0 0 0-5.167-14.341 18.2 18.2 0 0 0-12.892-6.688zm-.356 57.767c-8.959-.333-17.2-3.967-24.473-10.854-8.2-7.8-12.387-17.869-12.387-29.851 0-10.595 3.807-19.5 11.251-26.405a32.26 32.26 0 0 1 26.084-8.777c9.741.938 18.089 5.45 24.868 13.358a40.36 40.36 0 0 1 10.116 27.03c0 10.207-3.41 18.813-10.191 25.636a32.577 32.577 0 0 1-25.268 9.863zm.475-70.971a28.142 28.142 0 0 0-22.705 7.728 30.1 30.1 0 0 0-9.728 22.866c0 10.419 3.6 19.15 10.651 25.9 6.338 6.038 13.517 9.243 21.308 9.563a28.467 28.467 0 0 0 22.142-8.549c5.923-5.929 8.906-13.426 8.906-22.326a35.134 35.134 0 0 0-8.868-23.592c-5.937-6.895-13.223-10.806-21.706-11.59zm-.356 57.758c-6.1-.289-11.369-2.855-16.1-7.87-4.789-5.049-7.132-11.143-7.132-18.6 0-7.1 2.263-12.739 6.9-17.2a20.024 20.024 0 0 1 16.573-5.8 22.869 22.869 0 0 1 16.136 8.453 26.174 26.174 0 0 1 6.429 17.793c0 6.854-2.121 12.385-6.507 16.933a20.237 20.237 0 0 1-16.299 6.291z"/><path class="h" d="M318.625 66.469a11.6 11.6 0 0 0-10.5 4.424c-2.919 3.369-4.341 7.615-4.341 12.976 0 5.635 1.472 10.232 4.486 14.038 3 3.807 6.332 5.765 10.186 6.006a11.82 11.82 0 0 0 10.385-4.7c2.807-3.44 4.17-7.648 4.17-12.873a22.211 22.211 0 0 0-4.111-13.532c-2.776-3.862-6.13-5.937-10.275-6.339zm-.251 48.549c-5.909-.309-11.339-3.208-16.122-8.651-5.346-6.112-8.075-13.984-8.075-23.356 0-8.26 2.485-15.216 7.353-20.639 4.8-5.367 10.586-7.709 17.18-7 6.444.693 11.984 4.213 16.5 10.43a35.424 35.424 0 0 1 6.755 21.344c0 8.063-2.276 14.851-6.793 20.21-4.572 5.414-10.21 8.005-16.798 7.661z"/><path class="a" d="M318.625 68.535a10.3 10.3 0 0 0-9.31 3.933c-2.586 2.992-3.845 6.767-3.845 11.532a19.337 19.337 0 0 0 3.958 12.477c2.67 3.4 5.624 5.147 9.03 5.366A10.5 10.5 0 0 0 327.7 97.7a17.381 17.381 0 0 0 3.712-11.479 19.784 19.784 0 0 0-3.664-12.075c-2.46-3.426-5.439-5.26-9.123-5.611zm-.251 48.549c-6.321-.318-12.126-3.4-17.233-9.2-5.747-6.556-8.683-14.988-8.683-25.012 0-8.863 2.666-16.32 7.886-22.12 5.129-5.727 11.32-8.218 18.365-7.447 6.889.754 12.806 4.525 17.62 11.171a37.879 37.879 0 0 1 7.2 22.794c0 8.616-2.429 15.872-7.252 21.607-4.866 5.785-10.877 8.56-17.903 8.207zm.336-59.646c-6.143-.649-11.533 1.542-15.993 6.547-4.52 5.047-6.825 11.5-6.825 19.163 0 8.722 2.526 16.038 7.473 21.707 4.457 5.083 9.513 7.8 15.01 8.1 6.149.333 11.417-2.074 15.682-7.121 4.21-4.983 6.332-11.3 6.332-18.81a32.961 32.961 0 0 0-6.305-19.887c-4.214-5.796-9.376-9.066-15.375-9.7zm-.252 48.542c-4.3-.261-8.019-2.429-11.348-6.648-3.367-4.242-5.013-9.353-5.013-15.6 0-5.953 1.59-10.678 4.847-14.427 3.227-3.762 7.056-5.363 11.682-4.9 4.606.457 8.337 2.778 11.42 7.083a24.633 24.633 0 0 1 4.563 14.987c0 5.777-1.506 10.435-4.618 14.256-3.143 3.808-6.908 5.529-11.533 5.249z"/><path class="i" d="M157.184 124.75a20.606 20.606 0 0 1-11.089-3.811 2.125 2.125 0 0 1-.645-2.7l4.269-7.932a1.716 1.716 0 0 1 1.159-.885 1.736 1.736 0 0 1 1.419.353 9.026 9.026 0 0 0 4.886 2.211c2.421.116 3.25-.971 3.7-1.93.624-1.257 1.346-4 1.346-10.146V59.749a1.677 1.677 0 0 1 1.773-1.79l8.477.779a2.065 2.065 0 0 1 1.744 2.094v39.8a47.173 47.173 0 0 1-.964 11.118 17.759 17.759 0 0 1-3.426 7.333 14.672 14.672 0 0 1-12.649 5.667z"/><path class="a" d="M147.555 119.153a18.438 18.438 0 0 0 9.629 3.222 12.759 12.759 0 0 0 11.035-4.891 15.415 15.415 0 0 0 2.991-6.4 44.876 44.876 0 0 0 .9-10.571V61.051l-7.734-.7v39.676c0 5.388-.521 9.059-1.593 11.226-1.02 2.167-2.91 3.225-5.6 3.1a10.726 10.726 0 0 1-5.762-2.4zm9.629 7.972a22.689 22.689 0 0 1-12.227-4.177 4.726 4.726 0 0 1-1.429-5.983l4.283-7.941a3.8 3.8 0 0 1 2.567-1.955 3.855 3.855 0 0 1 3.137.785 7.127 7.127 0 0 0 3.668 1.753c1.4.07 1.61-.37 1.777-.723.35-.705 1.117-2.917 1.117-9.1v-40.23a3.711 3.711 0 0 1 3.928-3.957l8.477.8a4.573 4.573 0 0 1 3.849 4.63v39.729a49.434 49.434 0 0 1-1.041 11.734 19.89 19.89 0 0 1-3.854 8.2 16.563 16.563 0 0 1-14.252 6.435z"/><path class="j" d="M26.045 77.8l3.661.25a45.505 45.505 0 0 0 13.69-.766 24.291 24.291 0 0 0 9.375-4.915c5.716-4.85 8.481-11.33 8.481-19.836 0-8.585-2.734-15.611-8.395-21.518-5.058-5.236-12.82-8.477-23.151-9.61L26.045 21zm2.661 16.59l-18.022-1.016a2.377 2.377 0 0 1-2.241-2.321V4.617a1.925 1.925 0 0 1 2.241-1.923l18.244 2.218c8.773 1.067 15.761 2.8 20.827 5.145a45.351 45.351 0 0 1 14.758 10.426c8.745 9.117 13.138 20.363 13.138 33.505 0 13.19-4.575 23.7-13.693 31.32a37.9 37.9 0 0 1-14.735 7.8c-4.843 1.358-11.548 1.784-20.517 1.28zm-15.788-5.267l15.788.938c8.379.5 14.824.129 19.209-1.087a34.118 34.118 0 0 0 13.3-7.011c8.347-6.94 12.369-16.189 12.369-28.336 0-11.957-3.969-22.141-11.867-30.343a40.594 40.594 0 0 0-13.271-9.329C43.76 11.8 37.228 10.221 28.928 9.238l-16.01-1.9zm16.787-6.752l-5.852-.381a2.369 2.369 0 0 1-2.2-2.318V18.346a1.916 1.916 0 0 1 2.2-1.927l5.852.66c11.441 1.29 20.155 5.039 26 11.118a34.558 34.558 0 0 1 9.685 24.7c0 9.595-3.281 17.257-9.8 22.815a28.167 28.167 0 0 1-10.876 5.725 49.542 49.542 0 0 1-15.009.934z"/><path class="k" d="M275.733 40.953c-9.191-1.068-16.578 2.113-22.515 9.8a36 36 0 0 0-7.261 22.472 39.639 39.639 0 0 0 8.652 25.35c5.688 7.036 12.585 10.8 20.452 11.234a24.408 24.408 0 0 0 14.059-3.583V98.31q-.89.753-1.74 1.386a20.888 20.888 0 0 1-3.892 2.33 16.188 16.188 0 0 1-8.314 1.428c-6.348-.384-11.844-3.466-16.306-9.19a32.769 32.769 0 0 1-6.782-20.657c0-8.021 2.288-14.681 6.773-19.765 4.434-5.091 9.922-7.3 16.278-6.6 4.829.534 9.521 2.992 13.984 7.3v-7.736a26.742 26.742 0 0 0-13.388-5.853zm-.672 72.4c-8.678-.449-16.3-4.584-22.6-12.352a43.749 43.749 0 0 1-9.6-28.045c0-9.552 2.712-17.911 8.024-24.8 6.484-8.359 14.869-11.948 24.847-10.757a29.97 29.97 0 0 1 15.529 7.105 2.094 2.094 0 0 1 .71 1.593v12.286a1.613 1.613 0 0 1-.821 1.5 1.284 1.284 0 0 1-1.519-.4c-4.639-5.225-9.515-8.161-14.5-8.7-5.592-.6-10.212 1.275-14.1 5.761-3.966 4.514-5.9 10.183-5.9 17.314a28.28 28.28 0 0 0 5.886 18.025c3.918 5.043 8.556 7.657 14.157 8.014a13.893 13.893 0 0 0 7.148-1.178 18.5 18.5 0 0 0 3.478-2.059 39.535 39.535 0 0 0 3.832-3.282 1.2 1.2 0 0 1 1.52-.141 1.96 1.96 0 0 1 .823 1.643v12.543a1.737 1.737 0 0 1-.721 1.479 26.956 26.956 0 0 1-16.192 4.453z"/><path class="l" d="M353.64 71.313a1.292 1.292 0 0 1 .915.6l26.5 38.54V61.825l-3.379-.364v34.03a1.545 1.545 0 0 1-.761 1.441 1.067 1.067 0 0 1-1.329-.48L348.8 57.239v50.533l3.573.217V72.844a1.533 1.533 0 0 1 .8-1.457.964.964 0 0 1 .467-.074zm28.617 44.807a1.156 1.156 0 0 1-.867-.542l-26.483-38.393v32.606c0 .91-.567 1.616-1.267 1.575l-6.124-.352a1.618 1.618 0 0 1-1.285-1.736V52.816a1.506 1.506 0 0 1 .807-1.45 1.181 1.181 0 0 1 1.4.554l26.807 39.361v-31.7c0-.892.544-1.556 1.215-1.481l5.792.642a1.651 1.651 0 0 1 1.2 1.736v54.1a1.572 1.572 0 0 1-.751 1.447.908.908 0 0 1-.444.095z"/><path class="m" d="M209.512 71.805a14.839 14.839 0 0 0-12.739 4.933c-3.547 3.731-5.276 8.422-5.276 14.333 0 6.213 1.789 11.269 5.452 15.439 3.641 4.168 7.686 6.3 12.36 6.525a15.061 15.061 0 0 0 12.579-5.261c3.4-3.808 5.043-8.447 5.043-14.191a22.807 22.807 0 0 0-4.981-14.86 17.075 17.075 0 0 0-12.438-6.918zm-.3 53.457c-7.168-.278-13.762-3.418-19.575-9.371-6.5-6.692-9.827-15.355-9.827-25.7 0-9.116 3.025-16.806 8.948-22.813a24.833 24.833 0 0 1 20.86-7.794c7.807.734 14.512 4.582 19.968 11.4A36.425 36.425 0 0 1 237.74 94.4c0 8.859-2.748 16.337-8.2 22.269a25.255 25.255 0 0 1-20.333 8.593zm.407-61.921c-7.2-.654-13.252 1.611-18.483 6.966-5.295 5.393-7.884 11.984-7.884 20.116 0 9.285 2.831 16.724 8.613 22.7 5.161 5.307 11.005 8.119 17.348 8.385a22.156 22.156 0 0 0 18.107-7.594c4.914-5.319 7.287-11.76 7.287-19.724a31.84 31.84 0 0 0-7.266-20.78c-4.929-6.128-10.715-9.431-17.727-10.068zm-.3 53.45c-5.5-.253-10.444-2.824-14.689-7.665-4.316-4.894-6.518-11.054-6.518-18.281 0-6.9 2.122-12.616 6.286-16.977a17.805 17.805 0 0 1 15.123-5.819 20.558 20.558 0 0 1 14.718 8.251 27.271 27.271 0 0 1 5.872 17.492c0 6.652-1.992 12.267-5.942 16.712a18.066 18.066 0 0 1-14.86 6.288z"/><path class="n" d="M113.642 63.43a18.006 18.006 0 0 0-14.89 5.239c-4.15 4.011-6.174 9.074-6.174 15.469a23.224 23.224 0 0 0 6.38 16.732c4.258 4.525 8.986 6.844 14.447 7.114a18.2 18.2 0 0 0 14.677-5.623c3.958-4.093 5.878-9.092 5.878-15.293a23.6 23.6 0 0 0-5.8-16.075 20.52 20.52 0 0 0-14.518-7.563zm-.356 57.767c-8.375-.327-16.086-3.748-22.891-10.213-7.619-7.273-11.514-16.67-11.514-27.869a32.379 32.379 0 0 1 10.486-24.632 30.2 30.2 0 0 1 24.394-8.257c9.112.86 16.93 5.07 23.286 12.468a37.751 37.751 0 0 1 9.5 25.315c0 9.555-3.2 17.608-9.55 23.983a30.521 30.521 0 0 1-23.711 9.208zm.475-66.912a26.468 26.468 0 0 0-21.611 7.384c-6.2 5.8-9.235 12.912-9.235 21.716C82.915 93.437 86.232 101.5 93 108c6.039 5.764 12.873 8.828 20.283 9.141a26.784 26.784 0 0 0 21.12-8.125c5.723-5.717 8.485-12.654 8.485-21.246a33.008 33.008 0 0 0-8.46-22.471c-5.735-6.656-12.482-10.268-20.667-11.015zm-.356 57.758c-6.421-.3-12.205-3.1-17.171-8.355A27.814 27.814 0 0 1 88.6 83.872c0-7.463 2.485-13.638 7.359-18.326a21.616 21.616 0 0 1 17.679-6.175 24.7 24.7 0 0 1 17.185 9.029 28.22 28.22 0 0 1 6.841 18.918 25.013 25.013 0 0 1-6.922 18.006 21.827 21.827 0 0 1-17.337 6.719z"/><path class="o" d="M318.625 66.469a11.6 11.6 0 0 0-10.5 4.424c-2.919 3.369-4.341 7.615-4.341 12.976 0 5.635 1.472 10.232 4.486 14.038 3 3.807 6.332 5.765 10.186 6.006a11.82 11.82 0 0 0 10.385-4.7c2.807-3.44 4.17-7.648 4.17-12.873a22.211 22.211 0 0 0-4.111-13.532c-2.776-3.862-6.13-5.937-10.275-6.339zm-.251 48.549c-5.909-.309-11.339-3.208-16.122-8.651-5.346-6.112-8.075-13.984-8.075-23.356 0-8.26 2.485-15.216 7.353-20.639 4.8-5.367 10.586-7.709 17.18-7 6.444.693 11.984 4.213 16.5 10.43a35.424 35.424 0 0 1 6.755 21.344c0 8.063-2.276 14.851-6.793 20.21-4.572 5.414-10.21 8.005-16.798 7.661zm.335-56.235c-5.932-.619-10.92 1.416-15.225 6.253C299.131 69.9 297 75.866 297 83.237c0 8.416 2.326 15.177 7.081 20.632 4.247 4.852 9.061 7.446 14.29 7.736 5.947.329 10.831-1.895 14.956-6.77 4.066-4.8 6.031-10.65 6.031-17.9A30.957 30.957 0 0 0 333.347 68c-4.07-5.591-8.847-8.614-14.638-9.218zm-.251 48.543c-4.532-.269-8.608-2.638-12.1-7.06-3.558-4.466-5.364-10.066-5.364-16.62 0-6.253 1.745-11.43 5.171-15.367a13.913 13.913 0 0 1 12.46-5.221c4.838.486 8.924 3.035 12.162 7.56a26.562 26.562 0 0 1 4.857 15.937c0 6.051-1.648 11.146-4.914 15.162a14.183 14.183 0 0 1-12.272 5.608z"/><path class="p" d="M149.531 118.612a16.819 16.819 0 0 0 7.653 2.217 11.392 11.392 0 0 0 9.99-4.4 14.064 14.064 0 0 0 2.71-5.846 44.075 44.075 0 0 0 .851-10.155V62.456l-4.961-.44v38.1c0 5.64-.567 9.529-1.737 11.894a6.668 6.668 0 0 1-6.853 3.9 10.966 10.966 0 0 1-5.236-1.8zm7.653 6.138a20.606 20.606 0 0 1-11.089-3.811 2.125 2.125 0 0 1-.645-2.7l4.269-7.932a1.716 1.716 0 0 1 1.159-.885 1.736 1.736 0 0 1 1.419.353 9.026 9.026 0 0 0 4.886 2.211c2.421.116 3.25-.971 3.7-1.93.624-1.257 1.346-4 1.346-10.146V59.749a1.677 1.677 0 0 1 1.773-1.79l8.477.779a2.065 2.065 0 0 1 1.744 2.094v39.8a47.173 47.173 0 0 1-.964 11.118 17.759 17.759 0 0 1-3.426 7.333 14.672 14.672 0 0 1-12.649 5.667z"/><path class="q" d="M23.853 79.819l5.852.39a47.29 47.29 0 0 0 14.335-.844 26.131 26.131 0 0 0 10.141-5.321q9.166-7.8 9.145-21.33a32.146 32.146 0 0 0-9.038-23.108c-5.482-5.687-13.643-9.15-24.582-10.366l-5.852-.651zM10.684 91.183V4.886l18.245 2.189C37.505 8.1 44.2 9.745 49.075 11.993a42.821 42.821 0 0 1 14.04 9.887c8.364 8.7 12.506 19.32 12.506 31.927 0 12.645-4.317 22.565-13.035 29.831a35.819 35.819 0 0 1-14 7.4c-4.624 1.289-11.232 1.688-19.884 1.188z"/><path class="r" d="M21.687 12.6a3.564 3.564 0 0 1-4.1 3.576 4.7 4.7 0 0 1-4.125-4.525 3.565 3.565 0 0 1 4.125-3.573 4.706 4.706 0 0 1 4.1 4.522zm0 18.163a3.618 3.618 0 0 1-4.1 3.63 4.627 4.627 0 0 1-4.125-4.47 3.619 3.619 0 0 1 4.124-3.623 4.629 4.629 0 0 1 4.101 4.463zm0 18.166a3.674 3.674 0 0 1-4.1 3.684 4.551 4.551 0 0 1-4.126-4.413 3.674 3.674 0 0 1 4.125-3.682 4.553 4.553 0 0 1 4.101 4.411zm0 18.165a3.73 3.73 0 0 1-4.1 3.738 4.477 4.477 0 0 1-4.125-4.362 3.731 3.731 0 0 1 4.125-3.736 4.479 4.479 0 0 1 4.1 4.36zm0 18.166a3.788 3.788 0 0 1-4.1 3.792 4.4 4.4 0 0 1-4.125-4.307 3.788 3.788 0 0 1 4.125-3.791 4.406 4.406 0 0 1 4.1 4.306zm18.066 1.132a3.714 3.714 0 0 1-3.993 3.746 4.317 4.317 0 0 1-4.017-4.247 3.713 3.713 0 0 1 4.017-3.744 4.319 4.319 0 0 1 3.993 4.245zM69.323 70.7a3.538 3.538 0 0 1-3.823 3.623 4.246 4.246 0 0 1-3.843-4.2 3.538 3.538 0 0 1 3.843-3.617 4.248 4.248 0 0 1 3.823 4.194zm3.8-17.195a3.47 3.47 0 0 1-3.8 3.559 4.3 4.3 0 0 1-3.823-4.237 3.469 3.469 0 0 1 3.821-3.557 4.3 4.3 0 0 1 3.802 4.235zm-3.8-17.875a3.432 3.432 0 0 1-3.823 3.518 4.387 4.387 0 0 1-3.843-4.3 3.431 3.431 0 0 1 3.843-3.517 4.39 4.39 0 0 1 3.823 4.299zM56.23 21.4a3.444 3.444 0 0 1-3.9 3.511 4.506 4.506 0 0 1-3.92-4.385 3.444 3.444 0 0 1 3.92-3.509 4.508 4.508 0 0 1 3.9 4.383zm-16.477-6.719a3.494 3.494 0 0 1-3.993 3.535 4.61 4.61 0 0 1-4.017-4.459 3.494 3.494 0 0 1 4.017-3.532 4.612 4.612 0 0 1 3.993 4.456zm16.909 68.178a3.63 3.63 0 0 1-3.895 3.689 4.255 4.255 0 0 1-3.917-4.2 3.629 3.629 0 0 1 3.917-3.687 4.257 4.257 0 0 1 3.895 4.198z"/><path class="q" d="M290.548 45.943v12.294q-7.379-8.327-15.412-9.22-8.944-.975-15.193 6.185-6.322 7.18-6.333 18.535a30.574 30.574 0 0 0 6.333 19.34q6.274 8.062 15.231 8.6a14.99 14.99 0 0 0 7.758-1.315 19.46 19.46 0 0 0 3.657-2.185 40.7 40.7 0 0 0 3.959-3.4v12.563a25.652 25.652 0 0 1-15.486 4.24q-12.467-.664-21.528-11.8a41.506 41.506 0 0 1-9.121-26.692q0-13.71 7.643-23.634c6.2-8 14.113-11.4 23.679-10.277a28.43 28.43 0 0 1 14.813 6.766z"/><path class="r" d="M281.313 45.22a3.863 3.863 0 0 0 1.572 4.389 2.33 2.33 0 0 0 3.446-1.531 3.867 3.867 0 0 0-1.562-4.378 2.329 2.329 0 0 0-3.456 1.52zM268.8 43.094a3.891 3.891 0 0 0 1.607 4.442 2.385 2.385 0 0 0 3.523-1.541 3.894 3.894 0 0 0-1.6-4.43 2.384 2.384 0 0 0-3.53 1.529zm-11.262 3.769a3.9 3.9 0 0 0 1.64 4.48 2.445 2.445 0 0 0 3.593-1.569 3.9 3.9 0 0 0-1.629-4.468 2.444 2.444 0 0 0-3.604 1.557zm-7.838 9.915a3.885 3.885 0 0 0 1.662 4.5 2.5 2.5 0 0 0 3.643-1.611 3.889 3.889 0 0 0-1.652-4.485 2.5 2.5 0 0 0-3.653 1.596zm-3.507 13.953a3.852 3.852 0 0 0 1.672 4.49 2.543 2.543 0 0 0 3.665-1.66 3.855 3.855 0 0 0-1.662-4.478 2.542 2.542 0 0 0-3.675 1.648zm2.857 14.895a3.8 3.8 0 0 0 1.664 4.457 2.556 2.556 0 0 0 3.647-1.7 3.808 3.808 0 0 0-1.653-4.446 2.555 2.555 0 0 0-3.658 1.689zm6.73 11.743a3.76 3.76 0 0 0 1.645 4.415 2.545 2.545 0 0 0 3.6-1.73 3.763 3.763 0 0 0-1.634-4.4 2.544 2.544 0 0 0-3.611 1.715zm12.426 7.436a3.717 3.717 0 0 0 1.609 4.356 2.5 2.5 0 0 0 3.527-1.735 3.721 3.721 0 0 0-1.6-4.345 2.5 2.5 0 0 0-3.536 1.724zm12.234-1.311a3.7 3.7 0 0 0 1.574 4.311 2.437 2.437 0 0 0 3.451-1.712 3.7 3.7 0 0 0-1.565-4.3 2.435 2.435 0 0 0-3.46 1.701z"/><path class="q" d="M347.516 109.354V52.961L376.464 95.4V59.716l5.792.633v54.165L353.64 72.963v36.753z"/><path class="r" d="M348.66 103.542a2.9 2.9 0 0 0 1.122 3.272 1.719 1.719 0 0 0 2.462-1.3 2.9 2.9 0 0 0-1.117-3.265 1.718 1.718 0 0 0-2.467 1.293zm0-10.208a2.92 2.92 0 0 0 1.122 3.282 1.7 1.7 0 0 0 2.462-1.274 2.922 2.922 0 0 0-1.117-3.276 1.7 1.7 0 0 0-2.467 1.268zm0-10.207a2.943 2.943 0 0 0 1.122 3.293 1.691 1.691 0 0 0 2.462-1.25 2.946 2.946 0 0 0-1.117-3.287 1.69 1.69 0 0 0-2.467 1.244zm0-10.208a2.966 2.966 0 0 0 1.122 3.3A1.677 1.677 0 0 0 352.244 75a2.969 2.969 0 0 0-1.117-3.3 1.676 1.676 0 0 0-2.467 1.219zm0-10.208a2.99 2.99 0 0 0 1.122 3.315 1.664 1.664 0 0 0 2.462-1.2 2.993 2.993 0 0 0-1.117-3.309 1.662 1.662 0 0 0-2.467 1.194zM377.658 103a2.859 2.859 0 0 0 1.061 3.182c.936.528 1.978-.037 2.328-1.261a2.862 2.862 0 0 0-1.056-3.176c-.936-.534-1.981.027-2.333 1.255zm0-9.927a2.882 2.882 0 0 0 1.061 3.192c.936.537 1.978-.018 2.328-1.238a2.885 2.885 0 0 0-1.056-3.186c-.936-.541-1.981.009-2.333 1.232zm0-9.926a2.9 2.9 0 0 0 1.061 3.2c.936.547 1.978 0 2.328-1.215a2.907 2.907 0 0 0-1.056-3.2c-.936-.546-1.981-.005-2.333 1.215zm0-9.926a2.927 2.927 0 0 0 1.061 3.213c.936.556 1.978.021 2.328-1.193a2.93 2.93 0 0 0-1.056-3.207c-.936-.56-1.981-.034-2.333 1.187zm0-9.926a2.95 2.95 0 0 0 1.061 3.223c.936.565 1.978.04 2.328-1.17a2.953 2.953 0 0 0-1.056-3.217c-.936-.569-1.981-.049-2.333 1.164zm-22.501 8.138a2.961 2.961 0 0 0 1.108 3.285A1.653 1.653 0 0 0 358.7 73.5a2.964 2.964 0 0 0-1.1-3.279 1.651 1.651 0 0 0-2.443 1.212zm5.957 8.473a2.934 2.934 0 0 0 1.1 3.258c.967.558 2.042.008 2.4-1.228a2.936 2.936 0 0 0-1.09-3.251c-.967-.563-2.047-.017-2.41 1.221zm5.673 8.343a2.907 2.907 0 0 0 1.084 3.231c.956.548 2.02-.008 2.378-1.24a2.91 2.91 0 0 0-1.079-3.225c-.956-.552-2.023 0-2.383 1.234zm5.306 7.52a2.883 2.883 0 0 0 1.072 3.207c.946.538 2-.023 2.353-1.251a2.886 2.886 0 0 0-1.068-3.2c-.944-.543-2.001.013-2.357 1.244z"/><path class="q" d="M189.8 90.959q0 10.061 5.985 16.861 5.9 6.743 13.522 7.094a16.586 16.586 0 0 0 13.718-5.768q5.5-6.184 5.5-15.457a25.081 25.081 0 0 0-5.431-16.181 18.84 18.84 0 0 0-13.581-7.58 16.348 16.348 0 0 0-13.933 5.381q-5.769 6.052-5.78 15.65zm-8.274-.65q0-12.91 8.414-21.462a23.345 23.345 0 0 1 19.672-7.383q11.094 1.026 18.844 10.728a34.193 34.193 0 0 1 7.714 22.1q0 12.595-7.747 21a23.744 23.744 0 0 1-19.218 8.095q-10.18-.411-18.462-8.881-9.192-9.481-9.215-24.197z"/><path class="r" d="M218.411 68.709a3.159 3.159 0 0 0 1.418 3.719 2.167 2.167 0 0 0 3.109-1.368 3.161 3.161 0 0 0-1.41-3.711 2.166 2.166 0 0 0-3.117 1.36zm8.189 9.701a3.125 3.125 0 0 0 1.4 3.681 2.147 2.147 0 0 0 3.066-1.383 3.127 3.127 0 0 0-1.391-3.673 2.147 2.147 0 0 0-3.075 1.375zm3.507 13.612a3.089 3.089 0 0 0 1.39 3.654 2.154 2.154 0 0 0 3.048-1.415 3.091 3.091 0 0 0-1.382-3.646 2.153 2.153 0 0 0-3.056 1.407zm-2.384 12.491a3.064 3.064 0 0 0 1.4 3.647 2.184 2.184 0 0 0 3.06-1.45 3.066 3.066 0 0 0-1.388-3.639 2.182 2.182 0 0 0-3.072 1.442zm-8.212 9.902a3.054 3.054 0 0 0 1.415 3.661 2.234 2.234 0 0 0 3.1-1.487 3.056 3.056 0 0 0-1.407-3.653 2.233 2.233 0 0 0-3.108 1.479zm-12.926 3.401a3.066 3.066 0 0 0 1.446 3.7A2.3 2.3 0 0 0 211.2 120a3.068 3.068 0 0 0-1.438-3.688 2.294 2.294 0 0 0-3.177 1.504zm4.774-52.016a2.4 2.4 0 0 1-2.461 2.6 2.963 2.963 0 0 1-2.471-3.038 2.393 2.393 0 0 1 2.471-2.6 2.966 2.966 0 0 1 2.461 3.038zm-11.968 3.188a2.438 2.438 0 0 1-2.511 2.632 2.991 2.991 0 0 1-2.521-3.062 2.436 2.436 0 0 1 2.521-2.631 2.994 2.994 0 0 1 2.511 3.061zm-8.38 8.551a2.484 2.484 0 0 1-2.546 2.669 2.992 2.992 0 0 1-2.557-3.065 2.482 2.482 0 0 1 2.557-2.668 2.994 2.994 0 0 1 2.546 3.064zM188.465 90.2a2.522 2.522 0 0 1-2.557 2.7 2.962 2.962 0 0 1-2.568-3.045 2.52 2.52 0 0 1 2.568-2.7 2.964 2.964 0 0 1 2.557 3.045zm2.546 13.22a2.547 2.547 0 0 1-2.546 2.723 2.914 2.914 0 0 1-2.557-3.011 2.545 2.545 0 0 1 2.557-2.723 2.917 2.917 0 0 1 2.546 3.011zm8.032 10.374a2.548 2.548 0 0 1-2.512 2.727 2.858 2.858 0 0 1-2.523-2.969 2.546 2.546 0 0 1 2.523-2.726 2.861 2.861 0 0 1 2.512 2.968z"/><path class="q" d="M90.595 84.005a25.56 25.56 0 0 0 7.005 18.274q6.9 7.321 15.806 7.734a20.044 20.044 0 0 0 16-6.167 23.01 23.01 0 0 0 6.4-16.655 25.955 25.955 0 0 0-6.328-17.5 22.638 22.638 0 0 0-15.836-8.291 19.843 19.843 0 0 0-16.286 5.712q-6.749 6.507-6.761 16.893zM80.9 83.25a30.366 30.366 0 0 1 9.857-23.171 28.386 28.386 0 0 1 23-7.824q12.948 1.2 21.978 11.736a35.442 35.442 0 0 1 8.981 23.9q0 13.586-9.019 22.616a28.7 28.7 0 0 1-22.415 8.663q-11.894-.484-21.587-9.68Q80.931 99.185 80.9 83.25z"/><path class="r" d="M123.719 60.126a3.323 3.323 0 0 0 1.654 4.028A2.572 2.572 0 0 0 129 62.7a3.325 3.325 0 0 0-1.645-4.018 2.572 2.572 0 0 0-3.636 1.444zm9.549 10.539a3.284 3.284 0 0 0 1.629 3.984 2.544 2.544 0 0 0 3.573-1.472 3.285 3.285 0 0 0-1.62-3.975 2.544 2.544 0 0 0-3.582 1.463zm4.088 14.717a3.244 3.244 0 0 0 1.619 3.953 2.55 2.55 0 0 0 3.55-1.509 3.246 3.246 0 0 0-1.61-3.943 2.549 2.549 0 0 0-3.559 1.499zm-2.778 13.47a3.218 3.218 0 0 0 1.622 3.948 2.585 2.585 0 0 0 3.565-1.55 3.22 3.22 0 0 0-1.617-3.935 2.585 2.585 0 0 0-3.57 1.537zM125 109.5a3.209 3.209 0 0 0 1.651 3.96 2.649 2.649 0 0 0 3.619-1.592 3.211 3.211 0 0 0-1.641-3.951A2.649 2.649 0 0 0 125 109.5zm-15.093 3.624a3.225 3.225 0 0 0 1.69 4 2.728 2.728 0 0 0 3.703-1.624 3.226 3.226 0 0 0-1.68-3.993 2.728 2.728 0 0 0-3.713 1.617zm5.579-56.2a2.67 2.67 0 0 1-2.875 2.79 3.309 3.309 0 0 1-2.888-3.3 2.669 2.669 0 0 1 2.888-2.789 3.311 3.311 0 0 1 2.875 3.299zM101.5 60.279a2.724 2.724 0 0 1-2.938 2.828 3.347 3.347 0 0 1-2.951-3.333 2.723 2.723 0 0 1 2.951-2.827 3.349 3.349 0 0 1 2.938 3.332zm-9.815 9.188a2.779 2.779 0 0 1-2.983 2.87 3.352 3.352 0 0 1-3-3.337 2.778 2.778 0 0 1 3-2.869 3.354 3.354 0 0 1 2.983 3.336zM88.7 83.153a2.823 2.823 0 0 1-3 2.908 3.32 3.32 0 0 1-3.01-3.313 2.822 2.822 0 0 1 3.01-2.907 3.321 3.321 0 0 1 3 3.312zm2.985 14.324a2.849 2.849 0 0 1-2.983 2.934 3.265 3.265 0 0 1-3-3.273 2.848 2.848 0 0 1 3-2.933 3.266 3.266 0 0 1 2.983 3.272zm9.403 11.264a2.847 2.847 0 0 1-2.94 2.939 3.2 3.2 0 0 1-2.953-3.223 2.846 2.846 0 0 1 2.953-2.938 3.2 3.2 0 0 1 2.94 3.222z"/><path class="q" d="M302.392 83.757q0 9.123 4.924 15.329 4.859 6.158 11.142 6.532a13.018 13.018 0 0 0 11.327-5.147q4.552-5.587 4.545-14.022a24.428 24.428 0 0 0-4.491-14.742q-4.5-6.273-11.214-6.945a12.778 12.778 0 0 0-11.481 4.827q-4.744 5.466-4.752 14.168zm-6.8-.634q0-11.7 6.915-19.418 6.813-7.641 16.2-6.629 9.156.97 15.567 9.821a33.25 33.25 0 0 1 6.386 20.144q0 11.463-6.413 19.055-6.506 7.7-15.875 7.215-8.393-.452-15.206-8.2-7.556-8.652-7.574-21.987z"/><path class="r" d="M326.016 63.7a3.018 3.018 0 0 0 1.171 3.386 1.744 1.744 0 0 0 2.569-1.23 3.021 3.021 0 0 0-1.165-3.379 1.743 1.743 0 0 0-2.575 1.223zm6.766 8.849a2.988 2.988 0 0 0 1.156 3.355 1.732 1.732 0 0 0 2.537-1.244 2.991 2.991 0 0 0-1.151-3.348 1.731 1.731 0 0 0-2.542 1.237zm2.903 12.397a2.956 2.956 0 0 0 1.15 3.332 1.739 1.739 0 0 0 2.523-1.27 2.959 2.959 0 0 0-1.144-3.326 1.738 1.738 0 0 0-2.529 1.264zm-1.973 11.347a2.933 2.933 0 0 0 1.154 3.326 1.762 1.762 0 0 0 2.532-1.3A2.936 2.936 0 0 0 336.25 95a1.761 1.761 0 0 0-2.538 1.293zm-6.788 8.948a2.922 2.922 0 0 0 1.169 3.337 1.8 1.8 0 0 0 2.565-1.329 2.925 2.925 0 0 0-1.163-3.331 1.8 1.8 0 0 0-2.571 1.323zm-10.667 2.997a2.93 2.93 0 0 0 1.192 3.367 1.843 1.843 0 0 0 2.616-1.349 2.933 2.933 0 0 0-1.187-3.361 1.841 1.841 0 0 0-2.621 1.343zm3.938-47.215c0 1.411-.908 2.464-2.03 2.351a2.648 2.648 0 0 1-2.038-2.768c0-1.416.913-2.468 2.038-2.351a2.652 2.652 0 0 1 2.03 2.768zm-9.865 2.852c0 1.424-.925 2.489-2.067 2.378a2.668 2.668 0 0 1-2.075-2.788c0-1.429.93-2.494 2.075-2.378a2.672 2.672 0 0 1 2.067 2.788zm-6.897 7.725c0 1.433-.936 2.511-2.094 2.408a2.665 2.665 0 0 1-2.1-2.791c0-1.438.942-2.516 2.1-2.408a2.669 2.669 0 0 1 2.094 2.791zm-2.094 11.465a2.179 2.179 0 0 1-2.1 2.435 2.638 2.638 0 0 1-2.11-2.774c0-1.441.946-2.531 2.11-2.434a2.641 2.641 0 0 1 2.1 2.773zm2.094 12.003a2.2 2.2 0 0 1-2.094 2.453 2.6 2.6 0 0 1-2.1-2.746 2.2 2.2 0 0 1 2.1-2.453 2.6 2.6 0 0 1 2.094 2.746zm6.61 9.465a2.205 2.205 0 0 1-2.068 2.456 2.551 2.551 0 0 1-2.076-2.711 2.2 2.2 0 0 1 2.076-2.456 2.554 2.554 0 0 1 2.068 2.711z"/><path class="q" d="M172.483 60.674v39.854a45.753 45.753 0 0 1-.9 10.607 15.879 15.879 0 0 1-3.071 6.613 13.054 13.054 0 0 1-11.328 5.04 18.8 18.8 0 0 1-10.151-3.507l4.259-7.925a10.66 10.66 0 0 0 5.892 2.586q3.827.177 5.288-2.93 1.534-3.1 1.534-11v-40.1z"/><path class="r" d="M170.972 66.6a2.519 2.519 0 0 1-2.631 2.69 3.091 3.091 0 0 1-2.643-3.14 2.517 2.517 0 0 1 2.643-2.689 3.093 3.093 0 0 1 2.631 3.139zm0 11.868a2.547 2.547 0 0 1-2.631 2.715 3.054 3.054 0 0 1-2.643-3.114 2.546 2.546 0 0 1 2.643-2.714 3.057 3.057 0 0 1 2.631 3.113zm0 11.866a2.576 2.576 0 0 1-2.631 2.74 3.018 3.018 0 0 1-2.643-3.089 2.575 2.575 0 0 1 2.643-2.74 3.021 3.021 0 0 1 2.631 3.089zm0 11.866a2.606 2.606 0 0 1-2.631 2.766 2.982 2.982 0 0 1-2.641-3.066 2.6 2.6 0 0 1 2.643-2.765 2.985 2.985 0 0 1 2.629 3.065zm-2.961 12.242a2.646 2.646 0 0 1-2.644 2.8 2.956 2.956 0 0 1-2.656-3.044 2.644 2.644 0 0 1 2.656-2.8 2.958 2.958 0 0 1 2.644 3.044zm-9.751 3.738a2.686 2.686 0 0 1-2.686 2.829 2.977 2.977 0 0 1-2.7-3.06 2.685 2.685 0 0 1 2.7-2.829 2.979 2.979 0 0 1 2.686 3.06z"/><path class="s" d="M323.19 202.864a1.189 1.189 0 0 1-.971-.5l-29.7-38.293v34.556a1.661 1.661 0 0 1-1.423 1.784l-6.882.18a1.577 1.577 0 0 1-1.444-1.724V139a1.734 1.734 0 0 1 .907-1.608 1.29 1.29 0 0 1 1.578.465l30.086 39.343v-33.549a1.517 1.517 0 0 1 1.361-1.674l6.488.177a1.6 1.6 0 0 1 1.342 1.733v57.242a1.8 1.8 0 0 1-.841 1.6 1.125 1.125 0 0 1-.501.135z"/><path class="a" d="M290.8 158.79l32.11 41.491V144.2l-5.916-.15v38.3l-32.474-42.368v58.474l6.276-.152zm32.394 46.132a2.64 2.64 0 0 1-2.149-1.092l-26.8-34.484v29.244c0 2.127-1.407 3.9-3.142 3.945l-6.882.193c-1.762.05-3.2-1.661-3.2-3.813v-59.962a3.815 3.815 0 0 1 2.011-3.558 2.839 2.839 0 0 1 3.489 1.034l27.171 35.608v-28.428c0-2.089 1.354-3.749 3.015-3.7l6.488.189c1.635.048 2.962 1.766 2.962 3.832v57.156a3.969 3.969 0 0 1-1.855 3.532 2.484 2.484 0 0 1-1.112.304z"/><path class="t" d="M217.038 162.548l1.284.01c8.085.061 9.013-4.249 9.013-7.5 0-3.116-.962-7.278-9.347-7.447l-.95-.019zm-1.624 36.178l-7.858.181a1.73 1.73 0 0 1-1.65-1.845v-59.918a1.715 1.715 0 0 1 1.65-1.834l8.9.27a35.735 35.735 0 0 1 10.138 1.4 14.7 14.7 0 0 1 6.45 4.523 20.564 20.564 0 0 1 4.774 13.816c0 5.866-1.723 10.592-5.137 14.062-3.371 3.427-7.957 5.18-13.656 5.195l-1.983.005v22.239a1.807 1.807 0 0 1-1.628 1.906z"/><path class="a" d="M219 149.913V160.3c6.4-.146 6.4-3.332 6.4-5.261 0-1.678 0-4.724-6.4-5.126zm-3.585 51.076l-7.858.2a3.829 3.829 0 0 1-3.657-4.089v-60.014a3.8 3.8 0 0 1 3.655-4.054l8.9.287a37.312 37.312 0 0 1 10.646 1.516 16.635 16.635 0 0 1 7.283 5.12 22.944 22.944 0 0 1 5.326 15.393c0 6.525-1.936 11.806-5.773 15.716-3.724 3.795-8.731 5.743-14.913 5.771H219v19.945a4 4 0 0 1-3.586 4.209zm-7.51-4.368l7.166-.152v-24.144h3.951c5.216 0 9.38-1.563 12.4-4.622 2.988-3.03 4.5-7.2 4.5-12.4a18.168 18.168 0 0 0-4.213-12.227 12.778 12.778 0 0 0-5.616-3.935 34.176 34.176 0 0 0-9.634-1.291l-8.559-.25zm10.418-31.806l-3.252-.018v-19.505l2.918.064c7.5.166 11.274 3.44 11.274 9.732-.001 6.495-3.663 9.768-10.941 9.727z"/><path class="u" d="M170.156 184.768l11.425-.124-5.552-14.159zm31.852 26.56l-8.8.294a1.628 1.628 0 0 1-1.551-1.1l-5.229-13.465-21.4.453-5.817 14.1a1.861 1.861 0 0 1-1.624 1.2l-9.321.311a1.719 1.719 0 0 1-1.533-.863 2.114 2.114 0 0 1-.116-1.894l28.017-66.224a1.689 1.689 0 0 1 1.576-1.08h.012a1.787 1.787 0 0 1 1.569 1.175l25.732 64.382a2.123 2.123 0 0 1-.121 1.8 1.688 1.688 0 0 1-1.394.911z"/><path class="a" d="M173.452 182.388l4.937-.044-2.406-6.124zm28.555 31.229l-8.8.31a3.6 3.6 0 0 1-3.436-2.427l-4.7-12.092-18.665.431-5.228 12.7a4.129 4.129 0 0 1-3.586 2.646l-9.32.329a3.785 3.785 0 0 1-3.4-1.905 4.654 4.654 0 0 1-.256-4.192l28.107-66.308a3.746 3.746 0 0 1 3.49-2.386 3.97 3.97 0 0 1 3.491 2.6l25.652 64.3a4.682 4.682 0 0 1-.267 3.982 3.721 3.721 0 0 1-3.081 2.012zm-8.567-4.309l8.024-.252-25.264-63.085-27.333 64.739 8.477-.267 6.309-15.266 24.13-.464zm-8.685-22.377l-17.914.229 9.233-22.41z"/><path class="v" d="M251.542 185.8l9.967-.125-4.845-13.22zm27.818 24.818l-7.7.27a1.432 1.432 0 0 1-1.356-1.028l-4.568-12.587-18.667.426L242 210.862a1.634 1.634 0 0 1-1.414 1.114l-8.111.284a1.478 1.478 0 0 1-1.333-.806 2.1 2.1 0 0 1-.1-1.766l24.4-61.836a1.526 1.526 0 0 1 1.385-1.013 1.569 1.569 0 0 1 1.369 1.093l22.485 60.152a2.109 2.109 0 0 1-.106 1.686 1.473 1.473 0 0 1-1.215.848z"/><path class="a" d="M254.416 183.575l4.307-.046-2.1-5.717zm24.944 29.184l-7.7.284a3.164 3.164 0 0 1-3-2.271l-4.11-11.3-16.283.4-4.555 11.852a3.626 3.626 0 0 1-3.123 2.467l-8.111.3a3.254 3.254 0 0 1-2.953-1.779 4.619 4.619 0 0 1-.223-3.909l24.475-61.91a3.341 3.341 0 0 1 2.98-2.239h.087a3.479 3.479 0 0 1 3.024 2.419l22.419 60.082a4.649 4.649 0 0 1-.234 3.725 3.247 3.247 0 0 1-2.693 1.879zm-7.492-4.034l7.016-.232-22.068-58.935L233 210.012l7.377-.244 5.494-14.247 21.051-.44zm-7.588-20.914l-15.628.226L256.7 167.1z"/><path class="w" d="M120.861 224.544a25.562 25.562 0 0 1-14.337-3.668 2.056 2.056 0 0 1-.686-2.736l5.618-10.552a2.015 2.015 0 0 1 1.231-1 1.809 1.809 0 0 1 1.507.249 11.563 11.563 0 0 0 6.667 2.406c3.454-.1 4.651-1.818 5.25-3.1.835-1.7 1.808-5.344 1.808-13.255V141.8a1.887 1.887 0 0 1 1.873-1.96l11.06.275a1.972 1.972 0 0 1 1.835 2.029v50.525c0 6.278-.4 10.883-1.238 14.08a23.87 23.87 0 0 1-4.376 9.472 20.685 20.685 0 0 1-16.212 8.323z"/><path class="a" d="M108.077 218.915a23.384 23.384 0 0 0 12.784 3.185 18.454 18.454 0 0 0 14.506-7.383 21.276 21.276 0 0 0 3.92-8.487c.8-3.057 1.176-7.453 1.176-13.519v-50.194l-10.276-.236v50.566c0 6.741-.695 11.578-2.068 14.379-1.321 2.831-3.766 4.347-7.258 4.457a13.325 13.325 0 0 1-7.6-2.53zm12.784 8.074a27.694 27.694 0 0 1-15.549-3.946 4.573 4.573 0 0 1-1.521-6.055l5.637-10.565a4.468 4.468 0 0 1 2.726-2.22 4.015 4.015 0 0 1 3.333.558 9.52 9.52 0 0 0 5.373 2.034c2.449-.068 2.928-1.09 3.213-1.7.6-1.22 1.569-4.356 1.569-12.171v-51.172a4.175 4.175 0 0 1 4.149-4.334l11.06.3a4.366 4.366 0 0 1 4.05 4.487v50.435c0 6.494-.431 11.306-1.318 14.714a26.239 26.239 0 0 1-4.824 10.4 22.888 22.888 0 0 1-17.897 9.235z"/><path class="x" d="M291.1 157.964a1.33 1.33 0 0 1 1.028.551l29.72 38.456v-51.453l-3.785-.091v36.017a1.772 1.772 0 0 1-.852 1.593 1.166 1.166 0 0 1-1.489-.39l-30.066-39.177v53.573l4.015-.092V159.7a1.763 1.763 0 0 1 .895-1.614 1.189 1.189 0 0 1 .534-.122zm32.093 44.9a1.189 1.189 0 0 1-.971-.5l-29.7-38.293v34.556a1.661 1.661 0 0 1-1.423 1.784l-6.882.18a1.577 1.577 0 0 1-1.444-1.724V139a1.734 1.734 0 0 1 .907-1.608 1.29 1.29 0 0 1 1.578.465l30.083 39.343v-33.549a1.517 1.517 0 0 1 1.361-1.674l6.488.177a1.6 1.6 0 0 1 1.342 1.733v57.242a1.8 1.8 0 0 1-.841 1.6 1.125 1.125 0 0 1-.501.135z"/><path class="y" d="M217.038 162.548l1.284.01c8.085.061 9.013-4.249 9.013-7.5 0-3.116-.962-7.278-9.347-7.447l-.95-.019zm-1.624 36.178l-7.858.181a1.73 1.73 0 0 1-1.65-1.845v-59.918a1.715 1.715 0 0 1 1.65-1.834l8.9.27a35.735 35.735 0 0 1 10.138 1.4 14.7 14.7 0 0 1 6.45 4.523 20.564 20.564 0 0 1 4.774 13.816c0 5.866-1.723 10.592-5.137 14.062-3.371 3.427-7.957 5.18-13.656 5.195l-1.983.005v22.239a1.807 1.807 0 0 1-1.628 1.906zm-6.213-3.613l4.584-.091v-22.3a1.762 1.762 0 0 1 1.628-1.87h3.607c4.9 0 8.79-1.432 11.575-4.251 2.748-2.782 4.079-6.483 4.079-11.324a16.4 16.4 0 0 0-3.851-11.2 11.516 11.516 0 0 0-5.071-3.548 33.667 33.667 0 0 0-9.3-1.219l-7.25-.2zm9.12-28.827l-2.907-.013a1.772 1.772 0 0 1-1.628-1.878v-18.736a1.714 1.714 0 0 1 1.628-1.833l2.574.06c10.371.242 12.525 6.235 12.525 11.22 0 5.124-2.097 11.223-12.191 11.179z"/><path class="z" d="M170.156 184.768l11.425-.124-5.552-14.159zm31.852 26.56l-8.8.294a1.628 1.628 0 0 1-1.551-1.1l-5.229-13.465-21.4.453-5.817 14.1a1.861 1.861 0 0 1-1.624 1.2l-9.321.311a1.719 1.719 0 0 1-1.533-.863 2.114 2.114 0 0 1-.116-1.894l28.017-66.224a1.689 1.689 0 0 1 1.576-1.08h.012a1.787 1.787 0 0 1 1.569 1.175l25.732 64.382a2.123 2.123 0 0 1-.121 1.8 1.688 1.688 0 0 1-1.394.911zm-7.694-3.547l5.118-.155-23.25-57.995-25.074 59.454 5.329-.161 5.843-14.123a1.813 1.813 0 0 1 1.612-1.167l23.653-.426a1.669 1.669 0 0 1 1.562 1.125zm-10.114-19.33l-16.781.235a1.7 1.7 0 0 1-1.483-.874 2.118 2.118 0 0 1-.121-1.86l8.667-21.013a1.671 1.671 0 0 1 3.17.047l8.115 20.76a2.122 2.122 0 0 1-.137 1.817 1.7 1.7 0 0 1-1.43.888z"/><path class="aa" d="M251.542 185.8l9.967-.125-4.845-13.22zm27.818 24.818l-7.7.27a1.432 1.432 0 0 1-1.356-1.028l-4.568-12.587-18.667.426L242 210.862a1.634 1.634 0 0 1-1.414 1.114l-8.111.284a1.478 1.478 0 0 1-1.333-.806 2.1 2.1 0 0 1-.1-1.766l24.4-61.836a1.526 1.526 0 0 1 1.385-1.013 1.569 1.569 0 0 1 1.369 1.093l22.485 60.152a2.109 2.109 0 0 1-.106 1.686 1.473 1.473 0 0 1-1.215.848zm-6.728-3.321l4.475-.143-20.307-54.177-21.849 55.523 4.638-.148 5.089-13.179a1.593 1.593 0 0 1 1.4-1.09l20.635-.406a1.467 1.467 0 0 1 1.364 1.051zm-8.832-18.066l-14.64.23a1.468 1.468 0 0 1-1.293-.815 2.1 2.1 0 0 1-.105-1.736l7.557-19.631a1.518 1.518 0 0 1 1.379-1.049h.013a1.539 1.539 0 0 1 1.373 1.087l7.084 19.387a2.107 2.107 0 0 1-.12 1.7 1.477 1.477 0 0 1-1.248.827z"/><path class="ab" d="M110.172 218.211a21.876 21.876 0 0 0 10.69 2.3 16.814 16.814 0 0 0 13.4-6.79 19.775 19.775 0 0 0 3.626-7.892c.749-2.866 1.12-7.249 1.12-13.09v-48.686l-7.353-.16v48.93c0 7.092-.725 12.022-2.219 15.074a9.157 9.157 0 0 1-8.579 5.378 13.687 13.687 0 0 1-7.049-1.926zm10.69 6.333a25.562 25.562 0 0 1-14.337-3.668 2.056 2.056 0 0 1-.686-2.736l5.618-10.552a2.015 2.015 0 0 1 1.231-1 1.809 1.809 0 0 1 1.507.249 11.563 11.563 0 0 0 6.667 2.406c3.454-.1 4.651-1.818 5.25-3.1.835-1.7 1.808-5.344 1.808-13.255V141.8a1.887 1.887 0 0 1 1.873-1.96l11.06.275a1.972 1.972 0 0 1 1.835 2.029v50.525c0 6.278-.4 10.883-1.238 14.08a23.87 23.87 0 0 1-4.376 9.472 20.685 20.685 0 0 1-16.213 8.323z"/><path class="q" d="M284.215 198.836v-59.79l32.485 42.411v-37.771l6.488.166v57.314L291.1 159.713v38.953z"/><path class="r" d="M285.6 192.211a2.788 2.788 0 0 0 1.261 3.367 2.1 2.1 0 0 0 2.766-1.6 2.791 2.791 0 0 0-1.255-3.361 2.1 2.1 0 0 0-2.772 1.594zm0-10.821a2.812 2.812 0 0 0 1.261 3.38 2.08 2.08 0 0 0 2.766-1.57 2.814 2.814 0 0 0-1.255-3.373 2.078 2.078 0 0 0-2.772 1.563zm0-10.821a2.835 2.835 0 0 0 1.261 3.392 2.061 2.061 0 0 0 2.766-1.543 2.838 2.838 0 0 0-1.255-3.385 2.059 2.059 0 0 0-2.772 1.536zm0-10.821a2.859 2.859 0 0 0 1.261 3.4 2.042 2.042 0 0 0 2.766-1.516 2.861 2.861 0 0 0-1.255-3.4 2.04 2.04 0 0 0-2.772 1.516zm0-10.821a2.882 2.882 0 0 0 1.261 3.416 2.024 2.024 0 0 0 2.766-1.489 2.885 2.885 0 0 0-1.255-3.41 2.022 2.022 0 0 0-2.772 1.483zm32.533 40.116a2.75 2.75 0 0 0 1.188 3.273 1.968 1.968 0 0 0 2.607-1.542 2.753 2.753 0 0 0-1.182-3.266 1.966 1.966 0 0 0-2.613 1.535zm0-10.504a2.772 2.772 0 0 0 1.188 3.284 1.949 1.949 0 0 0 2.607-1.517 2.775 2.775 0 0 0-1.182-3.278 1.947 1.947 0 0 0-2.613 1.511zm0-10.505a2.8 2.8 0 0 0 1.188 3.3 1.931 1.931 0 0 0 2.607-1.491 2.8 2.8 0 0 0-1.182-3.289 1.929 1.929 0 0 0-2.613 1.48zm0-10.505a2.818 2.818 0 0 0 1.188 3.307 1.914 1.914 0 0 0 2.607-1.466 2.821 2.821 0 0 0-1.182-3.3 1.912 1.912 0 0 0-2.613 1.459zm0-10.505a2.841 2.841 0 0 0 1.188 3.319 1.9 1.9 0 0 0 2.607-1.441 2.844 2.844 0 0 0-1.182-3.312 1.894 1.894 0 0 0-2.613 1.434zM292.9 157.6a2.853 2.853 0 0 0 1.244 3.384 2.01 2.01 0 0 0 2.73-1.5 2.856 2.856 0 0 0-1.238-3.378 2.008 2.008 0 0 0-2.736 1.494zm6.685 8.459a2.825 2.825 0 0 0 1.229 3.354 2 2 0 0 0 2.7-1.512 2.828 2.828 0 0 0-1.223-3.348 2 2 0 0 0-2.706 1.506zm6.364 8.336a2.8 2.8 0 0 0 1.215 3.326 1.989 1.989 0 0 0 2.666-1.524 2.8 2.8 0 0 0-1.209-3.319 1.986 1.986 0 0 0-2.672 1.517zm5.951 7.492a2.774 2.774 0 0 0 1.2 3.3 1.979 1.979 0 0 0 2.637-1.534 2.777 2.777 0 0 0-1.2-3.293 1.977 1.977 0 0 0-2.637 1.527z"/><path class="q" d="M215.414 164.4l2.907.017c7.091.042 10.6-3.07 10.6-9.338 0-6.064-3.624-9.174-10.938-9.334l-2.574-.056zm0 8.315v24.138l-7.858.169v-59.831l8.9.256a34.778 34.778 0 0 1 9.718 1.309 13.048 13.048 0 0 1 5.761 4.033 18.512 18.512 0 0 1 4.316 12.511q0 8.018-4.609 12.694-4.642 4.706-12.621 4.721z"/><path class="r" d="M213.126 191.671a2.254 2.254 0 0 1-3.464.339 3.1 3.1 0 0 1-.245-3.97 2.253 2.253 0 0 1 3.466-.327 3.1 3.1 0 0 1 .243 3.958zm0-11.924a2.249 2.249 0 0 1-3.464.3 3.1 3.1 0 0 1-.245-3.972 2.249 2.249 0 0 1 3.466-.292 3.1 3.1 0 0 1 .243 3.964zm0-11.925a2.245 2.245 0 0 1-3.464.269 3.105 3.105 0 0 1-.245-3.975 2.245 2.245 0 0 1 3.466-.258 3.107 3.107 0 0 1 .243 3.964zm0-11.922a2.241 2.241 0 0 1-3.464.234 3.11 3.11 0 0 1-.245-3.977 2.241 2.241 0 0 1 3.466-.223 3.112 3.112 0 0 1 .243 3.966zm0-11.926a2.238 2.238 0 0 1-3.464.2 3.115 3.115 0 0 1-.245-3.98 2.238 2.238 0 0 1 3.466-.188 3.117 3.117 0 0 1 .243 3.968zm9.089.04a2.193 2.193 0 0 1-3.411.2 3.109 3.109 0 0 1-.241-3.949 2.193 2.193 0 0 1 3.413-.187 3.111 3.111 0 0 1 .239 3.936zm8.606 3.153a2.152 2.152 0 0 1-3.361.206 3.1 3.1 0 0 1-.237-3.919 2.152 2.152 0 0 1 3.363-.194 3.1 3.1 0 0 1 .235 3.907zm3.179 9.725a2.14 2.14 0 0 1-3.343.233 3.1 3.1 0 0 1-.236-3.907 2.139 2.139 0 0 1 3.345-.222 3.1 3.1 0 0 1 .234 3.896zm-3.179 9.647a2.158 2.158 0 0 1-3.361.261 3.1 3.1 0 0 1-.237-3.915 2.157 2.157 0 0 1 3.363-.25 3.1 3.1 0 0 1 .235 3.904zm-8.107 3.977a2.2 2.2 0 0 1-3.408.275 3.1 3.1 0 0 1-.241-3.942 2.2 2.2 0 0 1 3.41-.263 3.1 3.1 0 0 1 .239 3.93z"/><path class="q" d="M184.2 186.533l-8.136-20.782-8.645 20.991zm3.343 8.588l-23.653.463-6.307 15.265-9.321.3 27.944-66.156 25.8 64.448-8.8.28z"/><path class="r" d="M158.538 202.665a2.915 2.915 0 0 1-2.685 3.012 2.741 2.741 0 0 1-2.7-2.876 2.912 2.912 0 0 1 2.7-3.012 2.743 2.743 0 0 1 2.685 2.876zm5.336-11.735a2.864 2.864 0 0 1-2.662 2.973 2.755 2.755 0 0 1-2.673-2.889 2.862 2.862 0 0 1 2.673-2.973 2.757 2.757 0 0 1 2.662 2.889zm14.058 1.67a2.434 2.434 0 0 1-3.673.352 3.118 3.118 0 0 1-.259-4.088 2.433 2.433 0 0 1 3.675-.339 3.12 3.12 0 0 1 .257 4.075zm14.155-.242a2.36 2.36 0 0 1-3.589.347 3.109 3.109 0 0 1-.253-4.04 2.36 2.36 0 0 1 3.59-.335 3.11 3.11 0 0 1 .252 4.028zm4.265 11.222a2.343 2.343 0 0 1-3.563.379 3.1 3.1 0 0 1-.252-4.024 2.343 2.343 0 0 1 3.565-.367 3.1 3.1 0 0 1 .25 4.012zm-8.952-22.947a2.38 2.38 0 0 1-3.616.313 3.117 3.117 0 0 1-.255-4.059 2.379 2.379 0 0 1 3.618-.3 3.118 3.118 0 0 1 .253 4.046zm-4.349-10.81a2.4 2.4 0 0 1-3.643.282 3.124 3.124 0 0 1-.257-4.075 2.4 2.4 0 0 1 3.644-.27 3.126 3.126 0 0 1 .256 4.063zm-5.119-11.233a2.422 2.422 0 0 1-3.673.249 3.132 3.132 0 0 1-.259-4.1 2.422 2.422 0 0 1 3.675-.237 3.134 3.134 0 0 1 .257 4.088zm-5.163 11.05a2.452 2.452 0 0 1-3.7.284 3.131 3.131 0 0 1-.262-4.11 2.452 2.452 0 0 1 3.706-.271 3.132 3.132 0 0 1 .256 4.097zm-4.911 11.142a2.483 2.483 0 0 1-3.734.319 3.129 3.129 0 0 1-.264-4.124 2.482 2.482 0 0 1 3.736-.306 3.131 3.131 0 0 1 .262 4.111z"/><path class="q" d="M263.8 187.439l-7.1-19.406-7.539 19.612zm2.92 8.024l-20.635.438-5.493 14.246-8.111.271 24.343-61.777 22.536 60.209-7.7.257z"/><path class="r" d="M241.752 202.5a2.654 2.654 0 0 1-2.336 2.809 2.485 2.485 0 0 1-2.346-2.683 2.651 2.651 0 0 1 2.346-2.809 2.488 2.488 0 0 1 2.336 2.683zm4.648-10.949a2.61 2.61 0 0 1-2.318 2.775 2.5 2.5 0 0 1-2.327-2.694 2.607 2.607 0 0 1 2.327-2.776 2.5 2.5 0 0 1 2.318 2.695zm12.247 1.557a2.035 2.035 0 0 1-3.2.33 3.066 3.066 0 0 1-.226-3.817 2.035 2.035 0 0 1 3.2-.319 3.068 3.068 0 0 1 .226 3.806zm12.353-.236a1.979 1.979 0 0 1-3.134.325 3.059 3.059 0 0 1-.221-3.775 1.978 1.978 0 0 1 3.135-.315 3.061 3.061 0 0 1 .22 3.765zm3.728 10.489a1.966 1.966 0 0 1-3.113.353 3.052 3.052 0 0 1-.22-3.761 1.965 1.965 0 0 1 3.114-.343 3.054 3.054 0 0 1 .219 3.751zm-7.816-21.442a1.993 1.993 0 0 1-3.157.3 3.066 3.066 0 0 1-.223-3.791 1.993 1.993 0 0 1 3.158-.286 3.068 3.068 0 0 1 .222 3.777zm-3.799-10.094a2.007 2.007 0 0 1-3.178.269 3.073 3.073 0 0 1-.224-3.806 2.007 2.007 0 0 1 3.179-.258 3.075 3.075 0 0 1 .223 3.795zm-4.466-10.482a2.025 2.025 0 0 1-3.2.24 3.08 3.08 0 0 1-.226-3.823 2.024 2.024 0 0 1 3.2-.23 3.082 3.082 0 0 1 .226 3.813zm-4.885 10.328a2.05 2.05 0 0 1-3.23.271 3.078 3.078 0 0 1-.228-3.837 2.05 2.05 0 0 1 3.232-.26 3.08 3.08 0 0 1 .226 3.826zm-3.895 10.406a2.072 2.072 0 0 1-3.253.3 3.076 3.076 0 0 1-.23-3.848 2.072 2.072 0 0 1 3.254-.29 3.078 3.078 0 0 1 .229 3.838z"/><path class="q" d="M140.853 142.106v50.6q0 9.067-1.173 13.556a21.756 21.756 0 0 1-4 8.706 18.782 18.782 0 0 1-14.816 7.56 23.7 23.7 0 0 1-13.339-3.436l5.6-10.542a13.212 13.212 0 0 0 7.735 2.709q5.015-.156 6.925-4.255 2.006-4.092 2.006-14.148v-51.007z"/><path class="r" d="M138.846 150.146a3.509 3.509 0 0 1-3.431 3.645 3.652 3.652 0 0 1-3.45-3.762 3.506 3.506 0 0 1 3.45-3.645 3.655 3.655 0 0 1 3.431 3.762zm0 15.07a3.56 3.56 0 0 1-3.431 3.687 3.6 3.6 0 0 1-3.45-3.72 3.557 3.557 0 0 1 3.45-3.686 3.6 3.6 0 0 1 3.431 3.719zm0 15.071a3.611 3.611 0 0 1-3.431 3.728 3.548 3.548 0 0 1-3.45-3.679 3.608 3.608 0 0 1 3.45-3.728 3.551 3.551 0 0 1 3.431 3.679zm0 15.071a3.664 3.664 0 0 1-3.431 3.769 3.5 3.5 0 0 1-3.45-3.638 3.661 3.661 0 0 1 3.45-3.769 3.5 3.5 0 0 1 3.431 3.638zm-3.862 15.842a3.736 3.736 0 0 1-3.453 3.824 3.461 3.461 0 0 1-3.471-3.606 3.733 3.733 0 0 1 3.471-3.824 3.463 3.463 0 0 1 3.453 3.606zm-12.752 5.738a3.81 3.81 0 0 1-3.523 3.878 3.494 3.494 0 0 1-3.542-3.626 3.807 3.807 0 0 1 3.542-3.879 3.5 3.5 0 0 1 3.523 3.627z"/></svg>