<svg xmlns="http://www.w3.org/2000/svg" width="1095.088" height="387.304" viewBox="0 0 1095.088 387.304"><defs><style>.a{fill:#333}.b{fill:#132346}.c{fill:#ff301c}.d{fill:#ffb080}.e{fill:#141000}.f{fill:#083cad}.g{fill:#f0f}.h{fill:#ffcf02}.i{fill:#182030}.j{fill:#99b609}.k{fill:#42bcfc}.l{fill:#c1272d}.m{fill:#f33402}.n{fill:#fece02}.o{fill:#29abe2}.p{fill:#2e3192}.q{fill:#2c3243}.r{fill:#fece00}.s{fill:#180a19}.t{fill:#303622}.u{fill:#5eb2f4}.v{fill:#fafafa}.w{fill:#e1e3d9}.x{fill:#8c6239}.y{fill:#f86800}.z{fill:#34495e}.aa{fill:#3ba2e2}.ab{fill:#945c00}.ac{fill:#1e2f51}.ad{fill:#97ba1d}</style></defs><title>dojocon-people</title><path class="a" d="M31.372 251.243c.226-2.187-.6-3.568-1.58-5.488-.854-1.677-1.686-2.508-3.755-2.053a2.357 2.357 0 0 0-2.008 2.822.657.657 0 0 0 .858.565c-.059.339-.094.7-.123 1.087a6.825 6.825 0 0 1-1.216 4.167 3.345 3.345 0 0 0-.881 1.72 2.046 2.046 0 0 0 1.817 2.6c1.547.322 5.094.888 6.429-.123a1.457 1.457 0 0 0 .51-.969c.288-1.329-.194-2.947-.051-4.328zm21.354.963a5.489 5.489 0 0 0-2.758-1.834c-2.876-1.269-6.606-2.332-6.866-6.081-.045-.654-.9-1.153-1.4-.58-1.044 1.187-2.355 1.527-3.656 2.164-.371.182-.775.216-1.045.539-.016.019-.023.045-.037.065a.669.669 0 0 0-.46.54c-.232 1.174-1.364 3.81-.63 4.958.8 1.257 4.021 1.227 5.3 1.41a45.762 45.762 0 0 0 8.175.444c1.14-.042 2.627.219 3.377-.8a.807.807 0 0 0 0-.825z"/><path class="b" d="M24.042 246.561l-.388 1.814a.831.831 0 0 0 1.006 1c.042-.372.071-.765.1-1.2a11.4 11.4 0 0 1 .123-1.087.653.653 0 0 1-.841-.527zm29.507-54.772c-3.056-3.593-16.121-1.2-20.21-1.242a.769.769 0 0 0-.78.889.76.76 0 0 0-.789.789c.211 17.9-3.578 35.036-7.314 52.408a2.654 2.654 0 0 1 1.582-.929c2.069-.455 2.9.376 3.755 2.053a18.528 18.528 0 0 1 1.339 2.97 1.011 1.011 0 0 0 .04-.194c.089-.953.2-1.9.331-2.843a25.071 25.071 0 0 0 1.677-6.528c.335-1.911.6-3.814.917-5.7 1.587-5.765 3.541-11.436 5.326-17.159a5.92 5.92 0 0 0 .858 2.571 60.144 60.144 0 0 1-1.461 8.739c-1.792 7.062-3.379 13.535-2.784 20.9a.869.869 0 0 0 .03.1c.178-.62.361-1.192.44-1.591a.669.669 0 0 1 .46-.54c.015-.02.021-.046.037-.065.271-.322.674-.357 1.045-.539 1.3-.637 2.611-.977 3.656-2.164.5-.573 1.355-.074 1.4.58a5.341 5.341 0 0 0 .1.7c1.3-1.845 1.861-4.273 2.551-8.265 1.1-6.352 1.893-12.432 3.042-18.515.1-.482.182-.967.281-1.449.039-.194.082-.388.122-.582.26-1.25.543-2.5.823-3.741a96.65 96.65 0 0 1 1.78-6.591c.825-2.664 4.146-11.241 1.746-14.063z"/><path class="c" d="M52.718 187.788c-1.7-4.36-.382-13.532.745-18 .029-.116.066-.232.1-.348.052-.835.1-1.641.1-2.373a.831.831 0 0 1 .073-.349c-.018-.159-.039-.316-.046-.481a.7.7 0 0 1 .015-.108c-.887-1.085-2.234-1.8-2.754-3.175-.619-1.633.2-3.1 1.158-4.38l-.172-3.139a14.661 14.661 0 0 0-3.818-1.358 2.418 2.418 0 0 1-.456.273c-1.416.623-5.242-.858-6.355-1.819A2.306 2.306 0 0 1 41 152.2a8.78 8.78 0 0 1-1.8-1.073.844.844 0 0 0-.392-.166.8.8 0 0 0-.887-.092c-3.059 1.542-6.253.761-8.9 3.342a19.36 19.36 0 0 0-4.628 8.691c-.11.109-.224.218-.326.329-.712.777.445 1.941 1.16 1.16.019-.027.552-.292.634-.633.012-.05.03-.1.042-.155a3.527 3.527 0 0 1 .4-.33c.107-.341.2-.685.311-1.025a.785.785 0 0 1 .74-.567c2.409-.392 7.028-.139 6.373 3.565a4.708 4.708 0 0 1-1.275 2.182c.127.22.254.444.383.68.315-.082.627-.166.92-.265a48.9 48.9 0 0 0 5.294-2.156l.872-1.775a.779.779 0 0 1 .175-.226 34.535 34.535 0 0 0-.355-4.6c-.152-1.035 1.429-1.477 1.582-.436.18 1.228.291 2.454.355 3.683a2.925 2.925 0 0 0 .24.3l7.073-1.6c1.03-.233 1.466 1.35.436 1.582l-2.377.537a2.934 2.934 0 0 1 1.627.954.8.8 0 0 1 .134.9 1.482 1.482 0 0 1 .567.854.821.821 0 0 1 .017.188c.339.752-.747 1.323-1.363.835-.084-.067-.16-.142-.243-.21l-1.142-.385c-.423-.143-1.165-.731-.951-.17.008.021.024.042.033.063a21.823 21.823 0 0 1 2.384 2.244c.8.707-.355 1.813-1.16 1.16a16.645 16.645 0 0 1-2.324-2.076c-.137.289-.314.37-.689.562-.246.126-.5.032-.75.065a9.641 9.641 0 0 0-1.389.263 12.126 12.126 0 0 0-1.882.941.748.748 0 0 1-.613.1c-2.449 1.782-4.9 3.607-7.477 5.147-.094.056-.2.109-.3.164q-.013.542-.009 1.085c.031 4.2.843 8.286.7 12.485a1.713 1.713 0 0 0-.057.225.778.778 0 0 0-.041.074 5.876 5.876 0 0 0-.44 1.861.842.842 0 0 0 .6.791c.087.035.187.054.276.085a.753.753 0 0 1 .774-.822c4.052.038 16.909-2.3 20.118 1.148a.732.732 0 0 0 .274-1.068 21.938 21.938 0 0 1-1.006-2.827zm1.782-29.922v.055a3.665 3.665 0 0 0-.593-.057 3.533 3.533 0 0 1 .641.07c-.012-.024-.03-.043-.048-.068z"/><path d="M51.574 148.806l.534 9.766c.11-.147.22-.294.332-.436a.646.646 0 0 1 .98-.1.754.754 0 0 1 .489-.17 3.665 3.665 0 0 1 .593.057 5.581 5.581 0 0 0-.094-1.632q0-1.619-.006-3.239c0-1.364.319-3.118-.081-4.422-.378-1.231-1.739-1.9-2.654-.787a.839.839 0 0 0-.091.954z"/><path class="d" d="M53.689 166.234c.007.164.028.322.046.481a.831.831 0 0 0-.073.349v.083a2.328 2.328 0 0 0 2.425-.985.814.814 0 0 1 .147-.145.9.9 0 0 0-.082-.118c.307-1.957.73-3.993.027-5.761a2.046 2.046 0 0 0-2.267-2.274.754.754 0 0 0-.489.17.646.646 0 0 0-.98.1c-1.08 1.383-2.18 3-1.489 4.816.52 1.37 1.866 2.09 2.754 3.175a.7.7 0 0 0-.019.109zm-4.7-5.188l-7.073 1.6a2.925 2.925 0 0 1-.24-.3 39.479 39.479 0 0 0-.355-3.683c-.153-1.041-1.734-.6-1.582.436a34.535 34.535 0 0 1 .355 4.6.779.779 0 0 0-.175.226l-.872 1.775a48.9 48.9 0 0 1-5.294 2.156 22.636 22.636 0 0 1-2.288.593c.959-.937 2.053-2.02 2.26-3.19.655-3.7-3.964-3.956-6.373-3.565a.785.785 0 0 0-.741.567c-.9 2.818-1.724 5.658-2.439 8.529a.928.928 0 0 0-.178.664c-.462 1.658-1.12 3.5-.174 5.029a.71.71 0 0 0 .05.057c-.355.559.346 1.488 1.15 1.14l3.6-1.559a.694.694 0 0 0 .318-.271 12.567 12.567 0 0 0 2.886-1.245c2.577-1.54 5.028-3.365 7.477-5.147a.748.748 0 0 0 .613-.1 12.126 12.126 0 0 1 1.882-.941 9.641 9.641 0 0 1 1.389-.263c.254-.032.5.061.75-.065.375-.192.552-.273.689-.562a16.645 16.645 0 0 0 2.324 2.076c.805.653 1.964-.453 1.16-1.16a21.823 21.823 0 0 0-2.384-2.244c-.009-.021-.025-.042-.033-.063-.214-.561.528.028.951.17l1.142.385c.083.068.158.143.243.21.616.488 1.7-.082 1.363-.835a.821.821 0 0 0-.017-.188 1.482 1.482 0 0 0-.567-.854.8.8 0 0 0-.134-.9 2.934 2.934 0 0 0-1.627-.954l2.377-.537c1.033-.233.598-1.82-.432-1.587zm9.35 9.578c-.378-.969-.837-1.965-1.337-3.028a3.976 3.976 0 0 1-3.406 1.2c-.145 2.5-.422 5.38.495 7.476.456 1.043 1.907 3.63 3.378 3.821a.829.829 0 0 0 1.245-.438c.018-.056.029-.108.046-.163a3.391 3.391 0 0 0 .52-1.707c1.592-2.044.551-4.693-.94-7.161z"/><path d="M53.051 168.7a4.032 4.032 0 0 0 4.449-1.71c.591-.879-.83-1.7-1.417-.828a2.344 2.344 0 0 1-2.6.952.821.821 0 0 0-.436 1.582z"/><path class="d" d="M52.026 139.214a2.725 2.725 0 0 0-.8-1.6c-1.032-.071-2.034-.314-3.082-.293a3.384 3.384 0 0 0-1.8.406c-.872.587-.579 1.075-.966 1.817-.254.487-.843.844-1.028 1.356a3.934 3.934 0 0 0 .085 1.722 7.723 7.723 0 0 1 .053 2.683c-.2 1.037-1.784.6-1.582-.436a3.72 3.72 0 0 0 .044-.961.838.838 0 0 1-1.12-.5q-1.6.356-1.119 1.579a7.377 7.377 0 0 0 .128.734 1.939 1.939 0 0 1 .662 1.385c.013 1.885-1.917 3.938-.2 5.419 1.113.961 4.94 2.442 6.355 1.819a1.838 1.838 0 0 0 .974-.892c.21-.56-.5-1.316-.391-1.621.471-1.332 2.345-1.345 3.37-2.294l-.04-.735v-.01a.839.839 0 0 1 .091-.954 1.523 1.523 0 0 1 .653-.475 25.839 25.839 0 0 0-.341-3.6 16.7 16.7 0 0 0 .054-4.549zm-5.086-.553v-.012h.007z"/><path class="e" d="M52.525 136.027c-.014-.021-.021-.045-.038-.065A8.643 8.643 0 0 0 43 133.184a.923.923 0 0 0-.6.673 9.008 9.008 0 0 0-3.967 1.585 4.243 4.243 0 0 0-1.848 2.722 2.765 2.765 0 0 0-.459 3.146.829.829 0 0 0 1.582 0 8.132 8.132 0 0 1 .521-1.131 9.27 9.27 0 0 0 1.379 7.9c.412.6 1.627.471 1.529-.414a27.816 27.816 0 0 0-.227-1.554 7.365 7.365 0 0 1-.2-1.12q-.479-1.223 1.119-1.579a.838.838 0 0 0 1.12.5 3.72 3.72 0 0 1-.044.961c-.2 1.031 1.379 1.473 1.582.436a7.723 7.723 0 0 0-.053-2.683 3.934 3.934 0 0 1-.085-1.722c.185-.512.774-.869 1.028-1.356.387-.741.094-1.23.966-1.817a3.384 3.384 0 0 1 1.8-.406c1.366-.028 2.655.4 4.035.3a.851.851 0 0 0 .347-1.598zm92.875 38.281a3.824 3.824 0 0 1-2.084-1.1.779.779 0 0 0 .216-.342 10.847 10.847 0 0 0-2.621-10.722c-2.69-2.5-7.029-1.966-10.209-.808-2.185.8-7.411 2.8-7.651 5.465-.064.71.64 3.286 1.244 3.454a5.41 5.41 0 0 1 1.2.736c1.273 1.367 5.455 3.439 5.559 5.365a.656.656 0 0 0 .564.647 19.668 19.668 0 0 1-.576 4.387c-.167.816.837 1.107 1.341.617a11.487 11.487 0 0 0 3.6-7.379c.9 1.379.5 3.528.589 5a.767.767 0 0 0 1.512.059c.736-3.768 4.457-3.771 7.257-3.864.892-.034.865-1.346.059-1.515z"/><path class="f" d="M148.966 183.383a.779.779 0 0 0 .057-.34 3.409 3.409 0 0 0-2.349-3.107c-.53-.171-6.462 1.016-9.429 1.767a.667.667 0 0 0-.109.053.592.592 0 0 0-.776.415c-1.18 3.72-5 5.414-6.718 8.807-.1.2-.192.414-.287.621-3.326 4.444-6.409 9.889-6.77 14.839a.856.856 0 0 0 .264.682 5.042 5.042 0 0 0-.338.621c1.531-.666 3.049-1.374 4.537-2.191a12.618 12.618 0 0 0 1.8-2.05c.879-2.206 1.946-5.432 2.312-6.728.018-.064.042-.124.06-.189.042-.154.612-1.949 1.257-3.935a9.123 9.123 0 0 1 .546-3.286 4.165 4.165 0 0 1 1.477-1.9 11.816 11.816 0 0 0 3.116-4.319.767.767 0 0 0 .171-.009c3.953-1 2.384-1.863 6.741 1.48 3.962 3.04 3.661 3.122 2.975 7.5a30.24 30.24 0 0 1-3.752 11.1c-1.8 2.969-3.884 5.43-5.011 8.541a.728.728 0 0 0-.289-.008 7.347 7.347 0 0 1-7.1-1.175c-1.962.962-4.832 1.146-6.844 1.606-1.092.25-2.187.482-3.281.718-.415 2.961-.456 5.863-1.259 8.894a.723.723 0 0 0-.069.052l-7.78 8.72c-1.586 1.777-4.586 3.96-5.347 6.194-.911 2.675.369 3.82 1.772 6.172a55.114 55.114 0 0 1 4.183 8.643c.029.085.057.169.091.251.25.667.5 1.333.726 2.013.33 1 .527 3.532 1.581 4.243 1.707 1.151 5.668-.787 7.392-1.207a.765.765 0 0 0 .487-.786 43.183 43.183 0 0 0-2.7-10.166c-.427-1.073-1.245-2.414-1.805-3.663-.031-.282-.08-.559-.106-.843a.682.682 0 0 0-.387-.571c-.016-.072-.041-.148-.052-.218-.59-3.663 1.522-4.7 4.318-6.033.112-.053.219-.107.33-.161.912 2.716.784 5.669 1.64 8.433a45.682 45.682 0 0 1 1.254 5.009c-.4 2.169-1.927 6.488-1.424 7.882.8 2.23 4.882 2.422 6.788 2.072 4.1-.753 3.417-2.417 2.889-6.065-.64-4.425-1.549-8.832-1.123-13.324.331-3.485 1.065-6.969 1.6-10.427a.709.709 0 0 0-.091-.477c.331-.309.654-.626.963-.952a.661.661 0 0 0 .714-.256 11.423 11.423 0 0 0 1.338-2.257 21.563 21.563 0 0 0 3.855-10.91.775.775 0 0 0-.192-.582c4.944-8.246 12.488-19.869 8.154-29.193z"/><path class="d" d="M137.315 183.855a.593.593 0 0 0 .534-.436c.037-.109.053-.219.082-.328-.05.013-.09.026-.141.039a.767.767 0 0 1-.171.009c-.091.25-.194.487-.304.716zm-4.1-2.087a5.1 5.1 0 0 0 2.329-1.578 6.66 6.66 0 0 0 .82 1.182l-.151 1.2c.051-.134.106-.265.151-.4a.592.592 0 0 1 .776-.415.667.667 0 0 1 .109-.053c1.392-.353 3.435-.8 5.269-1.159a.855.855 0 0 0-.022-.145 11.979 11.979 0 0 1-.411-2.985c0-.143.135-.736.26-1.379-1.973.312-3.773 1.152-4.26 3.649a.767.767 0 0 1-1.512-.059c-.089-1.47.313-3.619-.589-5a11.436 11.436 0 0 1-3.345 7.11 1.349 1.349 0 0 0 .572.033zm-5.993-5.308a4.821 4.821 0 0 0 .365.583 3.861 3.861 0 0 0 .4.9 26.287 26.287 0 0 0 3.065 2.736c.037.029.075.061.112.092a16.966 16.966 0 0 0 .452-3.772.656.656 0 0 1-.564-.647c-.094-1.742-3.519-3.6-5.114-4.954a6.114 6.114 0 0 0 .431 3.96 3.08 3.08 0 0 0 .849 1.103zm5.809 12.9c-.748 1.655-.387 3.949-.784 5.718a26.524 26.524 0 0 1-3.058 7.977 12.277 12.277 0 0 1-2.135 2.5c-4.357 2.392-8.956 3.886-13.449 5.941-2.271 1.039-5.07 2.292-5.808 4.84a.6.6 0 0 0 .136.578 4.8 4.8 0 0 0-.277 1.682c-.007.643.763.8 1.206.546a22.118 22.118 0 0 0 5.088-3.921 10.365 10.365 0 0 0 .875-.86.664.664 0 0 0 .092-.158c3.207-.636 6.409-1.3 9.6-2.027 2.284-.522 5.676-.686 7.587-2.039 1.467-1.038 2.086-3.681 2.782-5.207l5.093-11.167a.756.756 0 0 0 .07-.344.707.707 0 0 0 .133-.476c-.282-3.537-4.767-8.867-7.156-3.583zM120.5 258.293c-.013-.254-.019-.509-.028-.763a10.694 10.694 0 0 1-4.48.852 16.619 16.619 0 0 0 .538 2.223 14.82 14.82 0 0 0 .47 1.635c.007.08.024.159.034.238.409.375.816.753 1.258 1.09q2.153 2.474 3.66-.259c-.324-1.251-.918-2.41-1.208-3.682a14.055 14.055 0 0 1-.244-1.334zm10.361.973a.705.705 0 0 0 .092-.251l.205-1.261c-.1.021-.194.044-.3.064a10.506 10.506 0 0 1-4.374-.211c.027.355.054.713.075 1.077a37.8 37.8 0 0 1-.433 4.242 3.219 3.219 0 0 0 .514 2.023l.232.058a6.122 6.122 0 0 0 3.731-.311c.208-.071.452-.168.7-.259-.012-.752-.353-1.622-.416-2.307a18.487 18.487 0 0 1-.025-2.864z"/><path class="g" d="M135.944 183.188c-2.137.972-3.769 2.443-4.16 4.932 1.504-1.567 3.2-2.968 4.16-4.932zm-3.7 11.891a14.369 14.369 0 0 0 .239-2.432 312.163 312.163 0 0 0-1.257 3.935c-.018.065-.041.125-.06.189-.366 1.3-1.433 4.522-2.312 6.728.108-.151.231-.287.332-.445a26.524 26.524 0 0 0 3.056-7.975zm18.131-9.578c-.284-2.568-1.069-4.8-2.659-5.885a.8.8 0 0 0-1.164.308.6.6 0 0 1 .124.013 3.409 3.409 0 0 1 2.349 3.107.779.779 0 0 1-.057.34c2.328 5.013 1.223 10.69-1.062 16.148a16.6 16.6 0 0 0 1.185-2.514 29.232 29.232 0 0 0 1.406-8.594 1.522 1.522 0 0 0 .05-.354 15.443 15.443 0 0 0-.174-2.57zm-5.842-.891c-4.357-3.343-2.788-2.48-6.741-1.48a.767.767 0 0 1-.171.009 11.816 11.816 0 0 1-3.116 4.319c2.406-1.494 5.445 2.593 5.67 5.482a.707.707 0 0 1-.133.476.756.756 0 0 1-.07.344l-5.093 11.167c-.7 1.526-1.315 4.169-2.782 5.207a5.4 5.4 0 0 1-.743.432 7.347 7.347 0 0 0 7.1 1.175.728.728 0 0 1 .289.008c1.126-3.112 3.211-5.572 5.011-8.541a30.24 30.24 0 0 0 3.752-11.1c.686-4.377.987-4.46-2.975-7.499zm-11.464 79.03c-.206-.95-1.727-.812-1.519.146.038.174.071.352.107.528-.374.108-.749.278-1.055.382a6.122 6.122 0 0 1-3.731.311 5.912 5.912 0 0 0-2.359-.284.748.748 0 0 0-.351.148 10.2 10.2 0 0 0 0-2.518 6.05 6.05 0 0 0-.077-.591c-.18-.958-1.7-.822-1.519.146q-1.662 4.663-4.276 1.66a18.285 18.285 0 0 1-1.727-1.5c-.529-.274-.682-.6-1.239-.635a5.076 5.076 0 0 0-2.172.752 19.73 19.73 0 0 1-6.445 1.612c-2.486.238-4.3 1.173-2.006 3.853 3.425 4 11.159 2.422 15.694 3.269 1.071.2 2.055.71 2.98-.033a3.391 3.391 0 0 0 .852-2.374 4.207 4.207 0 0 0 .992.472c1.141.4 2.294.761 3.44 1.142a10.909 10.909 0 0 0 1.52.479 1.891 1.891 0 0 0 .72.564c1.326.5 1.995-1.161 2.281-2.133a7.188 7.188 0 0 0 .244-1.255.89.89 0 0 0 .048-.714 14.672 14.672 0 0 0-.402-3.427z"/><path class="h" d="M208.26 167.671a.584.584 0 0 0-.683-.538 12.909 12.909 0 0 0-.927-2.1 5.719 5.719 0 0 0-3.353-2.714c-2.057-.683-4.1.5-3.687-2.5.132-.962-1.339-1.375-1.472-.406-.013.1-.027.185-.04.276a.752.752 0 0 0-.092.083c-1.554 2.083-4.249 2.932-5.731 5.072a7.226 7.226 0 0 0-1.044 3.018 11.289 11.289 0 0 1-.558 1.863 45.462 45.462 0 0 0 .405-6.141.768.768 0 0 0-.808-1.184c-2.854.777-6.146 1.137-7.431 4.165-1.685 3.972-1.2 9.559-1.2 13.773a.768.768 0 0 0 1.332.494c.009 0 .016.007.025.008a8.057 8.057 0 0 1 1.7.39c.022.007.039 0 .06.007.141.2.262.388.372.577a55.748 55.748 0 0 1 .445 6.8v.022q-.054 1.294-.021 2.594c-.021.083-.034.167-.057.25a1.556 1.556 0 0 0-.046.629.71.71 0 0 0 .666.992 1.6 1.6 0 0 0 1.873-.076l.191-.008a4.15 4.15 0 0 1 2.47-1.229c4.1-.628 8.646-.238 12.819 0a.778.778 0 0 1 .972-.151.766.766 0 0 0-.253-.646c.537-1.054.393-2.574.458-3.627a64.258 64.258 0 0 0 .029-6.789l4.39-.4a1.046 1.046 0 0 0 .775-1.061q-.794-5.714-1.579-11.443z"/><path class="a" d="M184.926 253.069l-.019.458c-.032.8-5.99 1.516-7.824 1.1a1.4 1.4 0 0 1-1.146-1.149.794.794 0 0 1-.726-.938l.088-.447a.721.721 0 0 0-.22.147c-.6.606-.76 1.451-1.306 2.079-2.02 2.325-2.631.8-4.779 1.273a2.531 2.531 0 0 0-2.1 1.889.769.769 0 0 0 .533.939 14.161 14.161 0 0 0 3.053.285.77.77 0 0 0 .189.057c3.74.358 7.074-1.142 10.706-1.4h.115c3.508.032 3.951 0 3.915-3.614a.69.69 0 0 0-.479-.679zm-1.435 2.04l-.03-.005.04-.007zm16.922 1.6c1.71 1.548-5.446-1.73-6.932-3.19a8.1 8.1 0 0 0-1.667 2.864c-.536 1.142-1.876 1.633-2.106 2.874a.773.773 0 0 0 .736.966 33.827 33.827 0 0 0 4.2-.238 8.037 8.037 0 0 0 2-.688c1.741.091 3.664-.053 4.169-1.781.053-.181.1-.386.144-.605a.779.779 0 0 1-.544-.199z"/><path class="i" d="M207.753 203.828c.388-3.439-1.978-7.007-2.706-10.337a.658.658 0 0 1-.436.123 30.4 30.4 0 0 0-8.317.577c-.958.2-1.368-1.269-.406-1.472a31.913 31.913 0 0 1 8.722-.631.774.774 0 0 1 .241.065.739.739 0 0 0-.048-.072.8.8 0 0 0-1.338-.283c-4.173-.239-8.723-.629-12.819 0a4.321 4.321 0 0 0-2.978 1.809.7.7 0 0 0-.16.173c.74 0 1.479.027 2.219.093a.786.786 0 0 1 .248.073l.047-.007c.961-.162 1.374 1.308.406 1.472a7.213 7.213 0 0 1-4.083-.13c-.018-.008-.03-.021-.047-.029a10.212 10.212 0 0 0-2.456 2.036c-.963 1.417-.927 3.519-1.146 5.138-.79 5.83-3.95 18.038-4.049 18.651-.415 2.578-.781 8.246-.805 8.63a126.658 126.658 0 0 1-1.673 15.566c-.3 1.609-1.3 4.556-.816 6.548-.047.241-.1.482-.143.722a.794.794 0 0 0 .726.938 1.4 1.4 0 0 0 1.146 1.149c1.834.415 7.791-.3 7.824-1.1a167.469 167.469 0 0 1 1.444-18.389 1.428 1.428 0 0 0 .1-.593c1.1-6.887 3.089-13.537 6.858-18.948.342 1.969.3 15.772 1.458 20.419-.191 1.774-2.967 14.084-1.522 17.2.57 1.229 9.013 5.159 7.172 3.493a.773.773 0 0 0 1.3-.54c.068-2.717.923-12.352.836-12.777a45.433 45.433 0 0 0 .394-8.981c-.172-2.721-.629-5.369-.952-8.01.169-3.266.444-6.5.89-9.679.13-.932 4.638-10.855 4.869-12.897zm-13.582-9.128a.764.764 0 0 1-.141.147 1.913 1.913 0 0 1-2.551-.321.773.773 0 0 1 .54-1.3l2.037-.025a.757.757 0 0 1 .115 1.499z"/><path class="d" d="M211.29 183.578a12.678 12.678 0 0 0-1.412-3.938l-.063-.228a.964.964 0 0 1-.058.169.772.772 0 0 1-.695.605l-4.39.4c0 .076 0 .153.005.23a34.261 34.261 0 0 1 2.152 3.1c-.068 1.01-.224 2.032-.336 3.057-.287 2.647-.428 5.555-.977 8.162.391 1.161.887 2.343 1.319 3.531a5.8 5.8 0 0 0 1.415-1.586l.007-.032c1.095-1.2 1.269-3.96 1.4-6.164A22.508 22.508 0 0 0 210 188.1c.439-1.537 1.427-2.88 1.29-4.522zm-3.155-2.9c-.023-.092-.06-.178-.086-.269l.1.018c-.001.086-.012.173-.015.254z"/><path class="a" d="M204.611 192.087a31.913 31.913 0 0 0-8.722.631c-.962.2-.552 1.673.406 1.472a30.4 30.4 0 0 1 8.317-.577c.982.065.975-1.461-.001-1.526zm-10.555 1.107l-2.037.025a.773.773 0 0 0-.54 1.3 1.913 1.913 0 0 0 2.551.321 1.106 1.106 0 0 0 .026-1.648zm-4.033.743l-.047.007a.786.786 0 0 0-.248-.073 26.209 26.209 0 0 0-3.179-.091.767.767 0 0 0-.2 1.5 7.213 7.213 0 0 0 4.083.13c.968-.164.553-1.635-.408-1.473z"/><path class="e" d="M199.789 148.795c-.942-2.867-3.973-3.689-6.635-4.171-2.937-.532-5.456-.236-7.034 2.55-1.2 2.116-1.709 3.972 1.077 4.344a45.365 45.365 0 0 0 6.472.257.717.717 0 0 0 .318.16c.081.018.151.045.226.068q.337.268.7.5c.551 1.251.934 2.6 1.459 3.885-.361.623-.7 1.211-.969 1.744a.792.792 0 0 0 1 1.082.755.755 0 0 0 1.452.025c.036-.108.068-.219.1-.328a.729.729 0 0 0 1.044-.671l.012-3.573a7.687 7.687 0 0 0 .778-5.872z"/><path class="d" d="M188.542 161.572a3.065 3.065 0 0 0 1.852-.077c-.061.3-.1.606-.133.91h.009a.768.768 0 0 1 .808 1.184 45.462 45.462 0 0 1-.405 6.141 11.289 11.289 0 0 0 .558-1.863 7.226 7.226 0 0 1 1.044-3.018c1.312-1.895 3.573-2.781 5.153-4.405a2.239 2.239 0 0 0-.085-.689.782.782 0 0 1-.942-.536.792.792 0 0 1-1-1.082c.266-.534.608-1.122.969-1.744-.525-1.28-.908-2.634-1.459-3.885q-.362-.236-.7-.5c-.076-.022-.146-.049-.226-.068a.717.717 0 0 1-.318-.16 45.365 45.365 0 0 1-6.472-.257 4.355 4.355 0 0 1-.861-.2c-.733.267-.918.781-.906 1.612.026 1.77.932 3.674 1.453 5.343.319 1.022.478 2.859 1.661 3.294z"/><path d="M298.583 152.1a.953.953 0 0 0 .215-.495 2.422 2.422 0 0 0-.283-1.46c.563-1.421-.915-2.859-1.719-3.938a.95.95 0 0 0-.561-.362A8.237 8.237 0 0 0 295 144.26c-1.613-2.3-3.882-3.383-7.272-1.084-.133.09-.265.209-.4.313-6.449.2-6.514 7.032-4.673 11.608a2.755 2.755 0 0 0 .312.728.862.862 0 0 0 .73.448 5.426 5.426 0 0 0 .745 2.877.952.952 0 0 0 1.758-.476 6.859 6.859 0 0 0-.256-2.861 6.506 6.506 0 0 0 1.445 1.624.947.947 0 0 0 .952 0 2.751 2.751 0 0 0 1.255-1.666.994.994 0 0 0 .278-.257 1.531 1.531 0 0 0 .235-1.255l.017-.047c.211-.538.471-1.1.737-1.684a.828.828 0 0 0 .749.4l4.816-.057c.15.476.3.953.456 1.426a.952.952 0 0 0 1.819 0 3.1 3.1 0 0 0-.12-2.197z"/><path class="d" d="M285.115 162.353a14.918 14.918 0 0 0 7.234 2.816 1.671 1.671 0 0 0 .6-.526 1.563 1.563 0 0 1 .228-.561 3.774 3.774 0 0 0-.515-2.21c-.317-.639 1.394-1.536 2.332-1.507a14.238 14.238 0 0 0 .818-1.675c.361-.49 1.129-1.987 1.324-2.35a4.972 4.972 0 0 0 .488-1.4.939.939 0 0 1-.744-.646c-.155-.473-.306-.949-.456-1.426l-4.816.057a.828.828 0 0 1-.749-.4c-.266.58-.526 1.146-.737 1.684l-.017.047a1.531 1.531 0 0 1-.235 1.255.994.994 0 0 1-.278.257 2.751 2.751 0 0 1-1.255 1.666.947.947 0 0 1-.952 0 6.464 6.464 0 0 1-1.42-1.592l-.008.032a6.874 6.874 0 0 1 .24 2.8.955.955 0 0 1-1.422.787l-.322.423a.906.906 0 0 0-.649.994c.432.49.86.988 1.311 1.475zm2.37 17.754c-.448-.74-.074-2.247-.018-3.051.006-.092.011-.19.015-.285a6.556 6.556 0 0 0-3.014.233l-1.4.232a34.69 34.69 0 0 1-4.715-.351c1.3-1.7 3.066-4 2.83-6.006-.119-1.016-1.92-2.988-1.916-3 .392-1.029-1.814-.809-1.891-.816-2.273-.221-2.455 2.692-2.789 4.256-.477 2.236-2.293 9.041-1.932 9.473a5.885 5.885 0 0 0 0 .635.985.985 0 0 0 .693.91 8.041 8.041 0 0 0 3.54.155c.013 0 .029-.006.043-.006.951-.128 1.887-.327 2.684-.5.228-.049.449-.12.675-.176a14.393 14.393 0 0 0 4.293-.8 1.033 1.033 0 0 0 .37.076 7.132 7.132 0 0 0 2.4-.336.919.919 0 0 0 .454-.3 1.444 1.444 0 0 1-.322-.343zm17.896-.7a3.136 3.136 0 0 0-1-1.357 1.029 1.029 0 0 0-1.471.235 11.824 11.824 0 0 0-1.835-.175 2.034 2.034 0 0 1-.3-.195.952.952 0 0 0-1.158-.059c.091 1.308.141 3.275-1.237 3.92a3.1 3.1 0 0 1-1.064.24.809.809 0 0 0 .617.235l2.013-.156a2.87 2.87 0 0 0 .04.508 2.952 2.952 0 0 0 .623 1.353.954.954 0 0 0 .059.078.833.833 0 0 0 .076.076 2.652 2.652 0 0 0 1.752.871 2.347 2.347 0 0 0 1.136-.2.85.85 0 0 0 .664-.281 5.91 5.91 0 0 0 .337-.383.818.818 0 0 0 .778-.672c.014-.06.026-.126.039-.188a2.287 2.287 0 0 0 .393-1.7 2.739 2.739 0 0 0-.462-2.15z"/><path class="j" d="M278.482 197.1a3.729 3.729 0 0 0-.546.043 2.343 2.343 0 0 0 .546-.043zm-1.1-30.034c.078.008 2.284-.213 1.891.816 0 .01 1.8 1.982 1.916 3 .236 2.007-1.528 4.31-2.83 6.006a34.69 34.69 0 0 0 4.715.351l1.4-.232a6.556 6.556 0 0 1 3.014-.233c0 .1-.009.193-.015.285a3.4 3.4 0 0 1 .434-1.941 1.448 1.448 0 0 1 .143-.137.843.843 0 0 1 1.123-.7c.281.092.559.163.838.228.052.012.1.025.151.041 2.3.505 4.522.213 6.848.631a5.824 5.824 0 0 1 1.071.284c.182-3.251.4-6.488.609-9.681a.812.812 0 0 0-.157-.545 3.454 3.454 0 0 0-.517-1.6c-.663-1.106-1.99-1.783-2.462-2.994-.333-.854-3.294.4-2.886 1.227a3.774 3.774 0 0 1 .515 2.21 1.563 1.563 0 0 0-.228.561 1.671 1.671 0 0 1-.6.526 14.918 14.918 0 0 1-7.234-2.816c-.61-.659-1.19-1.346-1.769-1.995a1.006 1.006 0 0 0-1.768-.282c-1.191 1.7-2.781 2.446-4.305 3.745-1.281 1.091-2.074 2.845-2.951 4.251a.876.876 0 0 0 .515 1.319 1.13 1.13 0 0 0 .1.166c.311-1.339.888-2.642 2.436-2.492zm20.415 14.892c-1.6.332-3.935-.443-5.374-.635-1.2-.16-3.569.006-4.613-.866a.919.919 0 0 1-.454.3 7.132 7.132 0 0 1-2.4.336 1.033 1.033 0 0 1-.37-.076 14.393 14.393 0 0 1-4.293.8c-.226.056-.447.127-.675.176-.8.172-1.733.371-2.684.5-.014 0-.03.007-.043.006a12.844 12.844 0 0 1-1.525.109c.047.334.091.669.162.99a.943.943 0 0 0-.035.124c-.462 4.544 1.628 8.846 1.1 13.383-.124 1.073-.018.238 1.34.043-.084-.02 0-.088.564-.264.213.21 7.47 1.778 10.134.406 2.2.865 9.675.414 9.553-.795a113.138 113.138 0 0 1-.389-14.537z"/><path d="M299.609 177.762c-.123-1.7-.939-2.285-2.6-2.584-2.326-.418-4.55-.126-6.848-.631a1.98 1.98 0 0 0-.151-.041 9.955 9.955 0 0 1-.838-.228.843.843 0 0 0-1.123.7 1.448 1.448 0 0 0-.143.137 3.4 3.4 0 0 0-.434 1.941c-.056.8-.43 2.311.018 3.051.773 1.276 3.6 1.036 4.935 1.215 1.625.218 4.395 1.184 5.957.453 1.406-.659 1.318-2.707 1.227-4.013z"/><path class="k" d="M277.728 243.892c.161-.81.347-1.582.427-2.183a1.051 1.051 0 0 1 1.5-.779 5.364 5.364 0 0 1 3.291-2.29 3.126 3.126 0 0 1 2.715.774 45.2 45.2 0 0 0 .733-8.677 101.567 101.567 0 0 1 1.483-12.945c.147 2.767.327 5.533.572 8.3-1.154 4.407-2.241 9.844-1.013 13.065a.913.913 0 0 1 1.27.854c0 .116-.014.259-.024.4a1.26 1.26 0 0 1 1.14.1c1.3-.617 2.164-2.8 3.853-2.82a1.885 1.885 0 0 0 .184-.749 24.279 24.279 0 0 0-.889-6.131c-.1-4.749 1.033-9.537 1.542-14.284.6-5.555.862-11.114.932-16.695a1.76 1.76 0 0 0 .625-2.376c-2.352.4-6.005.394-7.436-.169-2.664 1.372-9.921-.2-10.134-.406-.562.177-.648.245-.564.264a3.729 3.729 0 0 1 .546-.043 2.343 2.343 0 0 1-.546.043 2.952 2.952 0 0 0-.775.217 1.83 1.83 0 0 0-.48 1.188c-.214 4.5 1.85 8.169 2.948 12.324-.031.238-.046.474-.081.713-.022.178-.05.355-.071.534a1.5 1.5 0 0 0 .683 1.462c.009.074.023.145.031.219.049.448.088.889.121 1.328-.081.455-.143.911-.232 1.366a1.864 1.864 0 0 0 .338 1.528c-.012 5.939-1.38 11.288-2.657 17.371-.438 2.08-1.335 6.318-.032 8.497z"/><path class="a" d="M298.365 245.668c-1.574-.9-3.839-1.51-3.507-3.87.1-.722.81-1.267.825-2.074a1.967 1.967 0 0 0-1.926-2.046c-1.744-.05-2.612 2.2-3.932 2.83a1.26 1.26 0 0 0-1.14-.1c.01-.142.022-.285.024-.4a.944.944 0 0 0-1.887 0c-.03 1.366-.437 3.433-.085 4.978l-.059-.1a9.635 9.635 0 0 1-.473-2.325 8.8 8.8 0 0 0-.116-2.5 2.8 2.8 0 0 0-3.14-1.423 5.364 5.364 0 0 0-3.291 2.29 1.051 1.051 0 0 0-1.5.779c-.21 1.576-1.15 4.321-.445 5.86.676 1.476 3.038 2.538 4.378 3.252 1.536.818 7.424 3.184 7.794-.153a1.923 1.923 0 0 0-.164-.925.947.947 0 0 0-.066-.772c-.271-.51-.46-1.153-.746-1.7 1.271.519 2.824.8 3.766 1.234 1.78.828 3.66 2.347 5.747 2.1 1.059-.128 2.383-.814 2.428-2.036.045-1.349-1.492-2.334-2.485-2.899z"/><path d="M341.231 179.91c-.379-.71-1.253-.629-1.963-.582a20.274 20.274 0 0 0-3.082-.18c-1.486-.1-3.315-.537-4.77-.189a.936.936 0 0 0-.659.659 2.812 2.812 0 0 0-.071.616c-.006.031-.024.053-.028.086-.125 1.072-.624 3.109.039 4.082.486.713 1.569.54 2.3.582l5.35.3c.963.055 2.113.331 2.74-.573a1.5 1.5 0 0 0 .2-1.326c.113-.985.43-2.563-.056-3.475z"/><path class="l" d="M332.754 238.425a11.978 11.978 0 0 0-3.82-.023.961.961 0 0 0-.857 1.3c-.925 1.754.2 3.617 1.634 4.726 1.4 1.086 3.881 2.464 5.669 1.511 2.309-1.231.347-3.865-.58-5.286-.545-.838-1.033-1.898-2.046-2.228zm13.177 3.86a5.056 5.056 0 0 1-1.2-2.431c-.267-1.724-5.134-2.148-5.25-1.066-.009.083-.016.17-.024.255a.938.938 0 0 0-.25 1.157l.172.351a4.69 4.69 0 0 0 1.216 3.487 3.7 3.7 0 0 0 .924.657 1.729 1.729 0 0 0 .654.509 5.749 5.749 0 0 0 2.666.134 1.667 1.667 0 0 0 1.486-1.163 2.13 2.13 0 0 0-.394-1.89z"/><path class="m" d="M342.841 240.047l.015.023c-.005-.09-.01-.101-.015-.023zm4.459-31.557a1.093 1.093 0 0 1-.533-.126c-3.167-.723-6.357-1.386-9.5-2.2a25.256 25.256 0 0 1-3.245-1.025c-1.52-.622-2.962-1.931-4.636-2.072a1.026 1.026 0 0 1-.286-.067 2.123 2.123 0 0 0-.042.242c-.511 5.648.909 11.607.588 17.209-2.037 3.8-3.621 9.36-2.782 13.6a9.711 9.711 0 0 0 .142 3.966 1.634 1.634 0 0 0 1.03 1.216.907.907 0 0 1 .894-.83 11.978 11.978 0 0 1 3.82.023 3.015 3.015 0 0 1 1.517 1.381 1.891 1.891 0 0 0 1.077-1.666 27.11 27.11 0 0 0-.192-5.123c-.43-4.309.362-8.1 1.22-12.274l2.026-9.859c.271.651.521 1.3.756 1.959l.262 11.758a1.77 1.77 0 0 0 .636 1.376c-.043.574-.077 1.1-.085 1.538-.054 2.85-2.038 8.01-.985 10.38a4.151 4.151 0 0 0 .511.845c.257-1.007 4.865-.59 5.214 1.063a3.5 3.5 0 0 0 1.215-1.32c1.627-3.053-.459-8.807-.6-12.007-.224-4.969 1.513-9.595 2.29-14.447a5.789 5.789 0 0 0-.312-3.54z"/><path class="d" d="M350.607 204.805a.938.938 0 0 0-.4-.32c0-.03.008-.062.009-.092a12.762 12.762 0 0 0-.219-2.808v-.024a8.453 8.453 0 0 0-.067-1.322 26.522 26.522 0 0 0 .024-3.7c.027-.144.056-.289.073-.431a4.882 4.882 0 0 0-.5-3.013c-.026-.322-.05-.644-.077-.967l-2-.061a11.367 11.367 0 0 1-.7 3.034 1 1 0 0 1-.224.35c.043.289.1.579.174.873.379 1.5 1.321 2.573 1.746 4.006.676 2.281-.352 4.549-.294 6.848a.984.984 0 0 1-.008.568.771.771 0 0 1-.171.451.9.9 0 0 0 .731.465 2.412 2.412 0 0 1-.952.443c-1.184.268-.683 2.087.5 1.819a3.914 3.914 0 0 0 2.355-6.119zm-19.693-19.196l.042-.1c.031-.075.064-.15.1-.225.437-1.058-1.1-1.488-1.7-.748a.9.9 0 0 0-.89-.025 14.554 14.554 0 0 0-4.26 3.175c-.791.885-1.37 2.409-.2 3.238a.9.9 0 0 0 .411.725.85.85 0 0 0 .663.829c2.917.783 4.473-1.95 5.288-4.27a.787.787 0 0 0-.092-.758l.6-.62a.885.885 0 0 0 .038-1.221z"/><path class="n" d="M349.66 179.5a.772.772 0 0 0-.69-.463 11.221 11.221 0 0 1-3.5-1.834c-.678-.518-1.331.139-1.335.828-.586 1.809-3.273 1.385-4.715 1.055-1.967-.451-2.36-1.84-2.941-3.6a.948.948 0 0 0-1.206-.609.745.745 0 0 0-.745.125c-1.036.773-2.211.438-3.143 1.262a10.089 10.089 0 0 0-1.8 2.865 66.026 66.026 0 0 0-2.871 6.421 17.009 17.009 0 0 1 1.75-1.04.9.9 0 0 1 .89.025 1.12 1.12 0 0 1 1.279-.277c-.541-1.016-.09-2.914.029-3.94 0-.033.021-.055.028-.086a2.812 2.812 0 0 1 .071-.616.936.936 0 0 1 .659-.659c1.455-.348 3.284.086 4.77.189a20.274 20.274 0 0 1 3.082.18c.71-.046 1.584-.128 1.963.582.485.911.171 2.487.062 3.479a1.5 1.5 0 0 1-.2 1.326c-.627.9-1.777.628-2.74.573l-5.35-.3a4.617 4.617 0 0 1-1.917-.243.781.781 0 0 1-.033.544c-.031.076-.064.15-.1.225l-.042.1a.885.885 0 0 1-.039 1.222l-.6.62a.787.787 0 0 1 .092.758c-.07.2-.148.4-.23.606.108.03.219.052.327.084.31 4.137-.988 8.2-1.938 12.19a.893.893 0 0 0 .049.558 1.008 1.008 0 0 0 .816 1.418c1.674.141 3.116 1.451 4.636 2.072a25.256 25.256 0 0 0 3.245 1.025c3.144.816 6.335 1.478 9.5 2.2a.874.874 0 0 0 1.362-.612.984.984 0 0 0 .008-.568c-.058-2.3.97-4.567.294-6.848-.425-1.433-1.367-2.51-1.746-4.006a8.922 8.922 0 0 1-.174-.873 1 1 0 0 0 .224-.35 11.367 11.367 0 0 0 .7-3.034l2.076.063a.955.955 0 0 0 .943-.943c0-2.357.009-4.715.005-7.072a9.915 9.915 0 0 0-.805-4.622z"/><path class="d" d="M345.654 170.886c-1.134-1.048-2.018-3.093-3.407-3.14a4.079 4.079 0 0 1-.612.726 6.383 6.383 0 0 1-3.227 1.617l-.458.818a.951.951 0 0 1-1.758-.476c0-.044-.01-.082-.012-.124a1.123 1.123 0 0 1-.3.11 4.871 4.871 0 0 0 .471.723 10.761 10.761 0 0 0 .867 2.915 1.391 1.391 0 0 0-.5.239.953.953 0 0 0-.369.958.935.935 0 0 1 .134.234c.581 1.756.974 3.145 2.941 3.6 1.442.33 4.129.754 4.715-1.055a.966.966 0 0 1 .838-1.013 1.661 1.661 0 0 0-.566-.362 25.711 25.711 0 0 1 1.833-4.951.888.888 0 0 0 .073-.563.929.929 0 0 1-.663-.256z"/><path class="e" d="M347.328 163.747a6.356 6.356 0 0 0-.721-2.105 4.082 4.082 0 0 0-4.976-1.956.946.946 0 0 0-.19.122 6.676 6.676 0 0 0-2.059.14.84.84 0 0 0-.439.251 2.265 2.265 0 0 0-1.251.777.86.86 0 0 0-.229.272 4.942 4.942 0 0 0-.45.7 20.994 20.994 0 0 0-2.221 7.621c-.092.842.8 1.078 1.387.743 0 .043.012.081.012.124a.951.951 0 0 0 1.758.476l.458-.818a6.383 6.383 0 0 0 3.227-1.617 4.079 4.079 0 0 0 .612-.726c1.389.047 2.274 2.092 3.407 3.14a.951.951 0 0 0 1.6-.615 1.028 1.028 0 0 0 .2-.242 5.843 5.843 0 0 0-.125-6.287zm57.355 59.553c0-.5-.015-1-.027-1.5l-8.023 1.357a.692.692 0 0 0 .21.266 3.218 3.218 0 0 1 1.325 2.4c0 .049.007.1.01.146l-.208 1.716a.785.785 0 0 0 .78.78 5.549 5.549 0 0 0 2.879-.86c.307-.039.6-.079.832-.1a3.54 3.54 0 0 0 .626-.11 1.93 1.93 0 0 1 .191.129.79.79 0 0 0 1.331-.551c.035-.7.044-1.39.057-2.085a2.619 2.619 0 0 0 .087-1.262 2.9 2.9 0 0 0-.07-.326zm.647-3.16a1.2 1.2 0 0 0-.023-.329 8.3 8.3 0 0 0-1.085-1.9 10.74 10.74 0 0 1-2.151 1.806 3.9 3.9 0 0 1 3.259.424zm-10.721 3.44l-.53.193a6.9 6.9 0 0 0-.913.411 6.122 6.122 0 0 1 .778 2.616c.046.722 1.073 1.125 1.453.394a8.382 8.382 0 0 0 .962-3.991l-1.332.225-.246.089"/><path class="o" d="M416.786 250.965c-.6-1.062-1.08-1.89-1.494-2.672-.176-3.318-.6-6.929-2.234-9.647a.8.8 0 0 0-.388-.583 8.447 8.447 0 0 0-1.361-1.514c.021-.97.292-2.41-.159-3.278a2.241 2.241 0 0 0-.841-.819.705.705 0 0 0-.289-.275l-.305-.385a.708.708 0 0 0-.917-.526.868.868 0 0 0-1.1.416.755.755 0 0 0-.133 1.09 9.992 9.992 0 0 0 .158 2.1.724.724 0 0 0-.306-.022c-.354.047-.7.078-1.056.094a14.943 14.943 0 0 0-1.1 0 .759.759 0 0 0-.566.255l-.206.015a15 15 0 0 0-3.983-2.444c-1.713-.585-3.932-.079-5.7 0a.8.8 0 0 0-.641 1.208.626.626 0 0 0 .731.618c2.632-.293 4.655 1.456 6.753 2.97-1.234 3.038-.88 6.112-.439 9.219 0 .633-.01 1.265-.012 1.9q.774 3.707-3.763 4.278c-.568-.817-1.917-.045-1.347.787 1.766 2.54 3.529 4.621 4.556 7.665.537 1.591 1.1 5.352 2.6 6.565 2.1 1.7 8.158.6 10.095-.859 2.273-1.707 4.884-7.909 5.07-10.875a9.279 9.279 0 0 0-1.623-5.281z"/><path class="p" d="M396.375 297.46a1.55 1.55 0 0 1-1.3.709c-3.6-.032-5.017-1.144-5.447-3.084a14.1 14.1 0 0 0-4.263-.236c-1.148 0-3.224-.515-4.121.446-.178.191-.679 2.053-.065 2.353.755.368 1.521.7 2.294 1.015a15.83 15.83 0 0 0 3.453 1.463c2.981.915 6.9 2.213 10 1.413a.761.761 0 0 0 .327-1.28c-.077-1.159-.111-2.083-.878-2.799zm7.6-4.09a2.513 2.513 0 0 1-1.47 1.071 2.664 2.664 0 0 1-3.1-1.055h-.021a.784.784 0 0 0-.752.987 3.607 3.607 0 0 0 3.154 2.594 2.163 2.163 0 0 0 1.739-.541c.371-.38.447-1.447.871-1.637.791-.356.309-1.399-.421-1.419z"/><path class="q" d="M403.243 267.97c-1.5-1.212-2.062-4.974-2.6-6.565a24.637 24.637 0 0 0-3.836-6.648l-1.207-.482c-.127.256-.265.508-.409.756-.468.916-.977 1.8-1.463 2.654-.345.871-.49 1.794-.769 2.689a19.136 19.136 0 0 1-1.148 7.174.916.916 0 0 1-.425.455c-.387 1.95-.76 3.9-1.085 5.859-.938 5.654.025 11.215-.636 16.893-.53 4.551-.346 7.364 5.407 7.415a1.536 1.536 0 0 0 1.347-.772c1.5-3.149 1.581-6.713 2.321-10.11-.432 4.234.061 7.932 3.763 7.155 2.418-.508 3.087-5.656 3.017-6.355a47.666 47.666 0 0 1 .12-10.486 27.657 27.657 0 0 0 .3-3.963 31.551 31.551 0 0 1 2.479-2.355 29.075 29.075 0 0 0 2.979-3.242c-2.615.884-6.543 1.229-8.155-.072z"/><path class="d" d="M395.192 255.031c.154-.263.3-.53.435-.8a11.028 11.028 0 0 0 1.008-2.832 8.7 8.7 0 0 0 .211-3.671.787.787 0 0 0-.959-.545c-.249.072-4.069-.219-4.069.626v3.913a43.039 43.039 0 0 0-1.292 4.143l-.133.255a.806.806 0 0 0-.088.478c-.765 2.4-2.147 4.464-2.906 6.846-.709 2.223-.12 5.866 2.912 5.733a.779.779 0 0 0 .673-.386 4.06 4.06 0 0 0 .259-.7.929.929 0 0 0 .569-.541 19.136 19.136 0 0 0 1.148-7.174c.279-.895.424-1.818.769-2.689.487-.852.995-1.74 1.463-2.656z"/><path class="o" d="M405.681 220.56c-.626-1.075-2.089-1.127-3.61-.846 3.275-2.464 2.212-1.722 1.269-3.265-1.025-1.677-4.266-1.955-5.878-1.88-3.274.152-6.367 2.288-7 5.279a1.4 1.4 0 0 0-.187.622 1.962 1.962 0 0 0 .081.736 6.1 6.1 0 0 0 .342 1.776 25.126 25.126 0 0 0-4.132 3.475.776.776 0 0 0 .983 1.185.67.67 0 0 0 .13-.01c2.515-.717 3.925-2.963 6.4-3.858l.948-.346 10.188-1.724a.786.786 0 0 0 .466-1.144z"/><path class="r" d="M398.5 232.488a8.212 8.212 0 0 1 .9.049.781.781 0 0 0-.9-.049zm-2.527 20.984q-.163.376-.347.755c-.1.2-.208.393-.318.587a4.765 4.765 0 0 0 2.189.906c-.461-.645-.935-1.3-1.41-1.979a.753.753 0 0 1-.112-.269zm-1.073-18.884a.6.6 0 0 1-.679-.4 5.246 5.246 0 0 0-.822 1.5 56.684 56.684 0 0 1-5.117 9.362.782.782 0 0 0 .28 1.067c.841.379 1.682.747 2.526 1.09a.736.736 0 0 0-.055.345 8.608 8.608 0 0 0 .788 2.773V247.8c0-.845 3.82-.554 4.069-.626a.787.787 0 0 1 .959.545 12.02 12.02 0 0 1-.6 5.08.811.811 0 0 1 1.192.15q4.538-.572 3.763-4.278c0-.633.008-1.265.012-1.9-.441-3.107-.795-6.181.439-9.219-2.103-1.508-4.126-3.257-6.755-2.964zm12.671-1.817a.708.708 0 0 1-.026-.9c-.147.044.3-.217-.343-.139-.818.168-.8.094-1.255.2a19.449 19.449 0 0 1-3.641.678 6.516 6.516 0 0 0-2.4 0 4.626 4.626 0 0 1 .608.157 15 15 0 0 1 3.983 2.444l.206-.015a.759.759 0 0 1 .566-.255c.368-.014.733-.012 1.1 0 .352-.016.7-.046 1.056-.094a.724.724 0 0 1 .306.022 9.992 9.992 0 0 1-.163-2.098z"/><path class="p" d="M401.565 233.225l.042.024-.042-.024zm5.941-.552h.007c-.01-.015-.018-.03-.026-.045l.019.045zm-.1-.4zm-7.459.346a4.525 4.525 0 0 1 .568.146 4.2 4.2 0 0 0-.572-.147zm5.413-.941a8.1 8.1 0 0 1-5.786.154.75.75 0 0 0-.941.6.758.758 0 0 1 .206-.053.744.744 0 0 1 .194 0c.014 0 .028.007.042.01a.8.8 0 0 1 .147.041.829.829 0 0 1 .182.1c.184.02.365.046.543.08l-.04-.01a6.516 6.516 0 0 1 2.4 0 19.449 19.449 0 0 0 3.641-.678c.456-.1.437-.029 1.255-.2.646-.078.2.183.343.139a.879.879 0 0 1 .159-.189.808.808 0 0 1 .444-.4c-1.075-.543-1.782-.094-2.793.405zm2.081.419l.02-.055c0 .01-.011.019-.014.029s-.007.016-.01.029z"/><path class="d" d="M401.341 233.127h.008c-.037-.018-.074-.03-.11-.048zm-1.4-.51a4.507 4.507 0 0 1 .568.146 4.523 4.523 0 0 0-.568-.146zm6.355-2.177c-.133-.027-.251-.086-.379-.125a6.166 6.166 0 0 0-1.351-.684.9.9 0 0 0-.257-.061c-.038-.586.25-1.365-.023-1.987a.8.8 0 0 1-1.009-.059 1.93 1.93 0 0 0-.191-.129 3.54 3.54 0 0 1-.626.11c-.237.02-.525.06-.832.1a5.549 5.549 0 0 1-2.879.86.785.785 0 0 1-.78-.78l.208-1.716c0-.049-.006-.1-.01-.146a3.218 3.218 0 0 0-1.325-2.4.692.692 0 0 1-.21-.266l1.334-.226-1.608.272a8.382 8.382 0 0 1-.962 3.991c-.38.731-1.408.328-1.453-.394a6.067 6.067 0 0 0-.667-2.39l-.056-.031a.594.594 0 0 0-.137-.145 11.42 11.42 0 0 0-1.323.869 5.309 5.309 0 0 0 .541 2.513c.056 1.492 1.32 2.807 2.137 4.1a2.5 2.5 0 0 0 1.93.713 4.7 4.7 0 0 0 1.185-.886l.687-.559a2.7 2.7 0 0 0 .4 1.414.892.892 0 0 1 .118-.266c0-.006.01-.01.014-.016a.765.765 0 0 1 .182-.19.7.7 0 0 1 .113-.049.644.644 0 0 1 .158-.066.781.781 0 0 1 .341.016 8.1 8.1 0 0 0 5.786-.154 3.862 3.862 0 0 1 1.989-.64 3.542 3.542 0 0 0-1.041-.593z"/><path class="s" d="M435.551 242.171a.956.956 0 0 0-1.61-.667c-.494.432-2.224.331-2.425.5-.567-.157-1.223.117-1.126.846.184 1.38 1.072 2.251 1.433 3.489.319 1.095.956 1.189 2.025 1.009 1.033-.173 2.283-.558 2.693-1.637.499-1.317-.925-2.28-.99-3.54z"/><path class="a" d="M457.863 242.774c-.947.364-1.926.679-2.857.946-.016.063-.038.121-.055.184a1.73 1.73 0 0 1-.486 1.284 7.931 7.931 0 0 1-2.291 2.727l-.015.029a4.109 4.109 0 0 1-.448.86c-.661 1.333-1.112 2.551-.926 3.016a10.357 10.357 0 0 1-.714.827.952.952 0 0 0 .416 1.577c1.745.454 6.407 1.345 7.391-.9.473-1.076-.453-2.354-.693-3.389-.032-.14-.04-.284-.066-.426.162-.7.3-1.406.453-2.051.241-.984 1.407-3.784.291-4.684z"/><path class="e" d="M453.625 194.574a9.9 9.9 0 0 1-4.373 2.837 10.43 10.43 0 0 0 .27 1.937c-.275.883 1.114 1.583 1.744.686a8.257 8.257 0 0 0 .5-.835 4.773 4.773 0 0 0 1.019-2.61c.747.526 1.963-.312 1.368-1.215z"/><path class="d" d="M452.784 196.589a4.773 4.773 0 0 1-1.019 2.61 8.257 8.257 0 0 1-.5.835c-.63.9-2.02.2-1.744-.686a10.43 10.43 0 0 1-.27-1.937 8.732 8.732 0 0 0-.251.1c-2.447.9-4.186-.392-6.291-1.557a14.3 14.3 0 0 0-3.279-.89c-.156 2.751-.412 11.526 4.119 11.041a4.9 4.9 0 0 0 1.591-.5 2.543 2.543 0 0 0 .151.369 2.239 2.239 0 0 0 .707.844 1.012 1.012 0 0 0 1.363.6c1.543-.7 4.094-1.291 4.849-2.99a2.839 2.839 0 0 0 .2-1.626 2.493 2.493 0 0 0 .062-.624 2.3 2.3 0 0 0-.606-1.45 3.137 3.137 0 0 0-.6-.434c1.432-.787 3.306-2.059 3.342-3.5a1.719 1.719 0 0 0-.365-1.2c.294.806-.772 1.478-1.459.995z"/><path class="t" d="M454.365 188.944c-1.727-3.066-5.412-4.166-8.755-3.531a5.906 5.906 0 0 0-3.9 2.3c-1.091 1.571-.418 2.781-.764 4.463-.006.03 0 .053 0 .082l-3.719.774c-1.065.222-.787 1.832.251 1.853a14.245 14.245 0 0 1 5.227 1.065c2.1 1.165 3.844 2.454 6.291 1.557a9.93 9.93 0 0 0 4.8-3.139c1.636-1.186 1.978-2.923.569-5.424z"/><path class="d" d="M437.4 215.4h-.044a.973.973 0 0 1-.947.288 5.3 5.3 0 0 1-1.142-.479q-.079.09-.17.179l.128-.2a11.178 11.178 0 0 1-2.8-2.405 15.294 15.294 0 0 0-1.8 3.166 2.157 2.157 0 0 0-3.12 1.253.923.923 0 0 0-.025.308c-2 2.294-2.047 6.06.809 7.823 1.124.694 2.555.639 2.881-.82a17.442 17.442 0 0 0 .115-3.182l.022-.8.149.391c0 .028.005.053 0 .081a.812.812 0 0 0 .3.7 6.64 6.64 0 0 0 .828 1.53c.731.948 2.37.01 1.629-.952a7.671 7.671 0 0 1-.882-1.524 5.837 5.837 0 0 0-.49-2.176.79.79 0 0 0 .128-.056c.133.376.125.971.522 1.1 1.78.584 1.662.413 1.758-.476a4.69 4.69 0 0 1 1.548-2.873 2.96 2.96 0 0 0 .6-.877z"/><path class="u" d="M461.048 232.634l-2.8 1.944c1.163.7 2.361 1.434 3.542 2.19.8.514 1.7.465 1.758-.476.049-.78 2.495-4.837 2.7-6.454a4.674 4.674 0 0 0-.114-1.444 20.681 20.681 0 0 1-5.086 4.24zm7.352-12.252c.026-.183-1.3-5.726-2.1-8.362a19.36 19.36 0 0 0-3.054-5.5c-2.7-3.734-6.557-3.647-9.9-6.324l-.022-.085a.824.824 0 0 0-.71-.655c-.361.254-.73.484-1.087.688a.9.9 0 0 0-.025.3 1.9 1.9 0 0 1 .369.285 2.3 2.3 0 0 1 .606 1.45 2.493 2.493 0 0 1-.062.624 2.839 2.839 0 0 1-.2 1.626 2.64 2.64 0 0 1-.338.55 1.178 1.178 0 0 1-.435.451c-1.1.971-2.885 1.453-4.076 1.99a1.012 1.012 0 0 1-1.363-.6 2.239 2.239 0 0 1-.707-.844 2.543 2.543 0 0 1-.151-.369 4.9 4.9 0 0 1-1.591.5c-2.749.294-3.731-2.823-4.048-5.935-.15.01-.3.025-.452.048-1.591.242-2.042 1.131-2.811 2.424-.413.7-1.1 1.979-1.913 3.179-.221.2-2.248 2.689-3.151 2.768a1 1 0 0 0-.866 1.259.877.877 0 0 0 .233.8c1.672 1.789 3.385 4.378 5.864 5.047a.973.973 0 0 0 .947-.288h.044a.993.993 0 0 0 .976-.424c.3-.4.632-.777.958-1.154l.038.037 1.6 3.267c.065.653.1 1.307.18 1.8a8.147 8.147 0 0 0 .639 2.91c.405.65 4.1 4.93 4.551 5.44a10.192 10.192 0 0 0 3.409 2.5c.122.056 1.793.939 4.154 2.273a42.671 42.671 0 0 0 8.122-5.371l.012-.008a12.105 12.105 0 0 0-.212-1.521l-1.245-1.492a.989.989 0 0 1 .882-1.611.868.868 0 0 1 .389-.119c.822-.023 1.545-.376 2.811-.394.816-.069 1.2-.261 1.67.418v.006c.437.006.876 0 1.321-.033a1.006 1.006 0 0 0 .744-1.551zm-27.023-14.519c.013-.087.025-.174.031-.264.011.042.018.094.03.132s.029.067.041.1z"/><path class="d" d="M431.516 242c.2-.164 1.931-.063 2.425-.5a.978.978 0 0 1 .872-.224.965.965 0 0 0 .005-.266 13.215 13.215 0 0 0-.854-3.435c.075-.316.143-.646.2-.982a4.222 4.222 0 0 0 .252-2.026 3.3 3.3 0 0 0-.251-.814 2.455 2.455 0 0 0-.542-1.024c-1.366 1.039-5.166.984-5.443.9-.674.059-1.248.151-1.728.153q1.941 4.252 4.292 8.285a1.046 1.046 0 0 1 .772-.067z"/><path class="a" d="M437.346 248.42a5.663 5.663 0 0 1-.22-1.73 6.56 6.56 0 0 1 .292-1.793 1.722 1.722 0 0 0-.945-.528 1.732 1.732 0 0 1 .068 1.338c-.41 1.078-1.66 1.463-2.693 1.637-1.069.179-1.706.086-2.025-1.009a6.554 6.554 0 0 0-.553-1.264 7.948 7.948 0 0 0-2.785 2.344c-1.284 2.194-1.609 3.866-4.446 4.563a.953.953 0 0 0-.416 1.577c1.966 2.142 3.79 2.3 6.579 1.614 1.864-.459 3.419-1.659 5.288-2.156.883-.235 2.268-.068 2.929-.835a1.059 1.059 0 0 0 .14-.245 4.341 4.341 0 0 1-1.213-3.513z"/><path class="d" d="M466.333 221.952c-.47-.679-.854-.487-1.67-.418-1.267.018-1.99.371-2.811.394a.868.868 0 0 0-.389.119.989.989 0 0 0-.882 1.611l1.245 1.492a12.105 12.105 0 0 1 .212 1.521l-.012.008c-5.466 4.819-12.544 7.078-18.429 11.286-.979.7-.038 2.337.952 1.629.9-.644 1.829-1.24 2.772-1.811a5.533 5.533 0 0 1-1.008 2.992 24.363 24.363 0 0 1-1.743 2.8c-.706.99.929 1.933 1.629.952a25.862 25.862 0 0 0 2.236-3.52 3.286 3.286 0 0 1-.431 2.3c-.426.3-.862.589-1.323.857a.947.947 0 0 0 .727 1.724 4.017 4.017 0 0 0 1.816-1.135l.082-.059c-.585 1.029.965 1.881 1.643.914a14.371 14.371 0 0 0 2.221-4.726 17.578 17.578 0 0 0 .377-3.03l7.5-5.211c2.009-1.4 4.078-2.643 5.436-4.726a.854.854 0 0 0 .141-.434 2.9 2.9 0 0 0 .992-1.738 5.239 5.239 0 0 0-1.283-3.791z"/><path class="s" d="M445.112 236.63c-.176.216-.384.457-.606.71 2.978-2 6.211-3.572 9.363-5.273-.178-.1-.346-.22-.52-.33-2.06-1.156-3.488-1.911-3.6-1.962a10.192 10.192 0 0 1-3.409-2.5c-.2-.222-1.008-1.16-1.895-2.2-3.046-1.734-6.218-2.851-9.175-4.869q-.188-.128-.379-.255a4.279 4.279 0 0 1-1.4-.329c-.291-.1-.364-.442-.435-.768-.045-.023-.09-.043-.135-.065a5.734 5.734 0 0 1 .41 1.964 7.671 7.671 0 0 0 .882 1.524c.741.962-.9 1.9-1.629.952a6.64 6.64 0 0 1-.828-1.53.812.812 0 0 1-.3-.7v-.081l-.149-.391-.022.8a17.442 17.442 0 0 1-.115 3.182c-.326 1.459-1.757 1.514-2.881.82a4.877 4.877 0 0 1-1.857-6.063c-3.385 2.926-2.526 9.8-1.508 13.362.441 1.544 1.535 1.158 3.264 1.006.3.09 4.778.151 5.749-1.2a2.321 2.321 0 0 0 .423-1.727 63.808 63.808 0 0 0 10.752 5.923zm17.956.4a.877.877 0 0 1-.278.053h-.005a1.283 1.283 0 0 1-.292-.027l-.033-.006a1.84 1.84 0 0 1-.277-.088c-.02-.008-.04-.013-.06-.022a2.382 2.382 0 0 1-.33-.175 145 145 0 0 0-3.542-2.19l.993-.69-5.7 3.957a17.578 17.578 0 0 1-.377 3.03 14.371 14.371 0 0 1-2.221 4.726c-.679.968-2.229.115-1.643-.914l-.082.059a4.017 4.017 0 0 1-1.816 1.135.947.947 0 0 1-.727-1.724c.461-.267.9-.557 1.323-.857a3.286 3.286 0 0 0 .431-2.3 25.862 25.862 0 0 1-2.236 3.52c-.7.981-2.335.038-1.629-.952a24.363 24.363 0 0 0 1.743-2.8 5.533 5.533 0 0 0 1.008-2.992 43.198 43.198 0 0 0-2.772 1.811c-.678.485-1.317-.13-1.349-.79l-.309.344c-2.768 1.931-5.672 3.775-5.767 7.543a5.663 5.663 0 0 0 .22 1.73 4.353 4.353 0 0 0 1.345 3.655c2.071 2.03 4.8 1.433 7.47-.092 2.4-.547 5.2-1.815 6.011-4.067a7.933 7.933 0 0 0 2.294-2.728 1.73 1.73 0 0 0 .486-1.284c.017-.062.04-.12.055-.184 4.036-1.149 9.021-3.134 8.067-6.679z"/><path class="v" d="M550.331 250.361a.764.764 0 0 0-.742-.2 12.092 12.092 0 0 1-1.93.6h-.636a.788.788 0 0 0-.487.192c-.047.005-.092.015-.139.019a.809.809 0 0 0-.718.913c.357.15.749.361 1.245.607.472.233.941.474 1.409.717a.579.579 0 0 1 .637-.322 2.467 2.467 0 0 0 1.856-1.626 1.428 1.428 0 0 0-.495-.9zm-7.049.67c-1.5.05-3.583.257-4.533.338-.981.084-1.734.35-1.079 1.079.292.325.1.984.1 1.376v.032a1.1 1.1 0 0 0 .436.12c.562 0 3.262.4 3.874.108.631-.3.815-1.572 1.41-1.955a2.105 2.105 0 0 1 1.624-.426c.028-.055.069-.115.09-.168.196-.473-.17-.563-1.922-.504z"/><path class="a" d="M562.064 255.138c-.315-.077-.947-.192-1.731-.344a9.9 9.9 0 0 0-2.32-.552l-1.791-.4c-2.2-.642-4.085-1.52-3.8-2.676.231-.954-1.236-1.361-1.472-.406a2.394 2.394 0 0 1-1.98 2.129.579.579 0 0 0-.637.322 80.976 80.976 0 0 0-1.409-.717c-1.5-.741-2.083-1.23-3.433-.362-.6.383-.78 1.655-1.41 1.955-.612.291-3.312-.113-3.874-.108-.412 0-.765-.45-1.2-.143-.081.057-1.027.4-1.032.914-.016 1.632-.773 4.457.65 5.657s5.388.755 7.125.852c2.932.162 13.386 1.081 14.772-2.6a.57.57 0 0 0 .035-.248 4.118 4.118 0 0 0 3.961-2.145.769.769 0 0 0-.454-1.128z"/><path class="d" d="M564.584 153.945a11.676 11.676 0 0 0-.861-2.9 15.458 15.458 0 0 0-3.1-3.337l-.084.081a.808.808 0 0 1-.85.143 4 4 0 0 1-2.446-.305.874.874 0 0 1-.159-.1 20.516 20.516 0 0 0-2.716 5.145.767.767 0 0 1-1.5-.2v-.087a.869.869 0 0 1-.09.081.775.775 0 0 1-.871 1.064 2.756 2.756 0 0 0 .868 1.893c.028.017.058.025.087.039a3.2 3.2 0 0 0 .094.386.262.262 0 0 1 .275.126c.208.393.385.779.566 1.143a.823.823 0 0 0 .24.027c-.026.11-.03.221-.049.331a4.141 4.141 0 0 0 .581.856c.33.353-.1.638-.587.676a3.5 3.5 0 0 0 1.008 1.736 1.316 1.316 0 0 0 .908.783c.6.457 1.244.874 1.778 1.307a.86.86 0 0 0 .506.2 15.8 15.8 0 0 0 1.457 1.7.769.769 0 0 0 1.276-.743c-.4-1.715.348-2.81.642-3.986a17.015 17.015 0 0 0 2.311-3.035 5.9 5.9 0 0 0 .924-2.653.666.666 0 0 1-.208-.371z"/><path d="M553.228 155.967c-.127-.239-.471-.1-.665-.009a.617.617 0 0 0-.479.757.6.6 0 0 0 .151.4 7.819 7.819 0 0 0 .91 1.6c.456.6 1.965.2 1.422-.385a11.187 11.187 0 0 1-1.339-2.363zm12.543-4.168a.715.715 0 0 0 .038-.46l-.176-.7a5.719 5.719 0 0 0-.969-4.551c-1.079-1.751-2.611-3.492-4.865-2.823a.733.733 0 0 0-.328.2 8.215 8.215 0 0 0-.825-.085c-1.584-.039-4.226-.1-5.585.9a2.987 2.987 0 0 0-.922 1.22 3.771 3.771 0 0 0-.833.97.67.67 0 0 0-.819.524 7.272 7.272 0 0 0 .087 3.7.714.714 0 0 0-.054.341 3.414 3.414 0 0 0 1.038 2.294.765.765 0 0 0 1.217-.875.869.869 0 0 0 .09-.081v.087a.767.767 0 0 0 1.5.2 20.516 20.516 0 0 1 2.716-5.145.874.874 0 0 0 .159.1 4 4 0 0 0 2.446.305.808.808 0 0 0 .85-.143l.084-.081a15.458 15.458 0 0 1 3.1 3.337 11.676 11.676 0 0 1 .861 2.9c.184.871 1.465.628 1.5-.2a5.225 5.225 0 0 0-.309-1.933z"/><path class="d" d="M576.939 205.018a3.018 3.018 0 0 0 .081-.974 5.23 5.23 0 0 0-.017-.377c0-.056-.006-.109-.009-.166l-.005-.011c-.165-1.517-1.78-3.759-2.482-5.771a24.438 24.438 0 0 0-2.607-4.777c-1.339-2.214-1.788-4.6-2.409-7.06a10.555 10.555 0 0 0-.966-3.236 13.71 13.71 0 0 1-3.753 1.454.79.79 0 0 1 .079.274 22.5 22.5 0 0 1-.156 4.662c.493.81 1.913 2.883 2.077 3.172.462.812 3.488 6.451 3.662 6.818l.523 1.1a18.846 18.846 0 0 0 1.9 6.586.743.743 0 0 0 .9.316v.058c-.076.916 1.241.959 1.479.165a.822.822 0 0 0 .825.036 1.3 1.3 0 0 0 .759-1.358.77.77 0 0 0-.061-.219.712.712 0 0 0 .044-.084 5.787 5.787 0 0 0 .136-.608z"/><path class="t" d="M545.764 199c-.494-.009-3.6-.072-3.936.435a.742.742 0 0 1-.315.267c-.72 3.129.778 5.366 1.15 8.772a50.508 50.508 0 0 1-.072 9.883 32.509 32.509 0 0 1-1.005 3.762c-1.289 2.672-3.321 5.938-.985 8.016 2.222 1.976 10.323 1.752 12.56-.111a3.867 3.867 0 0 0 .9-1.147 1.676 1.676 0 0 0 .308.023 7.182 7.182 0 0 1 4.345.8c.831.334 1.592-.378 1.878-1.066 1.478-3.56.351-8.914.685-12.772.237-2.74.588-5.474 1.053-8.185.21-1.226.992-3.168 1.017-4.73-1.507.174-12.821-3.857-17.583-3.947z"/><path class="d" d="M554.367 228.9a1.676 1.676 0 0 1-.308-.023 3.867 3.867 0 0 1-.9 1.147 5.831 5.831 0 0 1-2.152.964.379.379 0 0 0-.025.033l-.012-.021c-3.077.813-7.876.7-9.938-.556a13.382 13.382 0 0 0-2.177 5.541c-.091.9.015 3.044.011 3.154a71.348 71.348 0 0 0 .307 9.667.785.785 0 0 0 .073.237c0 .756.02 1.514.045 2.274 1.065-.1 2.73-.248 3.991-.29a5.958 5.958 0 0 1 1.757.079c0-.048 0-.087-.006-.138-.115-1.636-.744-3.179-.4-5.867a10.29 10.29 0 0 1 .811-4.094c.019-.061.033-.125.051-.187q-.1 2.208-.014 4.437c.1 2.53-.145 4.5.8 5.747a.751.751 0 0 1 .117-.036c.047 0 .092-.014.139-.019a.788.788 0 0 1 .487-.192h.636a12.092 12.092 0 0 0 1.93-.6.62.62 0 0 1 .508.049c1.151-6.857 2.615-14.986 5.379-21.361a7.831 7.831 0 0 0-1.11.055z"/><path class="w" d="M542.355 174.285c.091-.02.183-.029.274-.047a1.615 1.615 0 0 0 .336-.031l-.037-.087a.779.779 0 0 1 .456-1.121c3.458-1.284 7.047.051 10.664-.888a36.43 36.43 0 0 0 6.772-2.487.693.693 0 0 1 .069-.094 9.147 9.147 0 0 1 2.317-1.575.767.767 0 0 1-.113-.214.815.815 0 0 1-.019-.1.868.868 0 0 1-.025-.134.894.894 0 0 1 .013-.167c0-.022 0-.045.006-.066a.651.651 0 0 1 .876-.527.828.828 0 0 0-.184-.034v-.24c-.057-.089-.11-.181-.175-.264a12.638 12.638 0 0 0-2.708-2.436c.013.069.016.132.033.2a.769.769 0 0 1-1.276.743 15.8 15.8 0 0 1-1.457-1.7.86.86 0 0 1-.506-.2c-.535-.433-1.176-.849-1.778-1.307a1.316 1.316 0 0 1-.908-.783 4.359 4.359 0 0 1-.583-.726c-.224-.13-.455-.26-.667-.391a.676.676 0 0 0-.931.173q-.287-.037-.582-.051c-3.052-.673-6.687-1-8.762 1.79a7.323 7.323 0 0 0-1.174 4.114 37.792 37.792 0 0 1-.2 2.417c-.183.86-.338 1.7-.482 2.451a13.218 13.218 0 0 1-.931 2.362c-.337.682 1.34 1.496 1.682 1.42zm27.273 6.508c-.823-1.78-2.352-4.572-2.909-5.9-.012 1.327-.259 2.5-1.294 2.47-.848-.021-1.13-1.327-1.146-1.459-.063-.527-.1-1.054-.152-1.581.314-.142.621-.288.907-.443-2.546 1.375-6.382 2.238-8.394 3.025-2.055.8-7.988 4.3-10.26 3.536a1.668 1.668 0 0 1-.411-.218l-.1-.073a2.733 2.733 0 0 1-.343-.318l-.032-.032a4.564 4.564 0 0 1-.371-.488l-.025-.039q-.177-.269-.34-.574c.058.35.117.7.162 1.048a69.229 69.229 0 0 0-.427 9.6 28.276 28.276 0 0 1-3.986 9.322c-.54.824.781 1.589 1.318.77.333-.507 3.442-.444 3.936-.435 5.142.093 17.938 4.791 17.752 3.83-1.207-6.261 1.854-12.092 1.334-18.461a.79.79 0 0 0-.079-.274 13.515 13.515 0 0 0 3.781-1.472 1.4 1.4 0 0 0 1.08-1.834z"/><path d="M565.552 161.017a.763.763 0 0 0-.453.028c-.014-.007-.022-.018-.036-.025a.774.774 0 0 0-1.148.659 76.386 76.386 0 0 0-.155 5.035.752.752 0 0 1 .2.037l.1-.018a.858.858 0 0 1 .175-.108l1.656-.66a.571.571 0 0 1 .3-.034.772.772 0 0 1 .535-.111c.028-.323.057-.646.083-.97.121-1.467.518-3.387-1.257-3.833zm.426 13.059a.714.714 0 0 1-.944-.2c-.286.154-.593.3-.907.443.052.527.089 1.054.152 1.581.016.132.3 1.438 1.146 1.459 1.366.034 1.361-2.013 1.253-3.757a5.483 5.483 0 0 1-.7.474z"/><path class="d" d="M567.2 166.192a.67.67 0 0 0-1-.263.571.571 0 0 0-.3.034l-1.656.66a.858.858 0 0 0-.175.108l-.1.018c-.765-.276-1.157.676-.757 1.2a9.147 9.147 0 0 0-2.317 1.575.693.693 0 0 0-.069.094 36.43 36.43 0 0 1-6.772 2.487c-3.617.939-7.206-.4-10.664.888a.779.779 0 0 0-.456 1.121c.689 1.487 1.684 5.728 3.453 6.321 2.272.762 8.2-2.732 10.26-3.536 2.012-.787 5.847-1.65 8.394-3.025a.714.714 0 0 0 .944.2c3.177-1.774 2.615-5.093 1.215-7.882zm103.117 14.126c-.826-2.111-2.565-3.655-3.3-5.914-.751-2.3-.229-3.476.417-5.5 1.768-5.535-3.909-6.175-6.362-2.069a.729.729 0 0 0 .458 1.086 1.572 1.572 0 0 1 .884-.364c.025-.049.05-.094.074-.145-.018.047-.03.095-.047.142.036 0 .069-.011.106-.011a1.588 1.588 0 1 1 0 3.177 1.567 1.567 0 0 1-.214-.022 31.7 31.7 0 0 0 2.575 6.661c.678 1.543 1.7 6.344 4.081 6.155 1.695-.135 1.795-2.003 1.328-3.196zm-6.171-24.027c1.279-.433 2.325-1.044 3.918-.679a28.247 28.247 0 0 0 3.237 1l.6.165 1.458-1.759a9.8 9.8 0 0 0-.932-2.191 21.026 21.026 0 0 0-1.427-3.116 3.5 3.5 0 0 0-5.433-.609 4.145 4.145 0 0 0-.859 1.413l-.039.1a14.781 14.781 0 0 0-.523 5.676zm7.7-4.593c.02.051.043.1.062.152a.937.937 0 0 0-.068-.077c-.001-.025.003-.049.003-.073zm-25.786 59.14c.272-.509.519-1.032.677-1.335a13.762 13.762 0 0 0 1.422-4.872c.164-1.684.668-4.587.393-6.254a2.292 2.292 0 0 0 .046-.567 23 23 0 0 1-3.5-1.636c.057.277.106.511.12.628.74 6.221-4.271 12.505-2.789 18.475a.743.743 0 0 0 .533.533 1.677 1.677 0 0 0 2-.883 2.7 2.7 0 0 0 .5-.093.757.757 0 0 0 .533-.533 16.255 16.255 0 0 0 .079-3.413c-.003-.019-.012-.033-.014-.05z"/><path d="M675.1 164.5a15.69 15.69 0 0 1 1.205-4.013.73.73 0 0 0 .406-.651c0-.1-.009-.181-.016-.258l.062-.141a.668.668 0 0 0 .326-.309c1.57-3.038 3.113-6.828.565-9.815a11.237 11.237 0 0 0-4.178-2.743c-2.046-.891-4.147-.439-6.173-1.2-.627-.236-1 .37-.892.891a.648.648 0 0 0-.327.516 5.014 5.014 0 0 0-.528.262c-2.671 1.528-3.1 6.013-2.947 8.988a.759.759 0 0 0-.137.295 3.214 3.214 0 0 0-.083.754.784.784 0 0 0 .033.438c.23 1.448 1.574 2.381 2.768 3.411a.759.759 0 0 0-.452.169c-2.019 1.657-4.34 2.584-6.513 3.782a.671.671 0 0 0-.529-.04c-4.172 1.321-7.2 5.57-9.153 10.079a126.611 126.611 0 0 0-10.916 15.375.781.781 0 0 0 .274 1.044c3.6 2.507 6.97 5.21 10.989 6.591a68.057 68.057 0 0 0 .3 15.014c-.313 4.09-.659 8.18-.707 12.36-.042 3.736.431 7.465.557 11.2-.129 2.316-.256 4.633-.493 6.949a65.806 65.806 0 0 0-1.511 8.868.733.733 0 0 0-.091 1.115 5.737 5.737 0 0 0 2.944 1.415 6.864 6.864 0 0 0-.007 2.871c-.666.859-1.4 1.734-1.077 2.905.385 1.4 2.451 1.968 3.694 1.88 4.38-.309 3.051-4.735 2.153-7.754a6.177 6.177 0 0 0 3.4-1.884c1.861-2.342.275-8.352-.179-11.076l.023-1a39.318 39.318 0 0 0 .369-8.981c.423-6.34 1.3-12.713 3.293-18.153a13.756 13.756 0 0 1 1.079-2.418c.772 5.913.231 12.011 1.937 17.623a60.585 60.585 0 0 1-.754 5.252c-.971 5.133-5.95 17.847-.04 20.923l.018.008a.78.78 0 0 0 .061.393 2.166 2.166 0 0 1-.377 1.947 2.162 2.162 0 0 0-.281 3.559 2.589 2.589 0 0 0 1.922.178c.013 0 .022.009.035.01a22.818 22.818 0 0 0 4.749-.184 12.942 12.942 0 0 0 2.371.067.743.743 0 0 0 .406-.157 2.341 2.341 0 0 0 1.849-.5 1.246 1.246 0 0 0 .034-1.7c-.295-.374-.787-.442-1.185-.626a8.274 8.274 0 0 1-2.527-1.424c-.277-.264-.562-.758-.911-1.135 4.961-3.473 2.638-18.808 2.935-22.042.748-8.156 3.81-16.388 3.4-24.611-.284-5.725-1.552-11.526-2.743-17.224a.73.73 0 0 0 .117-.295 8.328 8.328 0 0 1 .549-1.807.807.807 0 0 0 .783.017 9.974 9.974 0 0 0 4.357-4.379 14.326 14.326 0 0 0 .928-1.252 11.736 11.736 0 0 0 1.87-5.3 8.9 8.9 0 0 0 .609-2.673c.374-5.724-5.024-7.42-7.643-11.404zm-6.114 19.016c-2.379.189-3.4-4.612-4.081-6.155a31.7 31.7 0 0 1-2.575-6.661 1.567 1.567 0 0 0 .214.022 1.588 1.588 0 1 0 0-3.177c-.036 0-.07.008-.106.011.017-.047.029-.1.047-.142-.024.051-.05.1-.074.145a1.572 1.572 0 0 0-.884.364.729.729 0 0 1-.458-1.086c2.452-4.106 8.13-3.466 6.362 2.069-.647 2.025-1.168 3.2-.417 5.5.736 2.259 2.474 3.8 3.3 5.914.47 1.191.37 3.059-1.325 3.194zm2.908-26.741l-.6-.165a28.247 28.247 0 0 1-3.237-1c-1.593-.365-2.639.246-3.918.679-.156-2.2-.1-5.636 1.419-7.189a3.5 3.5 0 0 1 5.433.609 21.026 21.026 0 0 1 1.426 3.112 9.8 9.8 0 0 1 .932 2.191z"/><circle class="p" cx="662.548" cy="169.131" r="1.588"/><path class="x" d="M741.97 180.388c-.007 0-.013-.008-.021-.01-1.388-.41-2 .159-3.214-1.215a31.122 31.122 0 0 0-2.1-2.711c-1.535-1.437-3.027-2.5-5.2-2.107-2.237.407-5.949 1.88-7.583 3.445-1.99 1.9.126 4.653.731 6.954-.368.241-2.438 2.083-1.523 2.949a4.039 4.039 0 0 0 2.8.8 9.586 9.586 0 0 0 1.981-.041c3.335-.362 6.638-1.779 9.7-3.1 1.37-.59 5.565-2.85 5.688-3.532a1.225 1.225 0 0 0-1.259-1.432z"/><path class="e" d="M727.992 191.629a12.1 12.1 0 0 1 4.245-.039c.1-.132.205-.27.3-.412a2.426 2.426 0 0 0 1.987-3.349c.3-.515.581-1.04.865-1.563a28.22 28.22 0 0 1-7.55 2.188 9.79 9.79 0 0 1-1.911.045c.864.573 1.372 2.031 2.064 3.13z"/><path class="d" d="M751.446 213.675c-1.129.335-4.278 1.248-6.179 1.723 0 .011 0 .02.006.031a45.558 45.558 0 0 1 1.746 5.127c.517 2.478.122 3.375-1.482 5.224a8.922 8.922 0 0 1-.424.448l.141.846c.247 1.462.4 3.084.6 4.723a24.4 24.4 0 0 0 2.729-1.591c1.6-1.049 4.03-2.254 4.974-4.06.743-1.409-.887-8.246-2.111-12.471zm-32.682 5.453a13.078 13.078 0 0 1-.024-1.232 86.907 86.907 0 0 0-9.467-3.32 38.663 38.663 0 0 1 3.995-2.061 40.778 40.778 0 0 1-3.281-3.515 1.708 1.708 0 0 1-1.023-1.167l-.268-.3a.808.808 0 0 1-.214-.521c-.317.106-.633.211-.976.347-1.52.6-6.062 2.759-7.872 5-.065.036-.129.066-.193.1a.762.762 0 0 0-.381.837 1.98 1.98 0 0 0 .433 2.2c.794.888 14.1 4.913 19.982 7.079a20.557 20.557 0 0 1-.711-3.447z"/><path class="y" d="M751.912 210.195c-1.62-1.809-2.276-3.693-3.3-5.876-1.217-2.6-2.7-7.19-5.63-8.281-.068-.06-.13-.133-.2-.189-1.113-.883-2.95-1.273-4.217-1.913a24.867 24.867 0 0 0-3.785-1.777c-3.266-1.025-10.1-1.762-10.025 3.265a.347.347 0 0 1-.21.639c-2.071 2.2-5.263 2.791-7.8 4.325a88.9 88.9 0 0 0-7.888 5.846.845.845 0 0 0-.168 1.3l.268.3a1.708 1.708 0 0 0 1.03 1.166c2.434 2.822 5.23 6.1 8.846 6.22 0 1.3-.168 2.557-.069 3.907a47.216 47.216 0 0 0 .984 4.7 69.049 69.049 0 0 1 .692 10.851l-.44 2.468a68.39 68.39 0 0 0-1.059 1.741c-.533.925 4.741 2.191 5.806 2.109a76.83 76.83 0 0 1 6.37-.216c1.269.2 7.785.721 8.273.7.223-.01 3.577.3 5.06.583a.967.967 0 0 0 .265 0 .881.881 0 0 0 1.106-1.181 7.174 7.174 0 0 1-.136-2.612 11.015 11.015 0 0 0 1.972 3.262.762.762 0 0 0 1.278-.216c.938-.489.913-1.627.245-2.495-.755-.98-1.774-1.9-2.581-2.935-.779-2.881-.891-6.119-1.347-8.812a62.487 62.487 0 0 1-1.177-11.468.857.857 0 0 0 .329 0c1.882-.4 7.242-1.979 7.459-2.053.024-.008.037-.025.06-.035.125 0 .247-.006.373 0a.833.833 0 0 0 .828-.828 3.37 3.37 0 0 0-1.212-2.495z"/><path class="z" d="M750.075 247.174a75.844 75.844 0 0 0-2.086-5.414.778.778 0 0 1-.33-.229 11.015 11.015 0 0 1-1.972-3.262 7.174 7.174 0 0 0 .136 2.612.881.881 0 0 1-1.106 1.181.967.967 0 0 1-.265 0c-1.483-.28-4.837-.593-5.06-.583-.487.022-7-.5-8.273-.7a76.398 76.398 0 0 0-6.37.216 15.7 15.7 0 0 1-4.98-1.229c-.4 5.79 3.3 9.606 4.014 15.448.356 2.929-.412 10.159 2.627 11.807 2.107 1.143 8.944 1.4 10.316-1.335a38.259 38.259 0 0 0 1.546-6.7 26.132 26.132 0 0 1 5.258 7.582c.539 1.245 8.6.118 9.165-3.226.464-2.737-.769-6.613-1.139-9.366a34.666 34.666 0 0 0-1.481-6.802z"/><path class="d" d="M734.784 192.159a24.867 24.867 0 0 1 3.785 1.777c.1.049.2.1.308.142a2.826 2.826 0 0 0 1.313-1.284c.122-1.291.588-6.8.241-8.928-1.119.636-2.285 1.228-2.893 1.491-.852.367-1.726.74-2.611 1.1.155-.063.311-.124.465-.188-.284.523-.565 1.048-.865 1.563a2.426 2.426 0 0 1-1.987 3.349c-.1.141-.2.279-.3.412a17.01 17.01 0 0 1 2.544.566zm2.271-1.87l.009.035-.015-.017zm-.955 105.84c-1.889-4.854-.718-11.493-.346-16.328a55.7 55.7 0 0 0-.147-12.982c-2.432 1.483-7.442 1.153-9.194.2l-.011-.008a.891.891 0 0 0 .071.273 10.584 10.584 0 0 1 .675 2.162 31.174 31.174 0 0 0-1.32 8.927c.091 4.569 3.53 12.078 3.565 12.245s.456 1.5.5 1.832c.029.241-.009 6.173 1.2 9 .83-.113 1.768.023 2.592-.032a25.929 25.929 0 0 0 3.7-.54c.043-.034.081-.069.12-.1-.205-.899-1.669-3.744-1.405-4.649zm21.066-3.174a23.619 23.619 0 0 1-.577-1.713c.041-5.306.461-10.613-.627-15.858a61.952 61.952 0 0 0-3.318-10.278 3.5 3.5 0 0 0-.466-.635c-1.45 1.867-5.4 2.735-7.431 2.567 2.278 3.408 2 10.534 3.192 14.4 1.769 5.717 3.3 10.711 3.657 16.824.02.332.052.668.092 1a11.742 11.742 0 0 0 1.7.531 3.451 3.451 0 0 0 4.2-1.707c.814-.685.366-.769 1.486-1.3.035-.017.079-.03.115-.047a39.157 39.157 0 0 1-2.024-3.784z"/><path class="v" d="M764.942 295.885a14.171 14.171 0 0 0-5.869.9c-1.12.534-.672.618-1.486 1.3a3.451 3.451 0 0 1-4.2 1.707 11.758 11.758 0 0 1-1.71-.534c-.933-.331-1.357 1.009-.62 1.489a.812.812 0 0 0-.057.483c.283 1.45-.649 4.107.614 5.223.934.825 2.305.352 3.336.066 3.446-.957 9.488-2.8 11.767-5.76 1.499-1.939.862-4.682-1.775-4.874zm-22.438.771c-.961-1.957-4.634-1.7-6.25-.761-.8.465 1.116 4.067 1.261 4.962a26.175 26.175 0 0 1-3.836.566 18.081 18.081 0 0 0-2.929.077 1.436 1.436 0 0 0-1.212 1.793c.017.192.042.419.073.663-.7 1.773-.086 4.166 2.023 4.264a1.749 1.749 0 0 0 1.768-.345c2-.792 3.6-2.736 5.088-4.113 1.621-1.5 4.89-3.369 4.161-5.938-.067-.237.091-1.065-.151-1.168z"/><path class="e" d="M799.144 184.15a8.2 8.2 0 0 0-1.855-3.15 6.131 6.131 0 0 0-2.552-2.737c-3-3.036-8.348-.919-11.591.76a1.8 1.8 0 0 1-1.008 1.016l-.817 1.554a.706.706 0 0 0-.053.1l-.613 1.166a.956.956 0 0 0 .309 1.151c.309.357.824 1.25.746 1.377-.415.672.445 1.628 1.133 1.133.193-.139.369-.292.557-.435.072.042.144.085.218.125-.258.514.026 1.3.7 1.236a2.3 2.3 0 0 0 .977-.24 4.165 4.165 0 0 0 .063.424.769.769 0 0 0 1 .549.857.857 0 0 0 1.3-.433c.054-.16.091-.321.141-.481l1.452-.425.524.955a6.19 6.19 0 0 1 .23 1.752c.058 1.01.071 2.025.105 3.036a.846.846 0 0 0 1.5.483 1.134 1.134 0 0 0 .717.708 1.818 1.818 0 0 0 1.688-.385l.051.183c.2.725 1.48.849 1.6 0 .019-.137.025-.273.03-.409a.844.844 0 0 0 .877-.8l.025-.241a.766.766 0 0 0 .769-.793s2.007-6.023 1.777-7.179z"/><path class="d" d="M784.033 196.37a1.466 1.466 0 0 0 1.545.222 6.48 6.48 0 0 0 2 .193c.038.111.069.222.116.332a4.275 4.275 0 0 0 .583.971c.234-.156.375-.251.381-.257a.748.748 0 0 1 .791-.839 40.9 40.9 0 0 1 7.935.777 2.739 2.739 0 0 0-.067-.536c-.122-.526-.77-1.023-1.039-1.473-.1-.159-.18-.318-.261-.477a11.756 11.756 0 0 0-.337-1.824c0 .037 0 .074-.008.111-.116.849-1.4.725-1.6 0l-.051-.183a1.818 1.818 0 0 1-1.688.385 1.134 1.134 0 0 1-.717-.708.846.846 0 0 1-1.5-.483c-.034-1.011-.048-2.026-.105-3.036a6.19 6.19 0 0 0-.23-1.752l-.524-.955-1.452.425c-.049.16-.087.321-.141.481a.857.857 0 0 1-1.3.433.769.769 0 0 1-1-.549 4.165 4.165 0 0 1-.063-.424 2.3 2.3 0 0 1-.977.24c-.676.062-.96-.722-.7-1.236a8.089 8.089 0 0 1-.218-.125c-.188.143-.364.3-.557.435a.687.687 0 0 1-.788.022 13.107 13.107 0 0 0-.091 2.294c.081 1.824.479 6.386 2.063 7.536zm3.259-1.258v.024h-.022c.008-.008.016-.015.023-.024zm-7.927 13.145c.042-.166.077-.353.111-.548a.6.6 0 0 0-.21-.183 2.171 2.171 0 0 0-1.367-.2 1.39 1.39 0 0 0-1.5-.389.822.822 0 0 0-.578.578 24.564 24.564 0 0 0-.246 5.338.807.807 0 0 0 .843.8 14.957 14.957 0 0 0 .327 2.306c.2-.5.473-1.013.661-1.5a52.95 52.95 0 0 0 1.959-6.202zm6.243 11.732a.8.8 0 0 1-.025-.1 23.1 23.1 0 0 1-4.984-.625c-.009.022-.015.035-.018.035l-.026-.045q-.788-.186-1.568-.428c-.009.011-.02.019-.029.031l-.006-.042c-.391-.123-.784-.236-1.173-.38a.827.827 0 0 1-.174-.107 1.528 1.528 0 0 1-.38-.159c.9 3.739 2.484 8.529 4.32 9.614a.684.684 0 0 0 .171.144 3.78 3.78 0 0 0 1.308-.141c.068-.028.135-.054.2-.076a4.142 4.142 0 0 0 2.239-2.139 17.471 17.471 0 0 0 .636-3.727 5.745 5.745 0 0 0-.491-1.855z"/><path class="aa" d="M805.238 213.958a44.966 44.966 0 0 0-.641-7.445c-1.289-9.138-7.588-9.228-15.151-9.522a.748.748 0 0 0-.791.839c-.034.032-4.117 2.759-6.664 4.217-.534.306-.932.366-1.3.822-.963 1.185-.956 3.918-1.323 5.388a52.95 52.95 0 0 1-1.964 6.2c-.482 1.253-1.579 2.662-.262 3.665a1.373 1.373 0 0 0 .466.207.827.827 0 0 0 .174.107 23.094 23.094 0 0 0 7.8 1.454.8.8 0 0 0 .025.1c1.223 2.574.342 6.732-2.38 7.721a2.243 2.243 0 0 0-.2.076 3.778 3.778 0 0 1-1.311.141.762.762 0 0 0-.184.026.721.721 0 0 0-1.062.511q-1.207 6.245-1.992 12.552a5.041 5.041 0 0 1 2.687-1.661l11.446-.395c1.994-.069 5.407-.948 7.213.159a2.058 2.058 0 0 1 1.013 1.515 1.7 1.7 0 0 0 .284-.835l.036-.561a9.9 9.9 0 0 0 .233-3.571.769.769 0 0 0 .044-.361l-.016-.179.742-11.681c.632-2.283 2.235-4.514 2.75-6.7.015-.064.021-.132.035-.2.355-.047.555-2.262.293-2.589z"/><path class="ab" d="M799.821 239.118c-1.807-1.106-5.22-.227-7.213-.159l-11.446.395c-.632.022-3 1.259-2.923 2.343l1.311 19.789c.271 4.093.378 5.549 4.75 5.616 3.442.053 5.6-.333 6.566-3.882.133-.49.254-.977.376-1.465 2.6.27 4.446-.665 4.583-3.675.155-3.415.249-6.825.681-10.19a25.6 25.6 0 0 1 2.084-3.039c.639-.817 1.748-1.743 2.087-2.769a2.338 2.338 0 0 0-.856-2.964z"/><path class="d" d="M801.238 282.709a9.7 9.7 0 0 0 .833 2.426.792.792 0 0 0 .168.249c.3-.361.6-.707.9-1a10.859 10.859 0 0 1 3.725-2.805c.053-.019.115-.039.184-.058.17-.574-.164-1.086-.66-1.852-.421-.651-.6-1.628-1.3-1.729-1.525-2.566-3.615-5.056-4.694-6.848-1.441-2.393-3.121-7.357-5.65-10.213a4.262 4.262 0 0 1-3.5.879c-.122.487-.243.974-.376 1.465-.7 2.556-2.013 3.468-3.981 3.76l.087.139a.939.939 0 0 0-.085.041c-.015-.059-.038-.114-.058-.171a16.531 16.531 0 0 1-2.529.113 10.6 10.6 0 0 1-2.042-.193c.076 2.969-.212 5.732.7 8.611 1.229 3.863 3.011 7.406 3.85 11.421.054.258.1.638.164 1.088-.035.814-.055 1.6-.035 2.342.865 1.115 1.712 2.156 3.614 1.825a1.046 1.046 0 0 1 .192-.012 4.808 4.808 0 0 1 1.134-1.335 1.013 1.013 0 0 1 .712-.089c-.162-.73-.527-1.443-.674-2.125a37.833 37.833 0 0 1-.9-7.227c-.071-3.143.66-6.466.336-9.576a7.314 7.314 0 0 0-1.717-3.809 2.081 2.081 0 0 0 .264-.71c2.323 2.857 4.6 5.748 6.788 8.711a46.638 46.638 0 0 1 4.543 6.652c.007.009.004.021.007.03z"/><path class="v" d="M808.386 281.526c-.162-.284-1.116-.095-1.523.052a10.859 10.859 0 0 0-3.725 2.805c-1.373 1.352-2.726 3.74-4.678 4.187a.849.849 0 0 0-.608.8c-.118 1.264 1.208 1.88 2.133 2.5a4.15 4.15 0 0 0 3.582.89c1.468-.447 2.245-1.816 3.284-2.818 1.011-.974 2.429-1.576 2.961-2.967.518-1.353.208-4.949-1.426-5.449zm-16.506 9.324a4.808 4.808 0 0 0-1.134 1.335 1.046 1.046 0 0 0-.192.012c-3.028.526-3.38-2.423-5.394-3.615-1.029-.1-2.794-2.194-2.913-2.469-.4-.454-.4-.71-.912-.991a.816.816 0 0 0-.836 0c-1.452 1.093-2.662 3.816-2.911 5.6-.311 2.223 1.876 2.936 3.6 3.8a29.626 29.626 0 0 0 8.476 2.9c.286.046 3.007.095 3.141-.159h.073c2.349-.342 1.854-4.3 1.287-5.757-.189-.471-1.855-1.006-2.285-.656z"/><path class="d" d="M881.516 166.9a16.244 16.244 0 0 0 .719-3.027.8.8 0 0 1-.157.146 6.981 6.981 0 0 0-1.425 1.167c.1.319.211.69.318 1.027.184.228.364.458.545.687zm-1.3 3.038c.125-.233.229-.469.344-.7a1.3 1.3 0 0 1-.377.3.844.844 0 0 1-1.128-.3 4.587 4.587 0 0 1-.513-1.127.877.877 0 0 1-.28-.174 7.237 7.237 0 0 1-2.047-3.4 8.353 8.353 0 0 1-.778.436c-.155.076-.316.138-.474.2-.113.047-.223.1-.338.144a8.484 8.484 0 0 1-.68.211c-.054.015-.106.035-.16.049a8.332 8.332 0 0 1-.83.164l-.03.006a8.123 8.123 0 0 1-3.555-.274 5.283 5.283 0 0 1 .668 2.6c.042.324 1.158 4.093 2.3 4.3.069.147.2.266.26.427 2.077 5.156 6.592.379 8.774-.624.492-.226.859-.241.171-1.295a.823.823 0 0 1-1.327-.942z"/><path d="M882.513 155.37a.882.882 0 0 0-.564-.7 5.7 5.7 0 0 0-1.261-.343 1.271 1.271 0 0 1-.182-.206.861.861 0 0 0-1.362-.074c-.451-1.918-2.549-1.49-3.945-.516-1.165-.466-2.15.244-3.073 1.023a20.779 20.779 0 0 0-3.543 3.939.7.7 0 0 0-.131.466 2.729 2.729 0 0 0-.127.248.656.656 0 0 0 .126.7 12.066 12.066 0 0 0-.558 1.6.772.772 0 0 0 .508.951c-.056.339-.1.681-.124 1.029a.7.7 0 0 0 .335.653 2.619 2.619 0 0 0-.044.494.845.845 0 0 0 .605.8 8.274 8.274 0 0 0 7.042-.887 7.237 7.237 0 0 0 2.047 3.4.877.877 0 0 0 .28.174 4.587 4.587 0 0 0 .513 1.127.844.844 0 0 0 1.128.3 1.3 1.3 0 0 0 .377-.3c-.115.234-.218.47-.344.7-.5.935.922 1.769 1.424.832 1.497-2.8 3.96-12.431.873-15.41zm-1 11.531c-.181-.23-.361-.46-.545-.687-.106-.337-.22-.708-.318-1.027a6.981 6.981 0 0 1 1.425-1.167.8.8 0 0 0 .157-.146 16.244 16.244 0 0 1-.716 3.026z"/><path class="g" d="M887.621 176.427c-.892-2.09-3.113-2.719-4.526-4.363a.713.713 0 0 0-.393-.236.867.867 0 0 0-.965.079 5.263 5.263 0 0 1-.268.191c-.034.025-.053.063-.094.082s-.094.046-.141.07c-.225.142-.482.3-.785.461-2.355 1.517-6.033 4.6-7.849.093-.065-.161-.191-.28-.26-.427a1.357 1.357 0 0 1-.739-.581.248.248 0 0 0-.1.039 22.926 22.926 0 0 1-2.346 1.352c-.03.015-.043.038-.069.055-1.266.042-2.534.014-3.411.961a55.265 55.265 0 0 0-5.758 8.022.741.741 0 0 0 .259.824c.087-.089.167-.181.255-.269.515-.456 1.922-2.116 2.322-2.067a1.653 1.653 0 0 1 1.162.267c1.33.642 4.013 1.882 1.544 4.387.008.016.012.035.02.051 0 .087-.005.165 0 .223.016.839-.077 1.7.006 2.532h.365a33.723 33.723 0 0 0 12.094-1.058c.3-.07 1.949-.057 2.1.51a9.548 9.548 0 0 1 1.9-.821c.667-.214 1.092.439 1.015 1.014-.289 2.147-.894 6.044-2.859 7.452s-12.982 1.014-14.941.576a.737.737 0 0 1-.536-1.015c-.112-.056-.2-.123-.307-.184a38.763 38.763 0 0 0-3.3 7.016c-.515 1.423-2.274 4.426-1.37 5.921 1.021 1.688 5.577 1.648 7.288 2.045.867.2 1.73.416 2.593.631 1.052.268 2.1.523 3.091.808.017 0 .034 0 .05.005q3.878 1.04 7.715 2.23a.706.706 0 0 0 .751-.182.776.776 0 0 0 .227-.181 4.273 4.273 0 0 0 .825-2.81c.119-1.963 2.013-9.545 1.892-9.763a64.739 64.739 0 0 0 1.028-9.479c1.259-.834 1.742-3.067 2.013-5.107.397-1.444 1.165-7.798.502-9.354zm-19.569 11.388c-.051-.027-.092-.06-.138-.09.07.04.14.078.211.116-.025-.008-.053-.015-.073-.025z"/><path class="d" d="M881.939 186.808a9.548 9.548 0 0 0-1.9.821c-.149-.567-1.8-.58-2.1-.51a33.723 33.723 0 0 1-12.094 1.058 4.139 4.139 0 0 1-2.118-.353c1.188-1.094.938-1.156 1.563-2.281 2.781-2.625-.013-3.9-1.375-4.562a1.653 1.653 0 0 0-1.162-.267c-.4-.049-1.806 1.611-2.322 2.067-2.627 2.609-4.416 5.533-4.151 9.453a.872.872 0 0 0 .605.8 27.014 27.014 0 0 0 4.78.949l1.862.066a3.562 3.562 0 0 0 1.087.793.737.737 0 0 0 .536 1.015c1.959.439 12.987.823 14.941-.576s2.57-5.3 2.859-7.452c.081-.582-.344-1.235-1.011-1.021z"/><path class="a" d="M883.586 250.65c-.763-1.92-3.718-1.922-5.508-2.4a.838.838 0 0 0-.925 1.216 2.557 2.557 0 0 0-.633 1c-1.141 3.194 1.1 6.741.076 9.943-.465 1.451-1.917 3.172-.163 4.219a7.536 7.536 0 0 0 5.6.032c1.955-1.03 1.436-2.358 1.154-4.132-.492-3.073 1.652-6.728.399-9.878zm-11.453 1.567c-.41-1.159-.135-2.52-.621-3.61-.528-1.183-1.374-1.193-2.458-1.644a8.832 8.832 0 0 0-4.949-.808c-1.046.108-1.057 1.758 0 1.649.315-.032.643-.056.975-.071a.884.884 0 0 0-.1.36c-.117 2.708-5.235 5.373-7.534 5.82a.816.816 0 0 0-.576.576c-.75 2.706 4.3 2.761 5.805 2.6 2.23-.237 3.561-1.223 5.831-.718 1.123.25 2.7.659 3.76-.142a2.15 2.15 0 0 0 .614-2.4 16.453 16.453 0 0 0-.747-1.613z"/><path class="ac" d="M865.238 246.094a9.057 9.057 0 0 1 3.817.869c.858.356 1.564.446 2.084 1.051a1.586 1.586 0 0 0 .037-.278q-.448-12.821-1.764-25.58a1.738 1.738 0 0 0 .206-.218 29.38 29.38 0 0 1 1.408-1.672c.181 9.5 2.568 18.543 6.284 28.2a.744.744 0 0 1 .77-.211 34.8 34.8 0 0 1 3.733.863.988.988 0 0 0 .017-.158c-.025-.939-.172-8.059-.38-8.84-.918-3.438-1.5-8.2-3.1-11.761.079-4.362 1.627-7.394 2.37-11.489a16.987 16.987 0 0 0 .16-3.579.711.711 0 0 1-.506.02q-3.837-1.191-7.715-2.23c-.017 0-.034 0-.05-.005-.995-.285-2.039-.54-3.091-.808a174.85 174.85 0 0 0-2.593-.631c-1.143-.265-3.55-.338-5.33-.858-.944 9.765 1.213 20.863 3.117 30.1.238 1.148-.073 4.715.526 7.215z"/><path class="d" d="M903.54 194.493c.043-.072.079-.143.12-.214-.062-.3-.114-.608-.153-.916.078-4.092 1.7-11.644-.562-15.276a.826.826 0 0 1-.493-.753c-.377 0-1.858 2.446-1.841 2.861a55.068 55.068 0 0 1-.711 11.205q-.448.493-.909.973c-.182-.013-4.192 2.461-6.312 2.9-.34-.034-.683-.049-1.027-.058a16.7 16.7 0 0 0-3.535-.66.618.618 0 0 0-.507.193 2.673 2.673 0 0 0-.776.265 1.189 1.189 0 0 0-.428 1.883c.34.426 1.174 1.024 1.128 1.11a.761.761 0 0 0 .649 1.132c3.8.195 14.973-4 15.357-4.645zm1.874 52.696l-.013 4.146a1.892 1.892 0 0 0-.217.825 8.67 8.67 0 0 0 3.134.494c.3-.888.348-2.043.538-2.732 1.53-5.544 2.53-10.506 2.245-16.128 1.123 2.213 1.395 4.045 2.326 6.345 1.587 3.923.095 6.346-.473 10.044a.779.779 0 0 1 .237.029c1.345.389 2.979 1.162 3.918-.1a26.571 26.571 0 0 1 .747-3.116.845.845 0 0 1 .118-.231 28.155 28.155 0 0 0-.18-3.469c.322-1.846 1.236-3.319.816-5.289-.288-1.351-1.137-2.707-1.509-4.065-.165-.769-.165-1.019.283-1.315-1.29 0-2.6-.025-3.96-.031-2.868-.013-5.751.442-8.62.359a33.807 33.807 0 0 0 .469 11.8 22.02 22.02 0 0 1 .141 2.434zm9.483-8.932v.014z"/><path class="p" d="M917.855 246.991a26.571 26.571 0 0 0-.747 3.116c-.939 1.265-2.573.492-3.918.1a.751.751 0 0 0-.788 1.168v.017a3.782 3.782 0 0 0 .05.8 11.2 11.2 0 0 1-1.076 4.139 2.093 2.093 0 0 0-.172 1.583c.537 1.3 2.594 1.072 3.68.838a4 4 0 0 0 3.227-2.83 18.93 18.93 0 0 0 .226-3.631 18.3 18.3 0 0 1 .135-1.221 7.9 7.9 0 0 1 .25-1.961c.125-.926-.578-3.073-.867-2.118zm-9.142 3.832a4.973 4.973 0 0 1-.191 1.835 7.621 7.621 0 0 1-4.149-.9.763.763 0 0 0-1.1.449 25.039 25.039 0 0 1-2.113 4.3c-.4.641-1.247 1.459-1.136 2.316.076.593 2.363 2.923 3.365 2.644.184-.051 3.311-1.111 3.9-1.9a11.343 11.343 0 0 0 1.832-4.578 6.958 6.958 0 0 0 1.1-4.166c-.084-.957-1.589-.966-1.508 0z"/><path class="e" d="M907.222 164.25a7.554 7.554 0 0 0 1.216.219.784.784 0 0 0-1.216-.219zm.912 2.21c-.226-.029-.453-.044-.679-.076h-.048c-.48-.039-.951-.117-1.422-.193-.078.2-.162.4-.225.61-.294.665-1.517 2.159-1.6 2.5a9.648 9.648 0 0 0-.233 1.4 4.405 4.405 0 0 0-.13 2.069 8.211 8.211 0 0 0 .821 2.222 9.235 9.235 0 0 0 .752 1.372.76.76 0 0 0 1.4-.38l.021-.169.016.006.373.615a.735.735 0 0 0 1.366-.363.7.7 0 0 0 .3-.8 16.453 16.453 0 0 1-.712-8.813zm13.725 8.135c-.59-1.592-1.746-2.961-2.365-4.5-.034-.885-.017-1.756-.036-2.515a21.261 21.261 0 0 1-2.566-.2 15.056 15.056 0 0 0 .042 3.806 6.431 6.431 0 0 1-.652 2.047c-1.643 1.813-.709 2.751.263 2.633 1.427-.174 2.45 2.21 3.634 2.194a1.5 1.5 0 0 0 .932-.292c1.267-.401 1.157-2.068.748-3.168z"/><path class="x" d="M906.831 162.483c1.392 1.037 5.046.714 6.729.845l6.572.512a.848.848 0 0 1 .3.082c-.218-3.605-2.085-5.73-6.343-6.2-1.855-.206-4.708-.243-6.293.958a5.129 5.129 0 0 0-1.659 3.664.831.831 0 0 1 .694.139zm16.034 2.57l-2.049-.092a.641.641 0 0 1-.684.383l-9.311-.725c-1.8-.14-3.635.02-5.1-1.072a.641.641 0 0 1-.229-.306 17.138 17.138 0 0 1-2.743-.182c-.191-.03-1.415.135-1.543.451a.821.821 0 0 0 .16 1.426c.435.172 2.026.695 2.24.743a20.023 20.023 0 0 0 3.8.705h.048a48.935 48.935 0 0 0 5.546.462c.4.054.8.118 1.208.165 2.666.31 6.173 1.168 8.668-.082a.65.65 0 0 0 .326-.437.773.773 0 0 0-.337-1.439z"/><path class="p" d="M905.721 163.547c1.466 1.092 3.3.932 5.1 1.072l9.311.725c1.008.078 1-1.426 0-1.5l-6.572-.512c-1.683-.131-5.337.192-6.729-.845-.789-.588-1.908.47-1.111 1.064z"/><path class="d" d="M908.679 174.744a.119.119 0 0 0 .046-.016c-.03-.032-.057-.071-.085-.107zm-.577 4.041l.052-.448c-.018.147-.038.295-.055.442zm.052-.448l.019-.153c-.008.051-.013.102-.019.153zm8.392-2.475c-.972.118-1.906-.82-.263-2.633a5.489 5.489 0 0 0 .652-2.047c-.02-.132.027-.624 0-.757a9.687 9.687 0 0 1-.042-3.051c-.937-.122-1.853-.268-2.683-.365-.4-.047-.805-.111-1.208-.165a49.454 49.454 0 0 1-4.867-.386 16.362 16.362 0 0 0 .5 8.15c.026-.013.059.006.089.119l-.025.082c.05.152.09.3.145.455a.7.7 0 0 1-.3.8.761.761 0 0 1-.161.413c-.073.568-.143 1.135-.213 1.7 1.707 1.42 3.437 2.881 8.637.5a4.976 4.976 0 0 0 1.746-1.313c.038-.082.076-.166.115-.243v-.009c-.643-.634-1.318-1.348-2.122-1.25z"/><path class="p" d="M908.405 198.129c-1.736-7.312-.916-14.79.064-22.295.125-.957-1.38-.948-1.5 0-1 7.629-1.794 15.263-.012 22.691a12.947 12.947 0 0 0 1.448-.396zm16.037 3.826a1.593 1.593 0 0 0-1.47-1.469c-.3.1-.608.18-.914.266a1.618 1.618 0 0 0-.42.444c-1.025 1.617-4.8 1.672-6.447 1.7a19.079 19.079 0 0 1-4.022-.39 6.748 6.748 0 0 1-3.171-.211 3.937 3.937 0 0 0-1.051 2.051c.382 2.475.9 6.127 2.693 8.04 1.542 1.641 4.51 1.882 6.6 1.615a10.374 10.374 0 0 0 6.956-4.021c1.965-2.58 1.529-4.964 1.247-8.025z"/><path class="ad" d="M909.45 199.223l-.153.051.147-.011c0-.014.005-.026.006-.04zm12.85-22.507a1.873 1.873 0 0 1 .593-.122 1.151 1.151 0 0 1 .438-.254.731.731 0 0 0-.511-.541c-.259-.06-.5-.106-.716-.14a2.671 2.671 0 0 1-.131 1.254 1.725 1.725 0 0 1 .327-.197zm-8.023 25.484a101.112 101.112 0 0 1-3.106.306 19.077 19.077 0 0 0 4.021.39c1.643-.027 5.422-.083 6.447-1.7a1.618 1.618 0 0 1 .42-.444 47.885 47.885 0 0 1-7.4 1.4zm-4.548-4.605l.026-.011a13.239 13.239 0 0 0 1.317-.715.756.756 0 0 1 .911.118 3.5 3.5 0 0 0 .494.464c1.711.125 3.548.456 5.342.53.517-.135 1.039-.3 1.556-.494.252-.092.5-.2.746-.3s.51-.2.759-.313c.371-.166.729-.342 1.082-.518.1-.052.214-.1.316-.154.439-.225.861-.453 1.257-.677l.2-.895c-.264-1.918-.386-3.828-.514-5.731-.029-.415-.057-.831-.089-1.246a5.436 5.436 0 0 1-.049-.558 30.809 30.809 0 0 0-1.194-6.788 6.939 6.939 0 0 1-.617-1.635 1.718 1.718 0 0 1 .092-1.035 1.31 1.31 0 0 1-.256.131 1.5 1.5 0 0 1-.932.292 2.362 2.362 0 0 1-1.452-.887 5.121 5.121 0 0 1-1.918 1.512c-5.2 2.385-6.931.922-8.639-.5-.826 6.715-1.324 13.4.231 19.946a12.947 12.947 0 0 0 1.331-.537zm16.344 10.5a8.989 8.989 0 0 0-.024-.224 11.478 11.478 0 0 0-.448-2.2c-.457-1.749-1.055-3.6-1.672-5.512-.317.114-.633.231-.957.334a1.593 1.593 0 0 1 1.47 1.469c.282 3.061.718 5.446-1.249 8.025a10.374 10.374 0 0 1-6.955 4.013c-2.087.267-5.055.025-6.6-1.615-1.8-1.913-2.311-5.565-2.693-8.04a3.937 3.937 0 0 1 1.055-2.051 4.963 4.963 0 0 1-1.822-1.547l-.016-.02a30.849 30.849 0 0 1-.705-.9.755.755 0 0 1 .449-1.1c.361-.051.7-.124 1.048-.2-1.679-7-1.069-14.178-.159-21.365a4.587 4.587 0 0 0-1.148-.492 8.716 8.716 0 0 0-.631-.255.655.655 0 0 0-.593.1 6.673 6.673 0 0 0-1.437.167.739.739 0 0 0-.04 1.408c2.263 3.632.64 11.184.562 15.276a12.411 12.411 0 0 0 .91 3.342 19.645 19.645 0 0 1-.374 6.742c-2.027 1.388-3.952 4.272-4.91 5.711a24.16 24.16 0 0 0-3.01 6.439 41.938 41.938 0 0 0-6.353 10.533.762.762 0 0 0 .525.925c1.078.341 2.072.693 3.02 1.044 3.058 2.437 6.329 4.458 10.4 4.795 3.226.266 6.475-.316 9.7-.3 1.441.006 2.817.042 4.177.032 1.857.26 3.892-.336 5.565.7a1.224 1.224 0 0 0 1.2-.132c.345-.034.321-.231.319-.679a76.467 76.467 0 0 1 1.655-15.359 17.293 17.293 0 0 0-.259-9.067z"/><path class="d" d="M928.392 193.662c.01-1.237-2.43-14.188-2.58-14.486-.178-.742-2.126-3.319-2.915-2.582a1.873 1.873 0 0 0-.593.122 1.633 1.633 0 0 0-1.027 1.952 6.939 6.939 0 0 0 .617 1.635c1.57 4.983 1.132 9.988 1.942 15.054a25.855 25.855 0 0 1-6.016 2.622c-1.794-.074-3.631-.405-5.342-.53a3.5 3.5 0 0 1-.494-.464.756.756 0 0 0-.911-.118 12.868 12.868 0 0 1-5.167 1.855.755.755 0 0 0-.449 1.1c2.182 2.894 2.722 2.953 6.553 2.606 4.632-.42 9.935-1.154 14.158-3.2 2.202-1.064 2.609-3.15 2.224-5.566z"/></svg>