<svg xmlns="http://www.w3.org/2000/svg" width="1095.088" height="387.304" viewBox="0 0 1095.088 387.304"><defs><style>.a{fill:#fafafa}.b{fill:#34495e}.c{fill:#eb5256}</style></defs><title>big-top</title><path class="a" d="M634.178 42.979l-14.98-4.2a.738.738 0 0 0-1.226.552l.67 17.576c.435-.233.853-.464 1.233-.689.073.108.17.226.254.339l-.293-7.676zm-311.022-4.2a.738.738 0 0 0-1.226.552l.689 18.066a12.808 12.808 0 0 0 .936-1.178c.169.1.351.2.531.3l-.291-7.641 14.342-5.9zM469.291.169a.738.738 0 0 0-1.226.552l.84 22.042c.429-.411.832-.812 1.2-1.2.079.114.18.237.266.354l-.444-11.643 14.342-5.9z"/><path class="b" d="M349.442 90.1c-12.255-14.267-22.189-26.58-25.888-33.878 2.574 8.035 8.841 22.283 16.31 38.641q4.824-2.395 9.578-4.763zm7.773-3.881q3.8-1.9 7.532-3.777c-19.96-10.854-35.458-20.16-41.193-26.22 4.69 6.678 17.492 17.452 33.661 29.997zm17.166-8.638c-24.776-8.666-43.6-16.134-50.826-21.36 6.616 5.559 24.151 13.745 47.045 23.272q1.9-.959 3.78-1.912zM231.13 148.93c17.018-8.651 34.863-17.536 52.83-26.428 20.752-27.338 38.18-56.309 39.594-66.281-3.792 13.093-49.172 59.42-92.424 92.709zm92.476-46.015c.778-20.169.814-38.973-.051-46.694-.136 8.645-6.956 31.381-16.089 54.666q8.106-4.002 16.139-7.972zm296.553 7.777q9.66 4.706 19.508 9.353C628.733 93.808 620.028 66 619.874 56.222c-.974 8.707-.805 31.509.284 54.47zm-19.439-9.622c8.694-18.918 16.259-35.812 19.154-44.848-4.145 8.18-16.121 22.657-30.424 39.13q5.572 2.853 11.27 5.718zm120.657 54.676c-45.742-33.423-97.443-85.511-101.5-99.524 1.6 11.252 23.582 46.7 47.727 76.689 18.096 8.129 36.218 15.852 53.773 22.835zm45.147 8.774l27.411 2.085c-74.867-35.693-166.118-95.37-174.061-110.384 6.387 14.958 83.521 73.841 146.65 108.299zM619.874 56.222c-7.994 5.778-30.18 14.307-58.925 24.164q2.1 1.129 4.222 2.265c26.607-10.872 47.367-20.265 54.703-26.429zM571.78 86.163q4.266 2.253 8.634 4.524c18.866-14.44 34.222-27 39.46-34.465-6.38 6.741-24.842 17.501-48.094 29.941zm75.62 69.295l32.13 2.444C590.7 115.266 481.846 42.272 470.107 21.56c9.782 20.276 98.787 90.653 173.465 133.607l-55.954-4.257 11.607.883C542.69 108.619 477.446 41.312 470.107 21.56c4.921 19.258 47.7 83.715 85.869 126.943l-33.82-2.573c-23.4-43.171-49.046-105.491-52.049-124.37 1.181 18.53 11.1 78.91 20.333 121.957l23.638 1.8-42.907-3.264-8.724.664-12.869.979-21.478 1.632 21.03-1.6c8.611-47.345 19.076-100.262 20.977-122.168-4.828 22.288-31.784 76.679-53.478 124.641l-34.324 2.611c35.156-48.583 79.9-104.558 87.8-127.252-11.744 23.209-79.531 81.227-131.125 130.548l-43.635 3.32c67.49-50.009 159.169-110.136 174.762-133.868-18.642 24.151-129.853 85.995-209.475 136.508l15.48-1.178-23.06 1.754-39.281 2.988-36.69 2.791c63.1-34.471 140.092-93.26 146.473-108.2-7.935 15-99.027 74.582-173.856 110.286l-54.437 4.141v29.593l375.909 16.541 375.91-16.542v-29.593z"/><path class="c" d="M109.217 169.482l-4.872.373 3.723 6.257 5.126-6.827.155-.012 3.665 6.16 5.128-6.829.153-.012 3.665 6.161 5.128-6.83.151-.011 3.666 6.162 5.13-6.831.149-.011 3.667 6.163 5.131-6.832.147-.011 3.668 6.164 5.212-6.94-8.07.617c74.784-35.716 165.689-95.186 173.616-110.171-10.249 15.078-121.897 75.71-214.338 113.26zM379.277 75.1c-27.191-7.549-47.655-14.1-55.723-18.878 7.225 5.226 26.05 12.694 50.826 21.36l4.897-2.482zm467.8 100.435v.979a.767.767 0 0 0 .003-.982zM619.874 56.222c7.934 15 99.009 74.57 173.834 110.275l-.56-.043 5.211 6.94 3.673-6.173.135.01 5.137 6.842 3.672-6.171.137.01 5.136 6.84 3.671-6.17.139.011 5.135 6.839 3.67-6.169.141.011 5.134 6.837 3.723-6.257-3.37-.258C742 132.056 630.133 71.311 619.874 56.222zM470.107 21.56c11.731 20.7 120.447 93.607 209.238 136.255l-2.49-.19 5.212 6.941 3.682-6.19.112.009 5.151 6.86 3.682-6.188.114.009 5.15 6.859 3.681-6.187.116.009 5.145 6.853 3.68-6.186.117.009 5.148 6.856 3.68-6.184.119.009 5.147 6.854 3.679-6.183.121.009 5.146 6.853 3.678-6.182.123.009 5.145 6.852 3.677-6.18.125.009 5.143 6.85 3.676-6.179.126.01 5.143 6.849 3.676-6.178.128.01 5.141 6.847 3.723-6.257-8.908-.682c-63.095-34.472-140.083-93.254-146.463-108.2 4.059 14.012 55.754 66.1 101.494 99.518-17.552-6.982-35.668-14.7-53.768-22.829-24.145-29.991-46.13-65.437-47.727-76.689.154 9.777 8.857 37.581 19.789 63.816q-9.829-4.637-19.505-9.346c-1.089-22.961-1.26-45.763-.284-54.47-2.895 9.036-10.461 25.93-19.154 44.848q-5.694-2.863-11.27-5.719c14.3-16.472 26.279-30.95 30.424-39.13-5.238 7.461-20.593 20.024-39.457 34.463q-4.367-2.272-8.631-4.525c23.249-12.438 41.709-23.2 48.088-29.938-7.336 6.164-28.093 15.556-54.7 26.427-1.413-.755-2.834-1.512-4.228-2.263C589.694 70.529 611.88 62 619.874 56.222c-8.9 5.273-32.876 12.7-64.33 21.236-45.028-24.511-78.616-46.081-85.437-55.898zm119.34 73.79q-4.226-2.165-8.364-4.318 4.146 2.154 8.364 4.318zm-19.806-10.323q-1.517-.8-3.022-1.606 1.503.801 3.022 1.606zm-8.7-4.644q-2.461-1.326-4.877-2.64 2.42 1.314 4.877 2.639zm-265.478 74.958l-3.26.249 3.723 6.257 5.148-6.857.117-.009 3.681 6.186 5.15-6.858.115-.009 3.681 6.188 5.151-6.86.113-.009 3.682 6.189 5.152-6.861.111-.008 3.683 6.19 5.153-6.863.109-.008 3.684 6.192 5.212-6.941-6.805.521c51.585-49.3 119.308-107.275 131.046-130.472-15.586 23.72-107.169 83.792-174.646 133.783zm-12.282 1.011l.065-.087-8.934.684.044.075 3.678 6.183zM370.6 79.494c-22.894-9.528-40.429-17.713-47.045-23.272 5.734 6.06 21.232 15.366 41.193 26.22q-3.732 1.876-7.533 3.777c-16.168-12.545-28.97-23.316-33.66-30 3.7 7.3 25.888 33.878 25.888 33.878s-4.058 2.023-9.577 4.763c-7.466-16.36-13.738-30.604-16.312-38.638.865 7.721.829 26.525.051 46.694q-8.025 3.967-16.141 7.973c9.136-23.289 15.954-46.023 16.09-54.667-1.415 9.971-18.843 38.943-39.594 66.281-17.969 8.894-35.817 17.78-52.838 26.432h.008c43.252-33.289 88.632-79.616 92.424-92.709-6.374 14.928-83.217 73.609-146.277 108.095l-1.367.1 3.723 6.257 5.135-6.838.14-.011 3.671 6.17 5.136-6.84.138-.01 3.672 6.171 5.137-6.841.136-.01 3.672 6.172 5.138-6.842.135-.01 3.673 6.174 5.139-6.844.133-.01 3.674 6.175 5.14-6.845.131-.01 3.675 6.176 5.141-6.847.129-.01 3.676 6.177 5.142-6.848.127-.01 3.676 6.179 5.143-6.85.126-.01 3.677 6.18 5.144-6.851.067-.09-4.575.35c79.613-50.5 190.7-112.278 209.327-136.414-11.361 12.004-50.762 33.322-99.508 57.933zm-101.51 84.392l5.145-6.852.122-.009-.122.009.066-.088-8.935.684.045.076-.124.009.124-.009zm14.212-7.542l3.679 6.184 5.212-6.941-8.935.684zm315.835-4.619l-2.792-.214 5.212 6.941 3.689-6.2.1.007 5.161 6.873 3.688-6.2.1.007 5.16 6.872 3.688-6.2.1.008 5.159 6.87 3.687-6.2.1.008 5.158 6.869 3.686-6.2.1.008 5.157 6.867 3.723-6.257-6.57-.5C568.786 112.127 479.883 41.823 470.107 21.56c7.335 19.74 72.515 86.988 129.03 130.165zm-231.645 4.689l5.212-6.94-8.935.684zm8.946-.679l5.212-6.941-8.934.684zm53.674-4.076l5.212-6.94-8.934.684zm81.989 0l3.723-6.257-8.935-.684zm-90.934.679l5.212-6.94-8.935.684zm81.989-1.358l3.723-6.257-8.934-.684zM349.6 157.773l5.212-6.941-8.934.684zm216.173-2.038l3.723-6.257-8.935-.684zm-207.228 1.358l5.212-6.941-8.934.684zm-259.424 19.7l5.212-6.941-8.934.684zm62.619-4.755l5.212-6.94-8.934.684zm8.946-.679l5.212-6.941-8.935.684zm618.727 1.358l3.723-6.257-8.935-.684zM515.833 145.4l5.212 6.94 3.7-6.212.079.006 5.17 6.886 3.7-6.211.081.006 5.169 6.884 3.695-6.21.083.006 5.168 6.883 3.694-6.208.084.006 5.167 6.881 3.723-6.257-4.625-.354c-38.16-43.227-80.9-107.636-85.818-126.885 3 18.872 28.634 81.151 52.023 124.32zm-71.554-1.354l.03.05-.087.007.087-.007L448 150.3l5.167-6.881.085-.007 3.694 6.208 5.168-6.882.083-.006 3.695 6.209 5.168-6.884.081-.006 5.174 6.89 3.7-6.219.07.005 5.176 6.893 3.7-6.218.072.005 5.174 6.891 3.723-6.257-7.5-.574c-9.23-43.041-19.142-103.384-20.323-121.907-1.9 21.9-12.358 74.782-20.967 122.113zm-8.946.679l3.723 6.257 5.166-6.879.046-.061zM381.66 148.8l3.723 6.257 5.159-6.871.1-.008 3.688 6.2 5.161-6.872.1-.007 3.689 6.2 5.161-6.874.094-.007 3.69 6.2 5.212-6.94-.774.059c21.689-47.946 48.623-102.3 53.45-124.577-7.894 22.684-52.605 78.619-87.754 127.186zm398.809 23.237l3.723-6.257-8.934-.684zm62.619 4.755l3.723-6.257-8.935-.684zm-268.369-20.378l3.723-6.257-8.934-.684zm17.891 1.359l3.723-6.257-8.935-.684zm-8.946-.679l3.723-6.257-8.934-.684zm89.457 6.792l3.723-6.257-8.935-.684zm-8.946-.679l3.723-6.257-8.934-.684zm-8.946-.679l3.723-6.257-8.934-.684z"/></svg>