<svg xmlns="http://www.w3.org/2000/svg" width="1095.088" height="387.304" viewBox="0 0 1095.088 387.304"><defs><style>.a{fill:#34495e}</style></defs><title>shadow-bigtop</title><path class="a" d="M689.424 266.265c3.5.691 6.694 1.345 9.51 1.955l28 11.231c.912.366 1.972.458 1.953.28l9.484-2.138-22.071-3.008-14.791-5.934c-5.694-5.082-.316-15.958 12.49-28.3 40.809 4.167 73.416 7.81 89.987 10.471l22.327 8.957c.912.366 1.972.458 1.953.28l9.484-2.138-22.068-3.009-9.751-3.912c-8.832-7.972 23.466-38.672 66.6-57.661l11.075-.477-6.4-2.492a3.6 3.6 0 0 0-1.254-.488l-28.872-11.248v21.608l-375.909 16.541-230.936-10.162c117.417 17.279 238.127 37.192 267.075 43.942l22.962 9.211c.912.366 1.972.458 1.953.28l1.961-.442 1.74-.392 5.783-1.3-22.068-3.009-9.707-3.894c2.185-2.422 13.937-5.7 30.893-9.463 44.684 6.955 84.5 13.315 114.711 18.534h-.052z"/></svg>