<svg id="Layer_1" xmlns="http://www.w3.org/2000/svg" viewBox="0 0 50 58"><style>.st0{fill:#fafafa}</style><path id="icon-photo" class="st0" d="M25 19.5c-3.9 0-7.1 3.2-7.1 7.1 0 3.9 3.2 7.1 7.1 7.1s7.1-3.2 7.1-7.1c0-3.9-3.2-7.1-7.1-7.1zm0 11c-2.1 0-3.8-1.7-3.8-3.8 0-2.1 1.7-3.8 3.8-3.8s3.8 1.7 3.8 3.8c0 2.1-1.7 3.8-3.8 3.8zm0-30C11.3.5.3 11.6.3 25.2.3 37.3 9 47.3 20.4 49.5l4.6 8 4.6-8C41 47.3 49.7 37.3 49.7 25.2 49.7 11.6 38.7.5 25 .5zm15.7 34.4c0 1.1-.9 2.1-2 2.1H11.3c-1.1 0-2-.9-2-2.1V19.4c0-1.1.9-2.1 2-2.1h3.6c.8 0 1.5-.5 1.9-1.2l1.1-2.4c.3-.7 1.1-1.2 1.9-1.2h10.5c.8 0 1.5.5 1.9 1.2l1.1 2.4c.3.7 1.1 1.2 1.9 1.2h3.6c1.1 0 2 .9 2 2.1v15.5z"/></svg>