<svg xmlns="http://www.w3.org/2000/svg" width="28" height="28" viewBox="0 0 28 28"><defs><style>.a{fill:#34495e}</style></defs><title>icon-twiiter-28x28</title><path class="a" d="M14 0a14 14 0 1 0 14 14A14 14 0 0 0 14 0zm.216 10.849h.02a4.185 4.185 0 0 1 7.126-3.815 8.367 8.367 0 0 0 2.214-.777c.146-.07.291-.141.435-.218a4.182 4.182 0 0 1-1.319 1.921 3.9 3.9 0 0 1-.514.354l.037-.007c-.014.008-.022.018-.035.026a8.39 8.39 0 0 0 1.968-.484c.139-.048.28-.1.419-.152A8.548 8.548 0 0 1 22.5 9.842c.008.18.012.36.012.542A11.9 11.9 0 0 1 4.194 20.4a8.418 8.418 0 0 0 5.273-1.112 8.855 8.855 0 0 0 .921-.6h-.022a.119.119 0 0 1 .022-.018 4.176 4.176 0 0 1-3.638-2.262 3.941 3.941 0 0 1-.258-.639 4.206 4.206 0 0 0 .775.074 4.292 4.292 0 0 0 .805-.086c.1-.015.2-.026.292-.042-.012 0-.023-.008-.037-.01.014 0 .029-.005.041-.009a4.183 4.183 0 0 1-3.355-4.1v-.052a4.136 4.136 0 0 0 1.487.485c.13.022.262.042.4.053a.186.186 0 0 1-.027-.018h.037a4.164 4.164 0 0 1-1.424-5.326c.043-.084.084-.169.133-.251a11.879 11.879 0 0 0 7.573 4.256c.34.049.68.093 1.024.114z"/></svg>