<svg id="Layer_1" xmlns="http://www.w3.org/2000/svg" viewBox="0 0 50 58"><style>.st0{fill:#fafafa}</style><path id="icon-movie" class="st0" d="M25 .5C11.3.5.3 11.6.3 25.2.3 37.3 9 47.3 20.4 49.5l4.6 8 4.6-8C41 47.3 49.7 37.3 49.7 25.2 49.7 11.6 38.7.5 25 .5zm3.5 32c0 .9-.7 1.7-1.7 1.7h-17c-.9 0-1.7-.7-1.7-1.7V19.2c0-.9.7-1.7 1.7-1.7h17c.9 0 1.7.7 1.7 1.7v13.3zm13.2-2.8c0 .5-.2 1-.6 1.3-.4.3-.9.4-1.4.3l-8.1-2c-.7-.2-1.3-.8-1.3-1.6v-3.9c0-.8.5-1.4 1.3-1.6l8.1-2c.5-.1 1 0 1.4.3.4.3.6.8.6 1.3v7.9z"/></svg>