<svg xmlns="http://www.w3.org/2000/svg" width="28" height="28" viewBox="0 0 28 28"><defs><style>.a{fill:#34495e}</style></defs><title>icon-web-28x28</title><path class="a" d="M21.55 8.52H6.45a.435.435 0 0 0-.436.435V17.3a.435.435 0 0 0 .436.435h15.1a.435.435 0 0 0 .436-.435V8.955a.435.435 0 0 0-.436-.435zM14 0a14 14 0 1 0 14 14A14 14 0 0 0 14 0zm9.828 18.885a1.305 1.305 0 0 1-1.306 1.306h-7.14v.291a1.306 1.306 0 0 0 1.306 1.306h1.919v1.535H9.393v-1.535h1.919a1.306 1.306 0 0 0 1.306-1.306v-.292h-7.14a1.305 1.305 0 0 1-1.306-1.306V7.983a1.306 1.306 0 0 1 1.306-1.306h17.044a1.306 1.306 0 0 1 1.306 1.306z"/></svg>