<svg xmlns="http://www.w3.org/2000/svg" width="42" height="30" viewBox="0 0 42 30"><defs><style>.a{fill:#d82133;}.b{fill:#fff;}.c{fill:#f4c27a;}</style></defs><title>8-bit-fuma</title><polygon points="39 3 42 3 42 0 9 0 9 3 6 3 6 6 3 6 3 9 0 9 0 24 3 24 3 27 6 27 6 30 36 30 36 27 39 27 39 24 42 24 42 9 39 9 39 3"/><rect class="a" x="12" y="9" width="18" height="3"/><path d="M12,24h3V18H12Zm15-6v6h3V18Z"/><path class="b" d="M9,24h3V18h3V15H9Zm18-9v3h3v6h3V15Z"/><path class="c" d="M33,15v9h3V15ZM6,15v9H9V15Zm21,0h6V12H9v3h6v9H9v3H33V24H27Z"/></svg>