<svg xmlns="http://www.w3.org/2000/svg" width="280" height="224" viewBox="0 0 280 224"><defs><style>.a{fill:#34495e;opacity:0.4;}.b{fill:#eb5256;}.c{fill:none;}</style></defs><title>アセット 1</title><polygon class="a" points="231 175 231 171 221 171 221 167 211 167 211 163 181 163 181 167 160 167 160 171 150 171 150 175 130 175 130 171 120 171 120 167 99 167 99 163 69 163 69 167 59 167 59 171 49 171 49 175 39 175 39 190 49 190 49 194 59 194 59 198 69 198 69 201 79 201 79 205 89 205 89 209 100 209 100 213 110 213 110 216 120 216 120 220 130 220 130 224 150 224 150 220 160 220 160 216 170 216 170 213 180 213 180 209 191 209 191 205 201 205 201 201 211 201 211 198 221 198 221 194 231 194 231 190 241 190 241 175 231 175"/><polygon class="b" points="266 42 266 28 252 28 252 14 238 14 238 0 196 0 196 14 168 14 168 28 154 28 154 42 126 42 126 28 112 28 112 14 84 14 84 0 42 0 42 14 28 14 28 28 14 28 14 42 0 42 0 98 14 98 14 112 28 112 28 126 42 126 42 140 56 140 56 154 70 154 70 168 84 168 84 182 98 182 98 196 112 196 112 210 126 210 126 224 154 224 154 210 168 210 168 196 182 196 182 182 196 182 196 168 210 168 210 154 224 154 224 140 238 140 238 126 252 126 252 112 266 112 266 98 280 98 280 42 266 42"/></svg>