<svg xmlns="http://www.w3.org/2000/svg" width="67" height="67" viewBox="0 0 67 67"><defs><style>.a{fill:#eb5256;}</style></defs><title>access-icon-venue</title><rect class="a" x="32.149" y="33.458" width="2.7" height="2.971"/><rect class="a" x="43.749" y="41.066" width="2.7" height="2.971"/><path class="a" d="M33.5,0A33.5,33.5,0,1,0,67,33.5,33.5,33.5,0,0,0,33.5,0ZM46.616,19.473h4.232v8.394H46.616Zm-6.3,0h5.246v8.394H40.32Zm-6.295,0h5.246v8.394H34.025Zm-6.3,0h5.247v8.394H27.728Zm-6.3,0h5.246v8.394H21.433Zm-5.282,0h4.232v8.394H16.151ZM50.9,47.527H36.56v-6.55H30.439v6.55H16.1V29.513H50.9Z"/><rect class="a" x="43.749" y="33.458" width="2.7" height="2.971"/><rect class="a" x="20.549" y="33.458" width="2.7" height="2.971"/><rect class="a" x="20.549" y="41.066" width="2.7" height="2.971"/></svg>