<svg xmlns="http://www.w3.org/2000/svg" width="67" height="67" viewBox="0 0 67 67"><defs><style>.a{fill:#eb5256;}.b{fill:#fff;}</style></defs><title>access-icon-pin</title><circle class="a" cx="33.5" cy="33.5" r="33.5"/><path class="b" d="M33.5,15.5A12.118,12.118,0,0,0,21.381,27.619c0,6.832,3.386,8.287,7.129,12.832A22.384,22.384,0,0,1,33.5,51.5a22.383,22.383,0,0,1,4.99-11.049c3.743-4.545,7.129-6,7.129-12.832A12.118,12.118,0,0,0,33.5,15.5Zm0,16.307a4.188,4.188,0,1,1,4.188-4.188A4.188,4.188,0,0,1,33.5,31.807Z" transform="translate(0 0)"/></svg>