<svg xmlns="http://www.w3.org/2000/svg" width="67" height="67" viewBox="0 0 67 67"><defs><style>.a{fill:#eb5256;}</style></defs><title>access-icon-train</title><path class="a" d="M26.416,31.789H40.585A1.389,1.389,0,0,0,41.974,30.4V24.542a1.389,1.389,0,0,0-1.389-1.389H26.415a1.388,1.388,0,0,0-1.387,1.389V30.4h0A1.388,1.388,0,0,0,26.416,31.789Z"/><path class="a" d="M26.352,38.284a1.619,1.619,0,1,0,0,3.238h0a1.619,1.619,0,0,0,0-3.237Z"/><rect class="a" x="28.211" y="18.842" width="10.578" height="1.763"/><path class="a" d="M33.5,0A33.5,33.5,0,1,0,67,33.5,33.5,33.5,0,0,0,33.5,0ZM45.841,40a5.2,5.2,0,0,1-4.3,5.112l3.83,5.788H41.967L40.4,48.524H26.606L25.034,50.9H21.628l3.831-5.787A5.2,5.2,0,0,1,21.159,40V22.208A6.108,6.108,0,0,1,27.267,16.1H39.733a6.108,6.108,0,0,1,6.108,6.108Z"/><path class="a" d="M40.652,38.283a1.619,1.619,0,1,0,0,3.238h0a1.619,1.619,0,0,0,0-3.238Z"/><polygon class="a" points="28.811 45.191 27.628 46.98 39.37 46.98 38.187 45.191 28.811 45.191"/></svg>