<svg xmlns="http://www.w3.org/2000/svg" width="67" height="67" viewBox="0 0 67 67"><defs><style>.a{fill:#eb5256;}.b{fill:#fff;}</style></defs><title>access-icon-train</title><circle class="a" cx="33.5" cy="33.5" r="33.5"/><path class="b" d="M45.841,40V22.208A6.108,6.108,0,0,0,39.733,16.1H27.267a6.108,6.108,0,0,0-6.108,6.108V40a5.2,5.2,0,0,0,4.3,5.113L21.628,50.9h3.406l1.572-2.376H40.395L41.967,50.9h3.405l-3.83-5.788A5.2,5.2,0,0,0,45.841,40ZM28.211,18.842H38.789v1.763H28.211Zm-3.183,5.7a1.388,1.388,0,0,1,1.388-1.389H40.585a1.389,1.389,0,0,1,1.389,1.389V30.4a1.389,1.389,0,0,1-1.389,1.389H26.416A1.388,1.388,0,0,1,25.028,30.4V24.541Zm1.322,16.98A1.619,1.619,0,1,1,27.97,39.9,1.619,1.619,0,0,1,26.35,41.521Zm1.278,5.458,1.183-1.789h9.376l1.183,1.789ZM40.65,41.521A1.619,1.619,0,1,1,42.27,39.9,1.619,1.619,0,0,1,40.65,41.521Z" transform="translate(0 0)"/></svg>