<svg xmlns="http://www.w3.org/2000/svg" width="67" height="67" viewBox="0 0 67 67"><defs><style>.a{fill:#eb5256;}</style></defs><title>access-icon-pin</title><circle class="a" cx="33.5" cy="27.619" r="4.188"/><path class="a" d="M33.5,0A33.5,33.5,0,1,0,67,33.5,33.5,33.5,0,0,0,33.5,0Zm4.99,40.451A22.383,22.383,0,0,0,33.5,51.5a22.384,22.384,0,0,0-4.99-11.049c-3.743-4.545-7.129-6-7.129-12.832v0A12.118,12.118,0,0,1,33.5,15.5h0A12.118,12.118,0,0,1,45.619,27.619C45.619,34.451,42.233,35.906,38.49,40.451Z"/></svg>