<svg xmlns="http://www.w3.org/2000/svg" width="67" height="67" viewBox="0 0 67 67"><defs><style>.a{fill:#eb5256;}.b{fill:#fff;}</style></defs><title>access-icon-venue</title><circle class="a" cx="33.5" cy="33.5" r="33.5"/><path class="b" d="M16.1,29.513V47.527H30.439v-6.55h6.121v6.55H50.9V29.513Zm7.149,14.524h-2.7V41.066h2.7Zm0-7.608h-2.7V33.458h2.7Zm11.6,0h-2.7V33.458h2.7Zm11.6,7.608h-2.7V41.066h2.7Zm0-7.608h-2.7V33.458h2.7Z" transform="translate(0 0)"/><rect class="b" x="34.025" y="19.473" width="5.246" height="8.394"/><rect class="b" x="21.433" y="19.473" width="5.246" height="8.394"/><rect class="b" x="27.728" y="19.473" width="5.247" height="8.394"/><rect class="b" x="16.151" y="19.473" width="4.232" height="8.394"/><rect class="b" x="46.616" y="19.473" width="4.232" height="8.394"/><rect class="b" x="40.32" y="19.473" width="5.246" height="8.394"/></svg>