<svg id="レイヤー_1" data-name="レイヤー 1" xmlns="http://www.w3.org/2000/svg" width="1280" height="1280" viewBox="0 0 1280 1280"><defs><style>.cls-1{fill:#eb5256;}.cls-2{opacity:0.1;}.cls-3{fill:#fff;}</style></defs><title>coderdojo-icon-flamingo</title><path class="cls-1" d="M640,0C281.2,0,0,290.9,0,640c0,358.8,290.9,640,640,640,358.8,0,640-290.9,640-640C1280,281.2,989.1,0,640,0Z"/><g class="cls-2"><path class="cls-3" d="M756.4,1095.8c0,9.7,0,9.7-9.7,9.7l-9.7,9.7H581.8c-9.7,0-9.7,0-9.7-9.7l-9.7-9.7c0-9.7,0-9.7,9.7-9.7l9.7-9.7H640v-223H581.8c-9.7,0-9.7,0-9.7-9.7l-9.7-9.7c0-9.7,0-9.7,9.7-9.7l9.7-9.7h97v261.8h38.8V998.8c0-9.7,0-9.7,9.7-9.7l9.7-9.7c9.7,0,9.7,0,9.7,9.7l9.7,9.7Z"/><rect class="cls-3" x="572.1" y="174.6" width="116.4" height="223.02"/><path class="cls-3" d="M640,29.1H620.6C290.9,29.1,29.1,300.6,29.1,630.3s261.8,601.2,601.2,601.2c-164.8,0-290.9-135.7-290.9-300.6S475.2,630.3,640,630.3,940.6,494.6,940.6,329.7,804.9,29.1,640,29.1Zm87.3,368.5c0,9.7,0,19.4-9.7,29.1s-19.4,9.7-29.1,9.7H572.1c-9.7,0-19.4,0-29.1-9.7s-9.7-19.4-9.7-29.1v-223c0-9.7,0-19.4,9.7-29.1s19.4-9.7,29.1-9.7H688.5c9.7,0,19.4,0,29.1,9.7s9.7,19.4,9.7,29.1Z"/></g></svg>
