<svg xmlns="http://www.w3.org/2000/svg" xmlns:xlink="http://www.w3.org/1999/xlink" width="1500" height="750" viewBox="0 0 1500 750"><defs><style>.a{fill:url(#a);}.b{fill:#fff;}.c,.e{fill:#fafafa;}.d{fill:none;stroke:#fafafa;stroke-miterlimit:10;stroke-width:0.5px;}.e{opacity:0.05;}</style><radialGradient id="a" cx="605.546" cy="336.336" r="718.318" gradientTransform="translate(14.748 -4.728) scale(0.986 0.557)" gradientUnits="userSpaceOnUse"><stop offset="0" stop-color="#34495e"/><stop offset="0.364" stop-color="#34495e"/><stop offset="1" stop-color="#293b4b"/></radialGradient></defs><title>hero-nightsky</title><rect class="a" width="1500" height="750"/><path class="b" d="M167.094,191.237a1.5,1.5,0,0,0,0-3,1.5,1.5,0,0,0,0,3Z"/><path class="b" d="M243.662,69.625a1.5,1.5,0,0,0,0-3,1.5,1.5,0,0,0,0,3Z"/><path class="b" d="M518.57,93.624a1.5,1.5,0,0,0,0-3,1.5,1.5,0,0,0,0,3Z"/><path class="b" d="M1046.573,75.27a1.5,1.5,0,0,0,0-3,1.5,1.5,0,0,0,0,3Z"/><path class="b" d="M1407.6,102.624a1.5,1.5,0,0,0,0-3,1.5,1.5,0,0,0,0,3Z"/><path class="b" d="M1401.6,177.62a1.5,1.5,0,0,0,0-3,1.5,1.5,0,0,0,0,3Z"/><path class="b" d="M1454.1,239.117a1.5,1.5,0,0,0,0-3,1.5,1.5,0,0,0,0,3Z"/><path class="b" d="M1191.615,81.625a1.5,1.5,0,0,0,0-3,1.5,1.5,0,0,0,0,3Z"/><path class="b" d="M73.28,146.6a1.5,1.5,0,0,0,0-3,1.5,1.5,0,0,0,0,3Z"/><path class="b" d="M1475.1,83.125a1.5,1.5,0,0,0,0-3,1.5,1.5,0,0,0,0,3Z"/><path class="b" d="M308.615,139a1.5,1.5,0,0,0,0-3,1.5,1.5,0,0,0,0,3Z"/><path class="b" d="M351.657,68.126a1.5,1.5,0,0,0,0-3,1.5,1.5,0,0,0,0,3Z"/><path class="b" d="M393.541,165.938a1.5,1.5,0,0,0,0-3,1.5,1.5,0,0,0,0,3Z"/><path class="b" d="M1161.309,322a1.5,1.5,0,0,0,0-3,1.5,1.5,0,0,0,0,3Z"/><path class="b" d="M1418.1,320.113a1.5,1.5,0,0,0,0-3,1.5,1.5,0,0,0,0,3Z"/><path class="c" d="M854.546,139a1.5,1.5,0,0,0,0-3,1.5,1.5,0,0,0,0,3Z"/><path class="c" d="M915.546,184a1.5,1.5,0,0,0,0-3,1.5,1.5,0,0,0,0,3Z"/><path class="c" d="M51.771,240.883a1.5,1.5,0,0,0,0-3,1.5,1.5,0,0,0,0,3Z"/><path class="c" d="M1159.56,211.752a1.5,1.5,0,0,0,0-3,1.5,1.5,0,0,0,0,3Z"/><path class="c" d="M1066.889,370.781a1.5,1.5,0,0,0,0-3,1.5,1.5,0,0,0,0,3Z"/><path class="c" d="M1298.2,221.592a1.5,1.5,0,0,0,0-3,1.5,1.5,0,0,0,0,3Z"/><path class="c" d="M918.546,95a1.5,1.5,0,0,0,0-3,1.5,1.5,0,0,0,0,3Z"/><path class="c" d="M90.546,409a1.5,1.5,0,0,0,0-3,1.5,1.5,0,0,0,0,3Z"/><path class="c" d="M150.546,341a1.5,1.5,0,0,0,0-3,1.5,1.5,0,0,0,0,3Z"/><path class="c" d="M217.682,158.252a1.5,1.5,0,0,0,0-3,1.5,1.5,0,0,0,0,3Z"/><path class="c" d="M1286.546,397a1.5,1.5,0,0,0,0-3,1.5,1.5,0,0,0,0,3Z"/><path class="c" d="M1405.451,507.416a1.5,1.5,0,0,0,0-3,1.5,1.5,0,0,0,0,3Z"/><path class="c" d="M1375.546,409a1.5,1.5,0,0,0,0-3,1.5,1.5,0,0,0,0,3Z"/><path class="c" d="M1268.576,158.252a1.5,1.5,0,0,0,0-3,1.5,1.5,0,0,0,0,3Z"/><path class="c" d="M1285.8,304.988a1.5,1.5,0,0,0,0-3,1.5,1.5,0,0,0,0,3Z"/><path class="c" d="M177.546,462a1.5,1.5,0,0,0,0-3,1.5,1.5,0,0,0,0,3Z"/><path class="c" d="M99.546,519a1.5,1.5,0,0,0,0-3,1.5,1.5,0,0,0,0,3Z"/><path class="c" d="M508.546,473a1.5,1.5,0,0,0,0-3,1.5,1.5,0,0,0,0,3Z"/><path class="c" d="M490.546,437a1.5,1.5,0,0,0,0-3,1.5,1.5,0,0,0,0,3Z"/><path class="c" d="M1018.278,163.379a1.5,1.5,0,0,0,0-3,1.5,1.5,0,0,0,0,3Z"/><path class="d" d="M374.046,418.592"/><path class="e" d="M267.195,385.247c269.449-50.912,269.31-49.953,269.31-49.953l121.111-83.241,226.275-6.276,159.779-24.752,157.379-130.84,280.87,7.534L1500,84.089V44.512l-4.956,6.162s-107.961-.026-151.72,5.363-143.331-9.083-143.331-9.083L1073.862,85.408l-141.8,117.438L675.141,225.228,473.5,235.084,286.467,317.556l-147.953,58.78L7.932,387.708,0,391.9v87.4C16.963,460.316,74.226,421.708,267.195,385.247Z"/><path class="e" d="M1130.152,276.753,974.665,310.947l-130.709-9.8-77.9,26.193-58.3,98.432,104.668-24.847s13.671-53.6,287.8-60.467,273.839-5.945,273.839-5.945L1500,275.158v-30.2l-171.975-19.491Z"/><path class="e" d="M304.337,600.092l161.679,1.294,176.39-103.8L918.4,550.244l96.546-50.784-35.007-30.366L938.93,505.925s-106.548-17.407-150.6-19.133-140-32.04-140-32.04L517.649,472.4,358.788,565.475,101.619,546.2,0,534.687v72.88l80-37.71Z"/></svg>