<svg xmlns="http://www.w3.org/2000/svg" width="320" height="570" viewBox="0 0 320 570"><defs><style>.a{fill:#fff;}</style></defs><title>hero-stars</title><path class="a" d="M222.133,85.5a.778.778,0,0,0,0-1.555.778.778,0,0,0,0,1.555Z"/><path class="a" d="M299.327,134.1a.778.778,0,0,0,0-1.555.778.778,0,0,0,0,1.555Z"/><path class="a" d="M284.094,308.6a.778.778,0,0,0,0-1.555.778.778,0,0,0,0,1.555Z"/><path class="a" d="M21.434,418.167a.778.778,0,0,0,0-1.555.778.778,0,0,0,0,1.555Z"/><path class="a" d="M86.4,192.807a.778.778,0,0,0,0-1.555.778.778,0,0,0,0,1.555Z"/><path class="a" d="M125.438,159.484a.778.778,0,0,0,0-1.555.778.778,0,0,0,0,1.555Z"/><path class="a" d="M25.468,326.1a.778.778,0,0,0,0-1.555.778.778,0,0,0,0,1.555Z"/><path class="a" d="M26.42,146.154a.778.778,0,0,0,0-1.555.778.778,0,0,0,0,1.555Z"/><path class="a" d="M255.291,175.33a.778.778,0,0,0,0-1.555.778.778,0,0,0,0,1.555Z"/><path class="a" d="M238.191,229.238a.778.778,0,0,0,0-1.555.778.778,0,0,0,0,1.555Z"/><path class="a" d="M178.047,345.337a.778.778,0,0,0,0-1.555.778.778,0,0,0,0,1.555Z"/><path class="a" d="M176.852,182.334a.778.778,0,0,0,0-1.555.778.778,0,0,0,0,1.555Z"/><path class="a" d="M190.619,12.295a.778.778,0,0,0,0-1.555.778.778,0,0,0,0,1.555Z"/><path class="a" d="M108.068,346.447a.778.778,0,0,0,0-1.555.778.778,0,0,0,0,1.555Z"/><path class="a" d="M209.014,405.272a.778.778,0,0,0,0-1.555.778.778,0,0,0,0,1.555Z"/><path class="a" d="M83.9,36.908a.778.778,0,0,0,0-1.555.778.778,0,0,0,0,1.555Z"/><path class="a" d="M127.069,74.993a.778.778,0,0,0,0-1.555.778.778,0,0,0,0,1.555Z"/><path class="a" d="M243.07,117.609a.778.778,0,0,0,0-1.555.778.778,0,0,0,0,1.555Z"/><path class="a" d="M225.657,265.842a.778.778,0,0,0,0-1.555.778.778,0,0,0,0,1.555Z"/><path class="a" d="M295.745,190.365a.778.778,0,0,0,0-1.555.778.778,0,0,0,0,1.555Z"/><path class="a" d="M50.262,92.132a.778.778,0,0,0,0-1.555.778.778,0,0,0,0,1.555Z"/><path class="a" d="M14.081,42.621a.778.778,0,0,0,0-1.555.778.778,0,0,0,0,1.555Z"/><path class="a" d="M77.363,436.128a.778.778,0,0,0,0-1.555.778.778,0,0,0,0,1.555Z"/><path class="a" d="M76.864,216.863a.778.778,0,0,0,0-1.555.778.778,0,0,0,0,1.555Z"/></svg>