<svg xmlns="http://www.w3.org/2000/svg" width="1095.088" height="387.304" viewBox="0 0 1095.088 387.304"><defs><style>.a{fill:#fafafa;}</style></defs><title>hero-andyou</title><path class="a" d="M914.546,121.751c17.714-3.644,39.77-14.4,46.287-32.657,5.265-14.751-2.768-32.368-16.183-39.763-17.307-9.541-41.476-8.448-59.641-2.213-16.309,5.6-29.413,19.063-22.859,37.34,3.542,9.876,11.7,17.032,20.758,21.859,4.787,2.551,11.045,4.053,14.93,8,6.02,6.121.784,16.439-7.552,15.938-.964-.058-.961,1.442,0,1.5a11.4,11.4,0,0,0,11.632-9.432c1.119-5.962-3.289-10.1-8.176-12.6-8.842-4.51-17.662-7.909-24.315-15.723-7.126-8.37-10.38-20.969-4.456-30.9,9.845-16.51,36.039-19.975,53.286-18.867,10.487.674,22.652,2.957,30.84,10.025A34.538,34.538,0,0,1,960.818,76.6c2.408,24.5-26.465,39.543-46.67,43.7-.945.194-.545,1.641.4,1.446Z"/><path class="a" d="M887.257,77.8h-2.1V73.6h2.1Zm0,6.3h-2.1V79.9h2.1Zm2.1-10.5h-2.1V71.5h2.1Zm0,6.3h-2.1V77.8h2.1Zm2.1,4.2h-2.1v2.1h-2.1V84.1h2.1V79.9h4.2V82h-2.1Zm-2.1-6.3V73.6h2.1v4.2Zm2.1,6.3h2.1v2.1h-2.1Z"/><path class="a" d="M908.257,79.9h-2.1V71.5h2.1Zm2.1,0v6.3h-2.1V79.9Zm0,0V77.8h2.1v2.1Zm2.1-2.1V71.5h2.1v6.3Z"/><path class="a" d="M918.69,84.1h-2.1V77.8h2.1Zm4.2-6.3h-4.2V75.7h4.2Zm0,8.4h-4.2V84.1h4.2Zm0-2.1V77.8h2.1v6.3Z"/><path class="a" d="M929.146,84.1h-2.1V75.7h2.1Zm6.3,2.1h-6.3V84.1h4.2V75.7h2.1Z"/><path class="a" d="M941.735,71.5V82h-2.1V71.5Zm-2.1,14.7V84.1h2.1v2.1Z"/><path class="a" d="M993.438,57.663l-19.081,4.811a.751.751,0,0,0,.4,1.446l19.081-4.811a.751.751,0,0,0-.4-1.446Z"/><path class="a" d="M939.743,10.043l-2.9,19.463c-.141.944,1.3,1.352,1.446.4l2.9-19.463c.141-.944-1.3-1.352-1.446-.4Z"/><path class="a" d="M971.493,28.294l-9.419,10.4c-.647.714.411,1.778,1.061,1.061l9.419-10.4c.647-.714-.411-1.778-1.061-1.061Z"/></svg>