<svg xmlns="http://www.w3.org/2000/svg" width="28" height="28" viewBox="0 0 28 28"><defs><style>.a{fill:#34495e;fill-rule:evenodd;}</style></defs><title>icon-github-28x28</title><path class="a" d="M14,0A14,14,0,0,0,9.575,27.284c.7.128.956-.3.956-.675,0-.332-.012-1.213-.019-2.381C6.617,25.074,5.8,22.352,5.8,22.352A3.707,3.707,0,0,0,4.241,20.3c-1.271-.869.1-.851.1-.851A2.941,2.941,0,0,1,6.482,20.9a2.981,2.981,0,0,0,4.074,1.163,2.991,2.991,0,0,1,.889-1.872c-3.109-.353-6.377-1.554-6.377-6.919A5.411,5.411,0,0,1,6.509,9.511a5.035,5.035,0,0,1,.137-3.705S7.822,5.43,10.5,7.241a13.27,13.27,0,0,1,7.01,0c2.673-1.812,3.846-1.435,3.846-1.435a5.028,5.028,0,0,1,.139,3.705,5.4,5.4,0,0,1,1.439,3.757c0,5.378-3.273,6.562-6.392,6.908a3.341,3.341,0,0,1,.95,2.593c0,1.872-.017,3.382-.017,3.841,0,.374.252.81.963.673A14,14,0,0,0,14,0Z"/></svg>