<?xml version="1.0" encoding="utf-8"?>
<!-- Generator: Adobe Illustrator 21.1.0, SVG Export Plug-In . SVG Version: 6.00 Build 0)  -->
<svg version="1.1" id="Layer_1" xmlns="http://www.w3.org/2000/svg" xmlns:xlink="http://www.w3.org/1999/xlink" x="0px" y="0px"
	 viewBox="0 0 50 58" style="enable-background:new 0 0 50 58;" xml:space="preserve">
<style type="text/css">
	.st0{fill:#FAFAFA;}
</style>
<path id="icon-photo" class="st0" d="M25,19.5c-3.9,0-7.1,3.2-7.1,7.1c0,3.9,3.2,7.1,7.1,7.1s7.1-3.2,7.1-7.1
	C32.1,22.7,28.9,19.5,25,19.5z M25,30.5c-2.1,0-3.8-1.7-3.8-3.8c0-2.1,1.7-3.8,3.8-3.8s3.8,1.7,3.8,3.8C28.8,28.8,27.1,30.5,25,30.5
	z M25,0.5C11.3,0.5,0.3,11.6,0.3,25.2c0,12.1,8.7,22.1,20.1,24.3l4.6,8l4.6-8c11.4-2.2,20.1-12.2,20.1-24.3
	C49.7,11.6,38.7,0.5,25,0.5z M40.7,34.9c0,1.1-0.9,2.1-2,2.1H11.3c-1.1,0-2-0.9-2-2.1V19.4c0-1.1,0.9-2.1,2-2.1h3.6
	c0.8,0,1.5-0.5,1.9-1.2l1.1-2.4c0.3-0.7,1.1-1.2,1.9-1.2h10.5c0.8,0,1.5,0.5,1.9,1.2l1.1,2.4c0.3,0.7,1.1,1.2,1.9,1.2h3.6
	c1.1,0,2,0.9,2,2.1V34.9z"/>
</svg>
