<svg xmlns="http://www.w3.org/2000/svg" width="28" height="28" viewBox="0 0 28 28"><defs><style>.a{fill:#34495e;}</style></defs><title>icon-web-28x28</title><path class="a" d="M21.55,8.52H6.45a.435.435,0,0,0-.436.435V17.3a.435.435,0,0,0,.436.435h15.1a.435.435,0,0,0,.436-.435V8.955A.435.435,0,0,0,21.55,8.52ZM14,0A14,14,0,1,0,28,14,14,14,0,0,0,14,0Zm9.828,18.885a1.305,1.305,0,0,1-1.306,1.306h-7.14v.291a1.306,1.306,0,0,0,1.306,1.306h1.919v1.535H9.393V21.788h1.919a1.306,1.306,0,0,0,1.306-1.306V20.19H5.478a1.305,1.305,0,0,1-1.306-1.306V7.983A1.306,1.306,0,0,1,5.478,6.677H22.522a1.306,1.306,0,0,1,1.306,1.306Z"/></svg>