<?xml version="1.0" encoding="utf-8"?>
<!-- Generator: Adobe Illustrator 21.1.0, SVG Export Plug-In . SVG Version: 6.00 Build 0)  -->
<svg version="1.1" id="Layer_1" xmlns="http://www.w3.org/2000/svg" xmlns:xlink="http://www.w3.org/1999/xlink" x="0px" y="0px"
	 viewBox="0 0 50 58" style="enable-background:new 0 0 50 58;" xml:space="preserve">
<style type="text/css">
	.st0{fill:#FAFAFA;}
</style>
<path id="icon-movie" class="st0" d="M25,0.5C11.3,0.5,0.3,11.6,0.3,25.2c0,12.1,8.7,22.1,20.1,24.3l4.6,8l4.6-8
	c11.4-2.2,20.1-12.2,20.1-24.3C49.7,11.6,38.7,0.5,25,0.5z M28.5,32.5c0,0.9-0.7,1.7-1.7,1.7h-17c-0.9,0-1.7-0.7-1.7-1.7V19.2
	c0-0.9,0.7-1.7,1.7-1.7h17c0.9,0,1.7,0.7,1.7,1.7V32.5z M41.7,29.7c0,0.5-0.2,1-0.6,1.3c-0.4,0.3-0.9,0.4-1.4,0.3l-8.1-2
	c-0.7-0.2-1.3-0.8-1.3-1.6v-3.9c0-0.8,0.5-1.4,1.3-1.6l8.1-2c0.5-0.1,1,0,1.4,0.3c0.4,0.3,0.6,0.8,0.6,1.3V29.7z"/>
</svg>
